<?xml version="1.0" encoding="UTF-8" standalone="no"?>
<!-- Created with Inkscape (http://www.inkscape.org/) -->

<svg
   width="10.984828mm"
   height="10.984827mm"
   viewBox="0 0 10.984828 10.984827"
   version="1.1"
   id="svg1"
   inkscape:version="1.3 (0e150ed6c4, 2023-07-21)"
   sodipodi:docname="grass-medium-idle.svg"
   xml:space="preserve"
   xmlns:inkscape="http://www.inkscape.org/namespaces/inkscape"
   xmlns:sodipodi="http://sodipodi.sourceforge.net/DTD/sodipodi-0.dtd"
   xmlns="http://www.w3.org/2000/svg"
   xmlns:svg="http://www.w3.org/2000/svg"><sodipodi:namedview
     id="namedview1"
     pagecolor="#505050"
     bordercolor="#ffffff"
     borderopacity="1"
     inkscape:showpageshadow="0"
     inkscape:pageopacity="0"
     inkscape:pagecheckerboard="1"
     inkscape:deskcolor="#505050"
     inkscape:document-units="mm"
     inkscape:zoom="1"
     inkscape:cx="78"
     inkscape:cy="486"
     inkscape:window-width="1236"
     inkscape:window-height="980"
     inkscape:window-x="20"
     inkscape:window-y="20"
     inkscape:window-maximized="1"
     inkscape:current-layer="layer6" /><defs
     id="defs1" /><g
     inkscape:groupmode="layer"
     id="layer6"
     inkscape:label="grass"
     transform="translate(-2.6777337,-152.69377)"><g
       id="rect1-2-6-3-5-8"
       style="opacity:0"><path
         style="color:#000000;fill:#ffffff;fill-opacity:0;stroke-linecap:round;stroke-linejoin:round;-inkscape-stroke:none"
         d="M 2.8073206,152.82335 H 13.532975 V 163.549 H 2.8073206 Z"
         id="path1" /><path
         style="color:#000000;fill:#000000;stroke-linecap:round;stroke-linejoin:round;-inkscape-stroke:none"
         d="m 2.8066406,152.69336 a 0.12959995,0.12959995 0 0 0 -0.1289062,0.13086 v 10.72461 a 0.12959995,0.12959995 0 0 0 0.1289062,0.1289 H 13.533203 a 0.12959995,0.12959995 0 0 0 0.128906,-0.1289 v -10.72461 a 0.12959995,0.12959995 0 0 0 -0.128906,-0.13086 z M 2.9375,152.95312 h 10.466797 v 10.4668 H 2.9375 Z"
         id="path2" /></g><path
       style="fill:#68ad48;stroke-width:0.22643;stroke-linejoin:round"
       d="m 3.6238345,163.0179 0.384485,-5.79277 0.756986,5.73174 z"
       id="path32-2-7" /><path
       style="fill:#68ad48;stroke-width:0.208496;stroke-linejoin:round"
       d="m 6.6650141,161.8019 0.384485,-4.91149 0.756987,4.85977 z"
       id="path32-1-8" /><path
       style="fill:#68ad48;stroke-width:0.285578;stroke-linejoin:round"
       d="m 5.5235431,163.06247 0.5778528,-5.16721 0.5636182,5.07015 z"
       id="path32-1-5-2"
       sodipodi:nodetypes="cccc" /><path
       style="fill:#68ad48;stroke-width:0.191808;stroke-linejoin:round"
       d="m 8.1419156,163.18629 0.463242,-3.45006 0.9120423,3.41371 z"
       id="path32-1-2-4-0" /><path
       style="fill:#68ad48;stroke-width:0.145032;stroke-linejoin:round"
       d="m 11.076666,162.34542 0.209726,-4.35686 0.412916,4.31096 z"
       id="path32-9-58" /><path
       style="fill:#68ad48;stroke-width:0.168385;stroke-linejoin:round"
       d="m 12.260597,162.91783 0.209726,-5.87286 0.412916,5.81099 z"
       id="path32-9-5-5" /></g></svg>
