<?xml version="1.0" encoding="UTF-8" standalone="no"?>
<!-- Created with Inkscape (http://www.inkscape.org/) -->

<svg
   width="10.984829mm"
   height="10.984827mm"
   viewBox="0 0 10.984829 10.984827"
   version="1.1"
   id="svg1"
   inkscape:version="1.3 (0e150ed6c4, 2023-07-21)"
   sodipodi:docname="grass-diverse-medium-idle.svg"
   xml:space="preserve"
   xmlns:inkscape="http://www.inkscape.org/namespaces/inkscape"
   xmlns:sodipodi="http://sodipodi.sourceforge.net/DTD/sodipodi-0.dtd"
   xmlns="http://www.w3.org/2000/svg"
   xmlns:svg="http://www.w3.org/2000/svg"><sodipodi:namedview
     id="namedview1"
     pagecolor="#505050"
     bordercolor="#ffffff"
     borderopacity="1"
     inkscape:showpageshadow="0"
     inkscape:pageopacity="0"
     inkscape:pagecheckerboard="1"
     inkscape:deskcolor="#505050"
     inkscape:document-units="mm"
     inkscape:zoom="1"
     inkscape:cx="78"
     inkscape:cy="486"
     inkscape:window-width="1236"
     inkscape:window-height="980"
     inkscape:window-x="20"
     inkscape:window-y="20"
     inkscape:window-maximized="1"
     inkscape:current-layer="layer6" /><defs
     id="defs1" /><g
     inkscape:groupmode="layer"
     id="layer6"
     inkscape:label="grass"
     transform="translate(-19.346484,-198.73127)"><g
       id="path37-9"><path
         style="color:#000000;fill:#cae2c2;stroke-linejoin:round;-inkscape-stroke:none"
         d="m 22.105648,206.52423 -0.125625,1.38582"
         id="path1" /><path
         style="color:#000000;fill:#5a8753;stroke-linejoin:round;-inkscape-stroke:none"
         d="m 22.019531,206.51562 -0.126953,1.38672 0.173828,0.0156 0.125,-1.38672 z"
         id="path2" /></g><g
       id="rect1-2-6-3-5-8-6-4"
       style="opacity:0"><path
         style="color:#000000;fill:#ffffff;fill-opacity:0;stroke-linecap:round;stroke-linejoin:round;-inkscape-stroke:none"
         d="m 19.47607,198.86086 h 10.725655 v 10.72565 H 19.47607 Z"
         id="path3" /><path
         style="color:#000000;fill:#000000;stroke-linecap:round;stroke-linejoin:round;-inkscape-stroke:none"
         d="m 19.476562,198.73047 a 0.12959995,0.12959995 0 0 0 -0.130859,0.13086 v 10.72461 a 0.12959995,0.12959995 0 0 0 0.130859,0.13086 h 10.72461 a 0.12959995,0.12959995 0 0 0 0.130859,-0.13086 v -10.72461 a 0.12959995,0.12959995 0 0 0 -0.130859,-0.13086 z m 0.128907,0.25976 h 10.466797 v 10.4668 H 19.605469 Z"
         id="path4" /></g><path
       style="fill:#d24555;stroke-width:0.439907;stroke-linejoin:round"
       d="m 21.585679,206.91445 c 0.04936,-0.50736 0.292388,-0.88069 0.633087,-1.24022 0.143571,0.41836 0.36059,0.78061 0.21958,1.37239 -1.033655,-0.57179 -0.764737,-0.67031 -1.07536,-0.96634 0.65685,-0.0962 1.043693,-0.0374 1.540143,0.24475 -0.464057,0.19667 -0.6449,0.49185 -1.31745,0.58942 z"
       id="path36-2"
       sodipodi:nodetypes="cccccc" /><path
       style="fill:#68ad48;stroke-width:0.22643;stroke-linejoin:round"
       d="m 20.292585,209.05541 0.384485,-5.79277 0.756986,5.73174 z"
       id="path32-2-7-2-0" /><path
       style="fill:#68ad48;stroke-width:0.208496;stroke-linejoin:round"
       d="m 23.333764,207.83941 0.384485,-4.91149 0.756987,4.85977 z"
       id="path32-1-8-7-3" /><circle
       style="fill:#cae2c2;stroke-width:0.439907;stroke-linejoin:round"
       id="path35-4"
       cx="22.130339"
       cy="206.41707"
       r="0.26739997" /><path
       style="fill:#68ad48;stroke-width:0.285578;stroke-linejoin:round"
       d="m 22.192293,209.09998 0.577853,-5.16721 0.563618,5.07015 z"
       id="path32-1-5-2-1-1"
       sodipodi:nodetypes="cccc" /><path
       style="fill:#68ad48;stroke-width:0.191808;stroke-linejoin:round"
       d="m 24.810666,209.2238 0.463242,-3.45006 0.912042,3.41371 z"
       id="path32-1-2-4-0-5-2" /><path
       style="fill:#68ad48;stroke-width:0.145032;stroke-linejoin:round"
       d="m 27.745416,208.38293 0.209726,-4.35686 0.412916,4.31096 z"
       id="path32-9-58-88-7" /><path
       style="fill:#68ad48;stroke-width:0.168385;stroke-linejoin:round"
       d="m 28.929347,208.95534 0.209726,-5.87286 0.412916,5.81099 z"
       id="path32-9-5-5-4-7" /><g
       id="path37-1-6"><path
         style="color:#000000;fill:#cae2c2;stroke-linejoin:round;-inkscape-stroke:none"
         d="m 27.465579,206.96042 -0.125625,1.38582"
         id="path5" /><path
         style="color:#000000;fill:#5a8753;stroke-linejoin:round;-inkscape-stroke:none"
         d="m 27.378906,206.95312 -0.125,1.38477 0.171875,0.0156 0.126953,-1.38477 z"
         id="path6" /></g><path
       style="fill:#6abfbb;stroke-width:0.439907;stroke-linejoin:round"
       d="m 26.94561,207.35064 c 0.04936,-0.50736 0.292388,-0.88069 0.633087,-1.24022 0.143571,0.41836 0.36059,0.78061 0.21958,1.37239 -1.033655,-0.57179 -0.764737,-0.67031 -1.07536,-0.96634 0.65685,-0.0962 1.043693,-0.0374 1.540143,0.24475 -0.464057,0.19667 -0.6449,0.49185 -1.31745,0.58942 z"
       id="path36-9-3"
       sodipodi:nodetypes="cccccc" /><circle
       style="fill:#623c38;stroke-width:0.439907;stroke-linejoin:round"
       id="path35-7-9"
       cx="27.490269"
       cy="206.85327"
       r="0.26739997" /></g></svg>
