<?xml version="1.0" encoding="UTF-8" standalone="no"?>
<!-- Created with Inkscape (http://www.inkscape.org/) -->

<svg
   width="10.984829mm"
   height="10.984827mm"
   viewBox="0 0 10.984829 10.984827"
   version="1.1"
   id="svg1"
   inkscape:version="1.3 (0e150ed6c4, 2023-07-21)"
   sodipodi:docname="grass-diverse-tall-idle.svg"
   xml:space="preserve"
   xmlns:inkscape="http://www.inkscape.org/namespaces/inkscape"
   xmlns:sodipodi="http://sodipodi.sourceforge.net/DTD/sodipodi-0.dtd"
   xmlns="http://www.w3.org/2000/svg"
   xmlns:svg="http://www.w3.org/2000/svg"><sodipodi:namedview
     id="namedview1"
     pagecolor="#505050"
     bordercolor="#ffffff"
     borderopacity="1"
     inkscape:showpageshadow="0"
     inkscape:pageopacity="0"
     inkscape:pagecheckerboard="1"
     inkscape:deskcolor="#505050"
     inkscape:document-units="mm"
     inkscape:zoom="1"
     inkscape:cx="78"
     inkscape:cy="486"
     inkscape:window-width="1236"
     inkscape:window-height="980"
     inkscape:window-x="20"
     inkscape:window-y="20"
     inkscape:window-maximized="1"
     inkscape:current-layer="layer6" /><defs
     id="defs1" /><g
     inkscape:groupmode="layer"
     id="layer6"
     inkscape:label="grass"
     transform="translate(-19.314583,-186.53126)"><g
       id="rect1-2-6-3-5-3-2"
       style="opacity:0"><path
         style="color:#000000;fill:#ffffff;fill-opacity:0;stroke-linecap:round;stroke-linejoin:round;-inkscape-stroke:none"
         d="M 19.44417,186.66084 H 30.169825 V 197.3865 H 19.44417 Z"
         id="path1" /><path
         style="color:#000000;fill:#000000;stroke-linecap:round;stroke-linejoin:round;-inkscape-stroke:none"
         d="m 19.443359,186.53125 a 0.12959995,0.12959995 0 0 0 -0.128906,0.12891 v 10.72656 a 0.12959995,0.12959995 0 0 0 0.128906,0.1289 h 10.726563 a 0.12959995,0.12959995 0 0 0 0.128906,-0.1289 v -10.72656 a 0.12959995,0.12959995 0 0 0 -0.128906,-0.12891 z m 0.13086,0.25977 h 10.466797 v 10.46679 H 19.574219 Z"
         id="path2" /></g><path
       style="fill:#68ad48;stroke-width:0.166413;stroke-linejoin:round"
       d="m 22.599566,196.02288 -0.180463,-7.03899 0.97299,6.96334 z"
       id="path32-7-0"
       sodipodi:nodetypes="cccc" /><path
       style="fill:#68ad48;stroke-width:0.244553;stroke-linejoin:round"
       d="m 19.647384,197.01617 0.814347,-6.79022 0.200119,6.71903 z"
       id="path32-2-0-2"
       sodipodi:nodetypes="cccc" /><path
       style="fill:#68ad48;stroke-width:0.243395;stroke-linejoin:round"
       d="m 22.821357,195.98247 0.946005,-6.69332 0.195467,6.62284 z"
       id="path32-1-6-2"
       sodipodi:nodetypes="cccc" /><path
       style="fill:#68ad48;stroke-width:0.214951;stroke-linejoin:round"
       d="m 21.285906,196.76245 0.384485,-5.22032 0.756986,5.16533 z"
       id="path32-1-5-9-9" /><path
       style="fill:#68ad48;stroke-width:0.264583;stroke-linejoin:round"
       d="m 25.962169,196.37546 0.384485,-7.90934 0.756987,7.82601 z"
       id="path32-1-2-2-7" /><path
       style="color:#000000;fill:#5a8753;stroke-linejoin:round;-inkscape-stroke:none"
       d="m 25.673828,191.37891 c -0.210186,0.267 -0.308988,0.53801 -0.339844,0.81836 -0.03086,0.28034 9.53e-4,0.56669 0.03906,0.89257 0.07622,0.65177 0.181293,1.46276 -0.07813,2.67969 l 0.259765,0.0547 c 0.267565,-1.25515 0.155965,-2.11476 0.08008,-2.76367 -0.03794,-0.32446 -0.06547,-0.59599 -0.03906,-0.83594 0.02641,-0.23995 0.102697,-0.44986 0.285156,-0.68164 z"
       id="path35-6-0" /><path
       style="fill:#68ad48;stroke-width:0.191808;stroke-linejoin:round"
       d="m 23.838933,196.87133 0.203571,-3.41699 1.171713,3.38064 z"
       id="path32-1-2-4-1-4"
       sodipodi:nodetypes="cccc" /><path
       style="fill:#ffffff;stroke-width:0.264583;stroke-linejoin:round"
       d="m 24.960909,192.56541 c -0.03687,-0.69355 0.193549,-1.66568 1.033298,-2.59458 0.334737,0.79785 0.58338,1.60127 0.318155,2.4379 -1.197206,-0.37929 -1.58959,-0.87865 -1.970695,-1.43369 0.900151,0.002 0.707325,-0.78339 2.855534,0.11717 -1.135576,1.00223 -1.480713,1.38814 -2.236292,1.4732 z"
       id="path34-0-9"
       sodipodi:nodetypes="cccccc" /><path
       style="fill:#68ad48;stroke-width:0.191808;stroke-linejoin:round"
       d="m 24.586885,195.83778 0.203571,-3.41699 1.171713,3.38064 z"
       id="path32-1-2-4-07-7-3"
       sodipodi:nodetypes="cccc" /><circle
       style="fill:#d5dd2e;stroke-width:0.220037;stroke-linejoin:round"
       id="path33-1-4"
       cx="25.724874"
       cy="191.38406"
       r="0.49241832" /><path
       style="fill:#68ad48;stroke-width:0.168385;stroke-linejoin:round"
       d="m 27.074212,196.88947 0.1129,-5.7577 0.837723,5.67244 z"
       id="path32-9-7-5"
       sodipodi:nodetypes="cccc" /><path
       style="fill:#68ad48;stroke-width:0.168385;stroke-linejoin:round"
       d="m 27.549524,196.84684 0.685037,-5.91549 0.412916,5.81099 z"
       id="path32-9-3-9-6"
       sodipodi:nodetypes="cccc" /><path
       style="fill:#68ad48;stroke-width:0.168385;stroke-linejoin:round"
       d="m 29.326005,196.7856 0.209726,-5.87286 0.412916,5.81099 z"
       id="path32-9-5-7-1" /><g
       id="path39-1"><path
         style="color:#000000;fill:#d3746b;stroke-linejoin:round;-inkscape-stroke:none"
         d="m 22.981505,196.34505 -0.03025,0.6478"
         id="path3" /><path
         style="color:#000000;fill:#ffffff;stroke-linejoin:round;-inkscape-stroke:none"
         d="m 22.695312,196.33203 -0.03125,0.64649 0.574219,0.0273 0.0293,-0.64649 z"
         id="path4" /></g><path
       style="fill:#d3746b;stroke-width:0.228665;stroke-linejoin:round"
       d="m 22.229119,196.42631 c -0.09405,-1.12691 1.453184,-1.2756 1.4963,0.0189 z"
       id="path38-2"
       sodipodi:nodetypes="ccc" /><ellipse
       style="fill:#ffffff;stroke-width:0.574;stroke-linejoin:round"
       id="path40-8"
       cx="23.024208"
       cy="195.77539"
       rx="0.098862372"
       ry="0.10711946" /><ellipse
       style="fill:#ffffff;stroke-width:0.574;stroke-linejoin:round"
       id="path42-9"
       cx="22.664568"
       cy="196.12921"
       rx="0.18187696"
       ry="0.20245321" /><ellipse
       style="fill:#ffffff;stroke-width:0.574;stroke-linejoin:round"
       id="path43-6"
       cx="23.381092"
       cy="196.20584"
       rx="0.086015925"
       ry="0.096328251" /></g></svg>
