<?xml version="1.0" encoding="UTF-8" standalone="no"?>
<!-- Created with Inkscape (http://www.inkscape.org/) -->

<svg
   width="10.984828mm"
   height="10.984827mm"
   viewBox="0 0 10.984828 10.984827"
   version="1.1"
   id="svg1"
   inkscape:version="1.3 (0e150ed6c4, 2023-07-21)"
   sodipodi:docname="grass-small-idle.svg"
   xml:space="preserve"
   xmlns:inkscape="http://www.inkscape.org/namespaces/inkscape"
   xmlns:sodipodi="http://sodipodi.sourceforge.net/DTD/sodipodi-0.dtd"
   xmlns="http://www.w3.org/2000/svg"
   xmlns:svg="http://www.w3.org/2000/svg"><sodipodi:namedview
     id="namedview1"
     pagecolor="#505050"
     bordercolor="#ffffff"
     borderopacity="1"
     inkscape:showpageshadow="0"
     inkscape:pageopacity="0"
     inkscape:pagecheckerboard="1"
     inkscape:deskcolor="#505050"
     inkscape:document-units="mm"
     inkscape:zoom="1"
     inkscape:cx="78"
     inkscape:cy="486"
     inkscape:window-width="1236"
     inkscape:window-height="980"
     inkscape:window-x="20"
     inkscape:window-y="20"
     inkscape:window-maximized="1"
     inkscape:current-layer="layer6" /><defs
     id="defs1" /><g
     inkscape:groupmode="layer"
     id="layer6"
     inkscape:label="grass"
     transform="translate(-2.8863228,-164.89378)"><g
       id="rect1-2-6-3-5-8-9"
       style="opacity:0"><path
         style="color:#000000;fill:#ffffff;fill-opacity:0;stroke-linecap:round;stroke-linejoin:round;-inkscape-stroke:none"
         d="M 3.0159097,165.02336 H 13.741564 v 10.72566 H 3.0159097 Z"
         id="path1" /><path
         style="color:#000000;fill:#000000;stroke-linecap:round;stroke-linejoin:round;-inkscape-stroke:none"
         d="m 3.015625,164.89453 a 0.12959995,0.12959995 0 0 0 -0.1289062,0.12891 v 10.72461 a 0.12959995,0.12959995 0 0 0 0.1289062,0.13086 h 10.726563 a 0.12959995,0.12959995 0 0 0 0.128906,-0.13086 v -10.72461 a 0.12959995,0.12959995 0 0 0 -0.128906,-0.12891 z m 0.1289063,0.25781 H 13.611328 v 10.4668 H 3.1445313 Z"
         id="path2" /></g><path
       style="fill:#68ad48;stroke-width:0.208496;stroke-linejoin:round"
       d="m 6.5672534,175.21113 0.384485,-4.91149 0.756987,4.85977 z"
       id="path32-1-8-1" /><path
       style="fill:#68ad48;stroke-width:0.223376;stroke-linejoin:round"
       d="m 3.9667649,174.71065 0.5778525,-3.16139 0.563619,3.10201 z"
       id="path32-1-5-2-9"
       sodipodi:nodetypes="cccc" /><path
       style="fill:#68ad48;stroke-width:0.13945;stroke-linejoin:round"
       d="m 11.619161,175.18432 0.209726,-4.02792 0.412916,3.98549 z"
       id="path32-9-58-8" /><path
       style="fill:#68ad48;stroke-width:0.168385;stroke-linejoin:round"
       d="m 8.5816044,174.19656 0.2097265,-5.87286 0.412916,5.81099 z"
       id="path32-9-5-5-9" /></g></svg>
