<?xml version="1.0" encoding="UTF-8" standalone="no"?>
<!-- Created with Inkscape (http://www.inkscape.org/) -->

<svg
   width="10.984829mm"
   height="10.984827mm"
   viewBox="0 0 10.984829 10.984827"
   version="1.1"
   id="svg1"
   inkscape:version="1.3 (0e150ed6c4, 2023-07-21)"
   sodipodi:docname="grass-tall-idle.svg"
   xml:space="preserve"
   xmlns:inkscape="http://www.inkscape.org/namespaces/inkscape"
   xmlns:sodipodi="http://sodipodi.sourceforge.net/DTD/sodipodi-0.dtd"
   xmlns="http://www.w3.org/2000/svg"
   xmlns:svg="http://www.w3.org/2000/svg"><sodipodi:namedview
     id="namedview1"
     pagecolor="#505050"
     bordercolor="#ffffff"
     borderopacity="1"
     inkscape:showpageshadow="0"
     inkscape:pageopacity="0"
     inkscape:pagecheckerboard="1"
     inkscape:deskcolor="#505050"
     inkscape:document-units="mm"
     inkscape:zoom="4"
     inkscape:cx="16.25"
     inkscape:cy="583.5"
     inkscape:window-width="1236"
     inkscape:window-height="980"
     inkscape:window-x="20"
     inkscape:window-y="20"
     inkscape:window-maximized="1"
     inkscape:current-layer="layer6" /><defs
     id="defs1" /><g
     inkscape:groupmode="layer"
     id="layer6"
     inkscape:label="grass"
     transform="translate(-2.6458331,-140.49374)"><g
       id="rect1-2-6-3-5"
       style="opacity:0"><path
         style="color:#000000;fill:#ffffff;fill-opacity:0;stroke-linecap:round;stroke-linejoin:round;-inkscape-stroke:none"
         d="M 2.7754202,140.62334 H 13.501075 v 10.72565 H 2.7754202 Z"
         id="path1" /><path
         style="color:#000000;fill:#000000;stroke-linecap:round;stroke-linejoin:round;-inkscape-stroke:none"
         d="m 2.7753906,140.49414 a 0.12959995,0.12959995 0 0 0 -0.1289062,0.12891 v 10.72656 a 0.12959995,0.12959995 0 0 0 0.1289062,0.12891 H 13.501953 a 0.12959995,0.12959995 0 0 0 0.128906,-0.12891 v -10.72656 a 0.12959995,0.12959995 0 0 0 -0.128906,-0.12891 z m 0.1289063,0.25781 H 13.371094 v 10.4668 H 2.9042969 Z"
         id="path2" /></g><path
       style="fill:#68ad48;stroke-width:0.166413;stroke-linejoin:round"
       d="m 5.9308154,149.98537 -0.1804622,-7.03899 0.97299,6.96334 z"
       id="path32"
       sodipodi:nodetypes="cccc" /><path
       style="fill:#68ad48;stroke-width:0.244553;stroke-linejoin:round"
       d="m 2.9786341,150.97866 0.8143469,-6.79022 0.2001192,6.71903 z"
       id="path32-2"
       sodipodi:nodetypes="cccc" /><path
       style="fill:#68ad48;stroke-width:0.243395;stroke-linejoin:round"
       d="m 6.1526072,149.94496 0.9460049,-6.69332 0.1954671,6.62284 z"
       id="path32-1"
       sodipodi:nodetypes="cccc" /><path
       style="fill:#68ad48;stroke-width:0.214951;stroke-linejoin:round"
       d="m 4.617156,150.72494 0.384485,-5.22032 0.756986,5.16533 z"
       id="path32-1-5" /><path
       style="fill:#68ad48;stroke-width:0.264583;stroke-linejoin:round"
       d="m 9.2934189,150.33795 0.384485,-7.90934 0.7569871,7.82601 z"
       id="path32-1-2" /><path
       style="fill:#68ad48;stroke-width:0.191808;stroke-linejoin:round"
       d="m 7.1701833,150.83382 0.2035705,-3.41699 1.1717133,3.38064 z"
       id="path32-1-2-4"
       sodipodi:nodetypes="cccc" /><path
       style="fill:#68ad48;stroke-width:0.191808;stroke-linejoin:round"
       d="m 7.918135,149.80027 0.2035705,-3.41699 1.1717134,3.38064 z"
       id="path32-1-2-4-07"
       sodipodi:nodetypes="cccc" /><path
       style="fill:#68ad48;stroke-width:0.168385;stroke-linejoin:round"
       d="m 10.405462,150.85196 0.1129,-5.7577 0.837723,5.67244 z"
       id="path32-9"
       sodipodi:nodetypes="cccc" /><path
       style="fill:#68ad48;stroke-width:0.168385;stroke-linejoin:round"
       d="m 10.880774,150.80933 0.685037,-5.91549 0.412916,5.81099 z"
       id="path32-9-3"
       sodipodi:nodetypes="cccc" /><path
       style="fill:#68ad48;stroke-width:0.168385;stroke-linejoin:round"
       d="m 12.657255,150.74809 0.209726,-5.87286 0.412916,5.81099 z"
       id="path32-9-5" /></g></svg>
