<?xml version="1.0" encoding="UTF-8" standalone="no"?>
<!-- Created with Inkscape (http://www.inkscape.org/) -->

<svg
   width="10.984829mm"
   height="10.984827mm"
   viewBox="0 0 10.984829 10.984827"
   version="1.1"
   id="svg1"
   inkscape:version="1.3 (0e150ed6c4, 2023-07-21)"
   sodipodi:docname="grass-diverse-small-idle.svg"
   xml:space="preserve"
   xmlns:inkscape="http://www.inkscape.org/namespaces/inkscape"
   xmlns:sodipodi="http://sodipodi.sourceforge.net/DTD/sodipodi-0.dtd"
   xmlns="http://www.w3.org/2000/svg"
   xmlns:svg="http://www.w3.org/2000/svg"><sodipodi:namedview
     id="namedview1"
     pagecolor="#505050"
     bordercolor="#ffffff"
     borderopacity="1"
     inkscape:showpageshadow="0"
     inkscape:pageopacity="0"
     inkscape:pagecheckerboard="1"
     inkscape:deskcolor="#505050"
     inkscape:document-units="mm"
     inkscape:zoom="1"
     inkscape:cx="78"
     inkscape:cy="486"
     inkscape:window-width="1236"
     inkscape:window-height="980"
     inkscape:window-x="20"
     inkscape:window-y="20"
     inkscape:window-maximized="1"
     inkscape:current-layer="layer6" /><defs
     id="defs1" /><g
     inkscape:groupmode="layer"
     id="layer6"
     inkscape:label="grass"
     transform="translate(-19.555073,-210.93127)"><g
       id="path39"><path
         style="color:#000000;fill:#d3746b;stroke-linejoin:round;-inkscape-stroke:none"
         d="m 24.895818,219.12694 -0.03025,0.6478"
         id="path1" /><path
         style="color:#000000;fill:#ffffff;stroke-linejoin:round;-inkscape-stroke:none"
         d="m 24.609375,219.11328 -0.03125,0.64844 0.574219,0.0273 0.0293,-0.64844 z"
         id="path2" /></g><g
       id="path37-1-2-1"><path
         style="color:#000000;fill:#cae2c2;stroke-linejoin:round;-inkscape-stroke:none"
         d="m 21.644745,218.86667 -0.125625,1.38582"
         id="path3" /><path
         style="color:#000000;fill:#5a8753;stroke-linejoin:round;-inkscape-stroke:none"
         d="m 21.558594,218.85937 -0.126953,1.38477 0.173828,0.0156 0.125,-1.38477 z"
         id="path4" /></g><path
       style="fill:#6abfbb;stroke-width:0.439907;stroke-linejoin:round"
       d="m 21.124776,219.25689 c 0.04936,-0.50736 0.292388,-0.88069 0.633087,-1.24022 0.143571,0.41836 0.36059,0.78061 0.21958,1.37239 -1.033655,-0.57179 -0.764737,-0.67031 -1.07536,-0.96634 0.65685,-0.0962 1.043693,-0.0374 1.540143,0.24475 -0.464057,0.19667 -0.6449,0.49185 -1.31745,0.58942 z"
       id="path36-9-0-3"
       sodipodi:nodetypes="cccccc" /><g
       id="rect1-2-6-3-5-8-9-5-9"
       style="opacity:0"><path
         style="color:#000000;fill:#ffffff;fill-opacity:0;stroke-linecap:round;stroke-linejoin:round;-inkscape-stroke:none"
         d="m 19.68466,211.06087 h 10.725655 v 10.72565 H 19.68466 Z"
         id="path5" /><path
         style="color:#000000;fill:#000000;stroke-linecap:round;stroke-linejoin:round;-inkscape-stroke:none"
         d="m 19.685547,210.93164 a 0.12959995,0.12959995 0 0 0 -0.13086,0.12891 v 10.72656 a 0.12959995,0.12959995 0 0 0 0.13086,0.12891 h 10.724609 a 0.12959995,0.12959995 0 0 0 0.128906,-0.12891 v -10.72656 a 0.12959995,0.12959995 0 0 0 -0.128906,-0.12891 z m 0.128906,0.25977 H 30.28125 v 10.46484 H 19.814453 Z"
         id="path6" /></g><path
       style="fill:#d3746b;stroke-width:0.228665;stroke-linejoin:round"
       d="m 24.143432,219.2082 c -0.09405,-1.12691 1.453184,-1.2756 1.4963,0.0189 z"
       id="path38"
       sodipodi:nodetypes="ccc" /><path
       style="fill:#68ad48;stroke-width:0.208496;stroke-linejoin:round"
       d="m 23.236004,221.24864 0.384485,-4.91149 0.756987,4.85977 z"
       id="path32-1-8-1-6-8" /><circle
       style="fill:#623c38;stroke-width:0.439907;stroke-linejoin:round"
       id="path35-7-6-0"
       cx="21.669436"
       cy="218.75952"
       r="0.26739997" /><path
       style="fill:#68ad48;stroke-width:0.223376;stroke-linejoin:round"
       d="m 20.635515,220.74816 0.577853,-3.16139 0.563619,3.10201 z"
       id="path32-1-5-2-9-5-1"
       sodipodi:nodetypes="cccc" /><path
       style="fill:#68ad48;stroke-width:0.13945;stroke-linejoin:round"
       d="m 28.287911,221.22183 0.209726,-4.02792 0.412916,3.98549 z"
       id="path32-9-58-8-6-0" /><ellipse
       style="fill:#ffffff;stroke-width:0.574;stroke-linejoin:round"
       id="path40"
       cx="24.93852"
       cy="218.55728"
       rx="0.098862372"
       ry="0.10711946" /><path
       style="fill:#68ad48;stroke-width:0.168385;stroke-linejoin:round"
       d="m 25.250355,220.23407 0.209726,-5.87286 0.412916,5.81099 z"
       id="path32-9-5-5-9-8-7" /><ellipse
       style="fill:#ffffff;stroke-width:0.574;stroke-linejoin:round"
       id="path42"
       cx="24.57888"
       cy="218.9111"
       rx="0.18187696"
       ry="0.20245321" /><ellipse
       style="fill:#ffffff;stroke-width:0.574;stroke-linejoin:round"
       id="path43"
       cx="25.295404"
       cy="218.98773"
       rx="0.086015925"
       ry="0.096328251" /></g></svg>
