<?xml version="1.0" encoding="UTF-8" standalone="no"?>
<!-- Created with Inkscape (http://www.inkscape.org/) -->

<svg
   width="10.984831mm"
   height="10.984827mm"
   viewBox="0 0 10.984831 10.984827"
   version="1.1"
   id="svg1"
   inkscape:version="1.3 (0e150ed6c4, 2023-07-21)"
   sodipodi:docname="stickman-damage-low-2.svg"
   xml:space="preserve"
   xmlns:inkscape="http://www.inkscape.org/namespaces/inkscape"
   xmlns:sodipodi="http://sodipodi.sourceforge.net/DTD/sodipodi-0.dtd"
   xmlns="http://www.w3.org/2000/svg"
   xmlns:svg="http://www.w3.org/2000/svg"><sodipodi:namedview
     id="namedview1"
     pagecolor="#d5d5d5"
     bordercolor="#ffffff"
     borderopacity="1"
     inkscape:showpageshadow="0"
     inkscape:pageopacity="0"
     inkscape:pagecheckerboard="1"
     inkscape:deskcolor="#505050"
     inkscape:document-units="mm"
     inkscape:zoom="11.313709"
     inkscape:cx="28.902988"
     inkscape:cy="77.958519"
     inkscape:window-width="1236"
     inkscape:window-height="980"
     inkscape:window-x="20"
     inkscape:window-y="20"
     inkscape:window-maximized="1"
     inkscape:current-layer="layer5" /><defs
     id="defs1" /><g
     inkscape:groupmode="layer"
     id="layer2"
     inkscape:label="pipe"
     style="display:none"
     transform="translate(-39.048299,-26.126188)"><g
       id="rect1-2-6-3-1-5-91-8"><path
         style="color:#000000;fill:#ffffff;fill-opacity:0;stroke-linecap:round;stroke-linejoin:round;-inkscape-stroke:none"
         d="M 39.233932,26.241009 H 49.959587 V 36.966663 H 39.233932 Z"
         id="path24" /><path
         style="color:#000000;fill:#000000;stroke-linecap:round;stroke-linejoin:round;-inkscape-stroke:none"
         d="m 39.234375,26.111328 a 0.12959995,0.12959995 0 0 0 -0.130859,0.128906 v 10.726563 a 0.12959995,0.12959995 0 0 0 0.130859,0.128906 h 10.724609 a 0.12959995,0.12959995 0 0 0 0.13086,-0.128906 V 26.240234 a 0.12959995,0.12959995 0 0 0 -0.13086,-0.128906 z m 0.128906,0.259766 H 49.830078 V 36.837891 H 39.363281 Z"
         id="path23" /></g><g
       id="g13-6-0-0"
       transform="rotate(125.05126,21.849415,30.449666)"><path
         style="color:#000000;fill:#7d7d7d;stroke-linejoin:round;-inkscape-stroke:none"
         d="m 11.916016,6.1328125 c -0.119886,-5.433e-4 -0.251011,0.023104 -0.371094,0.099609 -0.120083,0.076505 -0.214789,0.2070313 -0.257813,0.3574218 a 0.27252726,0.27252726 0 0 0 -0.002,0.00586 l -1.070312,4.0136719 0.527344,0.140625 1.068359,-4.0097656 0.002,-0.00391 c 0.01052,-0.033668 0.01734,-0.039794 0.02539,-0.044922 0.0087,-0.00556 0.03223,-0.013871 0.07617,-0.013672 0.08788,3.982e-4 0.238258,0.054133 0.310546,0.1035156 L 12.53125,6.3300781 C 12.366738,6.2176954 12.155787,6.133899 11.916016,6.1328125 Z"
         id="path22" /><path
         style="fill:#6b6b6b;stroke-width:0.12999;stroke-linecap:round;stroke-linejoin:round"
         d="m 12.140361,6.7789349 c 0.06413,0.078605 0.139084,0.1394375 0.301539,0.1411685 0.205623,-0.088516 0.290091,-0.2728823 0.26892,-0.5375135 -0.08434,-0.082153 -0.137432,-0.098568 -0.247207,-0.1316705 -0.02293,0.2232532 -0.119099,0.4081872 -0.323252,0.5280155 z"
         id="path21"
         sodipodi:nodetypes="ccccc" /><path
         style="fill:#6b6b6b;stroke-width:0.145;stroke-linejoin:round"
         d="m 10.255916,10.439503 0.574862,0.136707 c 0.0086,0.128676 0.01728,0.05673 -0.04313,0.188625 -0.213561,0.0053 -0.4762,-0.05665 -0.572602,-0.158117 -0.02129,-0.10629 -0.02943,-0.10343 0.04087,-0.167215 z"
         id="path20"
         sodipodi:nodetypes="ccccc" /></g></g><g
     inkscape:groupmode="layer"
     id="layer3"
     inkscape:label="pistol"
     style="display:none"
     sodipodi:insensitive="true"
     transform="translate(-39.048299,-26.126188)"><g
       id="rect1-2-6-3-6-7-8-2-7"><path
         style="color:#000000;fill:#ffffff;fill-opacity:0;stroke-linecap:round;stroke-linejoin:round;-inkscape-stroke:none"
         d="M 39.177887,26.255774 H 49.903542 V 36.981428 H 39.177887 Z"
         id="path19" /><path
         style="color:#000000;fill:#000000;stroke-linecap:round;stroke-linejoin:round;-inkscape-stroke:none"
         d="m 39.177734,26.126953 a 0.12959995,0.12959995 0 0 0 -0.128906,0.128906 v 10.72461 a 0.12959995,0.12959995 0 0 0 0.128906,0.130859 h 10.726563 a 0.12959995,0.12959995 0 0 0 0.128906,-0.130859 v -10.72461 a 0.12959995,0.12959995 0 0 0 -0.128906,-0.128906 z m 0.128907,0.257813 H 49.773437 V 36.851562 H 39.306641 Z"
         id="path18" /></g><g
       id="g17-0-3-5-0"
       transform="matrix(0.50568336,0.8755644,-0.85022071,0.50144959,46.167811,19.15162)"><g
         id="g16-8-0-7-8"><path
           style="color:#000000;fill:#404040;stroke-linejoin:round;-inkscape-stroke:none"
           d="m 12.451172,7.6035156 -0.05078,0.2402344 -0.363282,0.013672 0.0059,0.1464844 0.419922,-0.017578 a 0.07250725,0.07250725 0 0 0 0.06836,-0.058594 l 0.06055,-0.2949219 z"
           id="path17" /></g><rect
         style="fill:#6a3300;stroke-width:0.204747;stroke-linejoin:round"
         id="rect17"
         width="0.51746899"
         height="1.0753255"
         x="12.692005"
         y="4.2797461"
         ry="0.11806334"
         transform="matrix(0.96658012,0.25636474,-0.14489159,0.98944754,0,0)" /><rect
         style="fill:#909090;stroke-width:0.145;stroke-linejoin:round"
         id="rect16"
         width="1.7168922"
         height="0.376816"
         x="11.623376"
         y="7.3263092" /><rect
         style="fill:#303030;stroke-width:0.145;stroke-linejoin:round"
         id="rect15"
         width="0.059829496"
         height="0.13378662"
         x="13.340268"
         y="7.3263092" /><rect
         style="fill:#676767;stroke-width:0.125349;stroke-linejoin:round"
         id="rect14"
         width="0.4603602"
         height="0.188408"
         x="12.132112"
         y="7.3260527" /></g></g><g
     inkscape:label="stickman"
     inkscape:groupmode="layer"
     id="layer1"
     transform="translate(-39.048299,-26.126188)"><g
       id="rect1-4-61-7"
       style="opacity:0"><path
         style="color:#000000;fill:#ffffff;fill-opacity:0;stroke-linecap:round;stroke-linejoin:round;-inkscape-stroke:none"
         d="M 39.177887,26.255774 H 49.903542 V 36.981428 H 39.177887 Z"
         id="path14" /><path
         style="color:#000000;fill:#000000;stroke-linecap:round;stroke-linejoin:round;-inkscape-stroke:none"
         d="m 39.177734,26.126953 a 0.12959995,0.12959995 0 0 0 -0.128906,0.128906 v 10.72461 a 0.12959995,0.12959995 0 0 0 0.128906,0.130859 h 10.726563 a 0.12959995,0.12959995 0 0 0 0.128906,-0.130859 v -10.72461 a 0.12959995,0.12959995 0 0 0 -0.128906,-0.128906 z m 0.128907,0.257813 H 49.773437 V 36.851562 H 39.306641 Z"
         id="path13" /></g><g
       id="path1-7-0-7"
       transform="rotate(12.038386)"><path
         style="color:#000000;fill:#ffffff;fill-opacity:0;stroke-linecap:round;stroke-linejoin:round;-inkscape-stroke:none"
         d="m 51.491604,18.80138 a 1.5453528,1.5453528 0 0 1 -1.545353,1.545353 1.5453528,1.5453528 0 0 1 -1.545353,-1.545353 1.5453528,1.5453528 0 0 1 1.545353,-1.545353 1.5453528,1.5453528 0 0 1 1.545353,1.545353 z"
         id="path12" /><path
         style="color:#000000;fill:#000000;stroke-linecap:round;stroke-linejoin:round;-inkscape-stroke:none"
         d="m 49.945312,16.962891 c -1.01186,0 -1.83789,0.82603 -1.83789,1.83789 0,1.01186 0.82603,1.839844 1.83789,1.839844 1.011861,0 1.839844,-0.827984 1.839844,-1.839844 0,-1.01186 -0.827983,-1.83789 -1.839844,-1.83789 z m 0,0.585937 c 0.695088,0 1.253907,0.556865 1.253907,1.251953 0,0.695088 -0.558819,1.251953 -1.253907,1.251953 -0.695087,0 -1.251953,-0.556865 -1.251953,-1.251953 0,-0.695088 0.556866,-1.251953 1.251953,-1.251953 z"
         id="path11" /></g><g
       id="path2-6-6-1"><path
         style="color:#000000;fill:#ffffff;fill-opacity:0;stroke-linecap:round;stroke-linejoin:round;-inkscape-stroke:none"
         d="m 44.587137,30.602335 c -0.935324,1.357272 -0.408406,2.170084 -0.242645,3.250723"
         id="path10" /><path
         style="color:#000000;fill:#000000;stroke-linecap:round;stroke-linejoin:round;-inkscape-stroke:none"
         d="m 44.533203,30.314453 a 0.29306901,0.29306901 0 0 0 -0.1875,0.121094 c -0.497763,0.722316 -0.625213,1.354595 -0.585937,1.916015 0.03928,0.561421 0.217428,1.041672 0.294921,1.546875 a 0.29306901,0.29306901 0 0 0 0.333985,0.244141 0.29306901,0.29306901 0 0 0 0.246094,-0.333984 c -0.08827,-0.575435 -0.25727,-1.043585 -0.289063,-1.498047 -0.03179,-0.454463 0.04486,-0.906061 0.482422,-1.541016 a 0.29306901,0.29306901 0 0 0 -0.07422,-0.408203 0.29306901,0.29306901 0 0 0 -0.220703,-0.04687 z"
         id="path9" /></g><g
       id="path3-5-1-1"><path
         style="color:#000000;fill:#ffffff;fill-opacity:0;stroke-linecap:round;stroke-linejoin:round;-inkscape-stroke:none"
         d="m 44.29123,33.706698 c -0.01448,0.979608 -0.101729,2.030991 -0.635187,2.853522"
         id="path8" /><path
         style="color:#000000;fill:#000000;stroke-linecap:round;stroke-linejoin:round;-inkscape-stroke:none"
         d="m 44.294922,33.414062 a 0.29306901,0.29306901 0 0 0 -0.296875,0.289063 c -0.01427,0.96531 -0.108534,1.958153 -0.587891,2.697266 a 0.29306901,0.29306901 0 0 0 0.08594,0.40625 0.29306901,0.29306901 0 0 0 0.40625,-0.08789 c 0.587558,-0.905947 0.666949,-2.013908 0.68164,-3.007813 a 0.29306901,0.29306901 0 0 0 -0.289062,-0.296875 z"
         id="path7" /></g><g
       id="path4-6-5-5"><path
         style="color:#000000;fill:#ffffff;fill-opacity:0;stroke-linecap:round;stroke-linejoin:round;-inkscape-stroke:none"
         d="m 44.387869,33.870007 c 0.963851,0.914134 1.071469,1.799683 1.133526,2.713817"
         id="path6" /><path
         style="color:#000000;fill:#000000;stroke-linecap:round;stroke-linejoin:round;-inkscape-stroke:none"
         d="m 44.589844,33.658203 a 0.29306901,0.29306901 0 0 0 -0.414063,0.0098 0.29306901,0.29306901 0 0 0 0.0098,0.414062 c 0.903185,0.856597 0.981596,1.617434 1.042969,2.521485 a 0.29306901,0.29306901 0 0 0 0.3125,0.273437 0.29306901,0.29306901 0 0 0 0.273437,-0.3125 c -0.06274,-0.924216 -0.200094,-1.934581 -1.224609,-2.90625 z"
         id="path5" /></g><g
       id="path5-9-9-9"><path
         style="color:#000000;fill:#ffffff;fill-opacity:0;stroke-linecap:round;stroke-linejoin:round;-inkscape-stroke:none"
         d="m 44.250213,30.64318 c -0.534154,0.987852 -0.593921,2.208763 -0.749712,2.975693"
         id="path4" /><path
         style="color:#000000;fill:#000000;stroke-linecap:round;stroke-linejoin:round;-inkscape-stroke:none"
         d="m 44.166016,30.363281 a 0.29306901,0.29306901 0 0 0 -0.173829,0.140625 c -0.577857,1.068676 -0.632674,2.334845 -0.779296,3.056641 a 0.29306901,0.29306901 0 0 0 0.228515,0.345703 0.29306901,0.29306901 0 0 0 0.345703,-0.228516 c 0.16496,-0.812063 0.230254,-1.987505 0.720703,-2.894531 a 0.29306901,0.29306901 0 0 0 -0.11914,-0.398437 0.29306901,0.29306901 0 0 0 -0.222656,-0.02148 z"
         id="path3" /></g><g
       id="path5-5-3-49-7"><path
         style="color:#000000;fill:#ffffff;fill-opacity:0;stroke-linecap:round;stroke-linejoin:round;-inkscape-stroke:none"
         d="m 44.432655,30.609921 c 0.363054,0.387989 0.297819,1.701783 0.882909,3.00713"
         id="path2" /><path
         style="color:#000000;fill:#000000;stroke-linecap:round;stroke-linejoin:round;-inkscape-stroke:none"
         d="m 44.232422,30.396484 a 0.29306901,0.29306901 0 0 0 -0.01367,0.414063 c 0.06278,0.0671 0.180601,0.471479 0.283203,1.013672 0.102602,0.542192 0.237658,1.222239 0.546875,1.912109 a 0.29306901,0.29306901 0 0 0 0.386719,0.148438 0.29306901,0.29306901 0 0 0 0.146484,-0.386719 c -0.275872,-0.615476 -0.40209,-1.245166 -0.503906,-1.783203 -0.101816,-0.538038 -0.131371,-0.983796 -0.431641,-1.304688 a 0.29306901,0.29306901 0 0 0 -0.414062,-0.01367 z"
         id="path1" /></g></g></svg>
