<?xml version="1.0" encoding="UTF-8" standalone="no"?>
<!-- Created with Inkscape (http://www.inkscape.org/) -->

<svg
   width="10.984827mm"
   height="10.984829mm"
   viewBox="0 0 10.984827 10.984829"
   version="1.1"
   id="svg1"
   inkscape:version="1.3 (0e150ed6c4, 2023-07-21)"
   sodipodi:docname="stickman-run-5.svg"
   xml:space="preserve"
   xmlns:inkscape="http://www.inkscape.org/namespaces/inkscape"
   xmlns:sodipodi="http://sodipodi.sourceforge.net/DTD/sodipodi-0.dtd"
   xmlns="http://www.w3.org/2000/svg"
   xmlns:svg="http://www.w3.org/2000/svg"><sodipodi:namedview
     id="namedview1"
     pagecolor="#d5d5d5"
     bordercolor="#ffffff"
     borderopacity="1"
     inkscape:showpageshadow="0"
     inkscape:pageopacity="0"
     inkscape:pagecheckerboard="1"
     inkscape:deskcolor="#505050"
     inkscape:document-units="mm"
     inkscape:zoom="1"
     inkscape:cx="232.49999"
     inkscape:cy="117.99999"
     inkscape:window-width="1236"
     inkscape:window-height="980"
     inkscape:window-x="20"
     inkscape:window-y="20"
     inkscape:window-maximized="1"
     inkscape:current-layer="layer3" /><defs
     id="defs1" /><g
     inkscape:groupmode="layer"
     id="layer2"
     inkscape:label="pipe"
     style="display:none"
     sodipodi:insensitive="true"
     transform="translate(-74.479601,-14.668661)"><g
       id="g13-6-9-2-3-4"
       transform="rotate(33.614454,25.665139,132.41707)"><path
         style="color:#000000;fill:#7d7d7d;stroke-linejoin:round;-inkscape-stroke:none"
         d="m 11.916016,6.1328125 c -0.119886,-5.433e-4 -0.251011,0.023104 -0.371094,0.099609 -0.120083,0.076505 -0.214789,0.2070313 -0.257813,0.3574218 a 0.27252726,0.27252726 0 0 0 -0.002,0.00586 l -1.070312,4.0136719 0.527344,0.140625 1.068359,-4.0097656 0.002,-0.00391 c 0.01052,-0.033668 0.01734,-0.039794 0.02539,-0.044922 0.0087,-0.00556 0.03223,-0.013871 0.07617,-0.013672 0.08788,3.982e-4 0.238258,0.054133 0.310546,0.1035156 L 12.53125,6.3300781 C 12.366738,6.2176954 12.155787,6.133899 11.916016,6.1328125 Z"
         id="path11-9-6-1-5-0" /><path
         style="fill:#6b6b6b;stroke-width:0.12999;stroke-linecap:round;stroke-linejoin:round"
         d="m 12.140361,6.7789349 c 0.06413,0.078605 0.139084,0.1394375 0.301539,0.1411685 0.205623,-0.088516 0.290091,-0.2728823 0.26892,-0.5375135 -0.08434,-0.082153 -0.137432,-0.098568 -0.247207,-0.1316705 -0.02293,0.2232532 -0.119099,0.4081872 -0.323252,0.5280155 z"
         id="path12-8-0-5-6-6"
         sodipodi:nodetypes="ccccc" /><path
         style="fill:#6b6b6b;stroke-width:0.145;stroke-linejoin:round"
         d="m 10.255916,10.439503 0.574862,0.136707 c 0.0086,0.128676 0.01728,0.05673 -0.04313,0.188625 -0.213561,0.0053 -0.4762,-0.05665 -0.572602,-0.158117 -0.02129,-0.10629 -0.02943,-0.10343 0.04087,-0.167215 z"
         id="path13-7-2-9-2-2"
         sodipodi:nodetypes="ccccc" /></g><g
       id="rect1-2-9-9"><path
         style="color:#000000;fill:#ffffff;fill-opacity:0;stroke-linecap:round;stroke-linejoin:round;-inkscape-stroke:none"
         d="M 74.609192,14.798247 H 85.334846 V 25.523902 H 74.609192 Z"
         id="path1" /><path
         style="color:#000000;fill:#000000;stroke-linecap:round;stroke-linejoin:round;-inkscape-stroke:none"
         d="m 74.609375,14.667969 a 0.12959995,0.12959995 0 0 0 -0.128906,0.130859 v 10.724609 a 0.12959995,0.12959995 0 0 0 0.128906,0.13086 h 10.724609 a 0.12959995,0.12959995 0 0 0 0.13086,-0.13086 V 14.798828 a 0.12959995,0.12959995 0 0 0 -0.13086,-0.130859 z m 0.128906,0.259765 H 85.205078 V 25.394531 H 74.738281 Z"
         id="path2" /></g></g><g
     inkscape:groupmode="layer"
     id="layer3"
     inkscape:label="pistol"
     style="display:none"
     sodipodi:insensitive="true"
     transform="translate(-74.479601,-14.668661)"><g
       id="g17-0-3-5-0-9-7-3-5"
       transform="matrix(0.80991057,0.60528803,-0.5836661,0.79602816,76.459036,8.2876674)"><g
         id="g16-8-0-7-8-0-3-3-8"><path
           style="color:#000000;fill:#404040;stroke-linejoin:round;-inkscape-stroke:none"
           d="m 12.451172,7.6035156 -0.05078,0.2402344 -0.363282,0.013672 0.0059,0.1464844 0.419922,-0.017578 a 0.07250725,0.07250725 0 0 0 0.06836,-0.058594 l 0.06055,-0.2949219 z"
           id="path16-6-1-4-1-2-1-3-7" /></g><rect
         style="fill:#6a3300;stroke-width:0.204747;stroke-linejoin:round"
         id="rect16-2-7-9-9-0-1-7-9"
         width="0.51746899"
         height="1.0753255"
         x="12.692005"
         y="4.2797461"
         ry="0.11806334"
         transform="matrix(0.96658012,0.25636474,-0.14489159,0.98944754,0,0)" /><rect
         style="fill:#909090;stroke-width:0.145;stroke-linejoin:round"
         id="rect13-4-8-9-9-1-9-3-6"
         width="1.7168922"
         height="0.376816"
         x="11.623376"
         y="7.3263092" /><rect
         style="fill:#303030;stroke-width:0.145;stroke-linejoin:round"
         id="rect14-7-9-4-7-9-0-2-0"
         width="0.059829496"
         height="0.13378662"
         x="13.340268"
         y="7.3263092" /><rect
         style="fill:#676767;stroke-width:0.125349;stroke-linejoin:round"
         id="rect15-9-1-5-8-6-5-6-4"
         width="0.4603602"
         height="0.188408"
         x="12.132112"
         y="7.3260527" /></g></g><g
     inkscape:label="stickman"
     inkscape:groupmode="layer"
     id="layer1"
     transform="translate(-74.479601,-14.668661)"><g
       id="rect1-4-2-6-9"
       style="opacity:0"><path
         style="color:#000000;fill:#ffffff;fill-opacity:0;stroke-linecap:round;stroke-linejoin:round;-inkscape-stroke:none"
         d="M 74.609192,14.798247 H 85.334846 V 25.523902 H 74.609192 Z"
         id="path3" /><path
         style="color:#000000;fill:#000000;stroke-linecap:round;stroke-linejoin:round;-inkscape-stroke:none"
         d="m 74.609375,14.667969 a 0.12959995,0.12959995 0 0 0 -0.128906,0.130859 v 10.724609 a 0.12959995,0.12959995 0 0 0 0.128906,0.13086 h 10.724609 a 0.12959995,0.12959995 0 0 0 0.13086,-0.13086 V 14.798828 a 0.12959995,0.12959995 0 0 0 -0.13086,-0.130859 z m 0.128906,0.259765 H 85.205078 V 25.394531 H 74.738281 Z"
         id="path4" /></g><g
       id="path1-7-5-8-7"><path
         style="color:#000000;fill:#ffffff;fill-opacity:0;stroke-linecap:round;stroke-linejoin:round;-inkscape-stroke:none"
         d="m 82.78397,17.420504 a 1.5453528,1.5453528 0 0 1 -1.545353,1.545352 1.5453528,1.5453528 0 0 1 -1.545353,-1.545352 1.5453528,1.5453528 0 0 1 1.545353,-1.545353 1.5453528,1.5453528 0 0 1 1.545353,1.545353 z"
         id="path5" /><path
         style="color:#000000;fill:#000000;stroke-linecap:round;stroke-linejoin:round;-inkscape-stroke:none"
         d="m 81.238281,15.582031 c -1.01186,0 -1.83789,0.826031 -1.83789,1.837891 0,1.01186 0.82603,1.839844 1.83789,1.839844 1.01186,0 1.837891,-0.827984 1.837891,-1.839844 0,-1.01186 -0.826031,-1.837891 -1.837891,-1.837891 z m 0,0.585938 c 0.695088,0 1.251953,0.556865 1.251953,1.251953 0,0.695088 -0.556865,1.251953 -1.251953,1.251953 -0.695088,0 -1.251953,-0.556865 -1.251953,-1.251953 0,-0.695088 0.556865,-1.251953 1.251953,-1.251953 z"
         id="path6" /></g><g
       id="path2-6-4-8-3"><path
         style="color:#000000;fill:#ffffff;fill-opacity:0;stroke-linecap:round;stroke-linejoin:round;-inkscape-stroke:none"
         d="m 80.487051,18.969591 -0.711248,3.42594"
         id="path7" /><path
         style="color:#000000;fill:#000000;stroke-linecap:round;stroke-linejoin:round;-inkscape-stroke:none"
         d="m 80.546875,18.683594 a 0.29306901,0.29306901 0 0 0 -0.347656,0.226562 l -0.710938,3.425781 a 0.29306901,0.29306901 0 0 0 0.228516,0.345704 0.29306901,0.29306901 0 0 0 0.345703,-0.226563 l 0.710937,-3.425781 a 0.29306901,0.29306901 0 0 0 -0.226562,-0.345703 z"
         id="path8" /></g><g
       id="path3-5-7-4-6"><path
         style="color:#000000;fill:#ffffff;fill-opacity:0;stroke-linecap:round;stroke-linejoin:round;-inkscape-stroke:none"
         d="m 79.820632,22.133631 c 1.436288,1.108613 0.786703,1.483663 0.291624,2.713035"
         id="path9" /><path
         style="color:#000000;fill:#000000;stroke-linecap:round;stroke-linejoin:round;-inkscape-stroke:none"
         d="m 79.783203,21.84375 a 0.29306901,0.29306901 0 0 0 -0.195312,0.111328 0.29306901,0.29306901 0 0 0 0.05273,0.410156 c 0.344286,0.265741 0.550062,0.480165 0.654297,0.644532 0.104234,0.164366 0.12095,0.266838 0.105469,0.40039 -0.03096,0.267106 -0.300274,0.679866 -0.560547,1.326172 a 0.29306901,0.29306901 0 0 0 0.162109,0.382813 0.29306901,0.29306901 0 0 0 0.382813,-0.16211 c 0.234805,-0.583065 0.539128,-0.9736 0.597656,-1.478515 0.02926,-0.252458 -0.03091,-0.527033 -0.19336,-0.783204 C 80.62661,22.439142 80.373857,22.190909 80,21.902344 a 0.29306901,0.29306901 0 0 0 -0.216797,-0.05859 z"
         id="path10" /></g><g
       id="path4-6-4-3-1"><path
         style="color:#000000;fill:#ffffff;fill-opacity:0;stroke-linecap:round;stroke-linejoin:round;-inkscape-stroke:none"
         d="m 79.781726,22.355307 c -0.303677,1.388493 -0.37106,1.570707 -0.907598,2.791869"
         id="path11" /><path
         style="color:#000000;fill:#000000;stroke-linecap:round;stroke-linejoin:round;-inkscape-stroke:none"
         d="m 79.84375,22.068359 a 0.29306901,0.29306901 0 0 0 -0.347656,0.22461 c -0.302887,1.38488 -0.354772,1.516723 -0.890625,2.736328 a 0.29306901,0.29306901 0 0 0 0.15039,0.386719 0.29306901,0.29306901 0 0 0 0.386719,-0.150391 c 0.537221,-1.222717 0.621315,-1.455553 0.925781,-2.847656 a 0.29306901,0.29306901 0 0 0 -0.224609,-0.34961 z"
         id="path12" /></g><g
       id="path5-9-4-1-2"><path
         style="color:#000000;fill:#ffffff;fill-opacity:0;stroke-linecap:round;stroke-linejoin:round;-inkscape-stroke:none"
         d="m 80.434027,19.218787 c -0.116323,1.384081 -0.115549,1.719109 0.958673,2.700767"
         id="path13" /><path
         style="color:#000000;fill:#000000;stroke-linecap:round;stroke-linejoin:round;-inkscape-stroke:none"
         d="m 80.458984,18.925781 a 0.29306901,0.29306901 0 0 0 -0.316406,0.267578 c -0.05833,0.694061 -0.09825,1.16224 0.04492,1.615235 0.143167,0.452995 0.458472,0.82612 1.007812,1.328125 a 0.29306901,0.29306901 0 0 0 0.414063,-0.01953 0.29306901,0.29306901 0 0 0 -0.01953,-0.414062 c -0.524881,-0.479652 -0.747055,-0.766313 -0.84375,-1.072266 -0.09669,-0.305953 -0.07752,-0.696699 -0.01953,-1.386718 a 0.29306901,0.29306901 0 0 0 -0.267578,-0.31836 z"
         id="path14" /></g><g
       id="path5-5-3-3-4-9"><path
         style="color:#000000;fill:#ffffff;fill-opacity:0;stroke-linecap:round;stroke-linejoin:round;-inkscape-stroke:none"
         d="m 80.349026,19.252889 c -1.125134,0.880249 -1.318072,1.062821 -0.987037,2.674846"
         id="path15" /><path
         style="color:#000000;fill:#000000;stroke-linecap:round;stroke-linejoin:round;-inkscape-stroke:none"
         d="m 80.167969,19.021484 c -0.563908,0.441174 -0.942205,0.729527 -1.128907,1.181641 -0.186701,0.452114 -0.133056,0.964066 0.03516,1.783203 a 0.29306901,0.29306901 0 0 0 0.347656,0.228516 0.29306901,0.29306901 0 0 0 0.226562,-0.345703 c -0.162822,-0.792887 -0.176651,-1.179167 -0.06836,-1.441407 0.108292,-0.262239 0.387994,-0.504285 0.949219,-0.943359 a 0.29306901,0.29306901 0 0 0 0.05078,-0.412109 0.29306901,0.29306901 0 0 0 -0.412109,-0.05078 z"
         id="path16" /></g></g></svg>
