<?xml version="1.0" encoding="UTF-8" standalone="no"?>
<!-- Created with Inkscape (http://www.inkscape.org/) -->

<svg
   width="10.984831mm"
   height="10.984827mm"
   viewBox="0 0 10.984831 10.984827"
   version="1.1"
   id="svg1"
   inkscape:version="1.3 (0e150ed6c4, 2023-07-21)"
   sodipodi:docname="stickman-dead-1.svg"
   xml:space="preserve"
   xmlns:inkscape="http://www.inkscape.org/namespaces/inkscape"
   xmlns:sodipodi="http://sodipodi.sourceforge.net/DTD/sodipodi-0.dtd"
   xmlns="http://www.w3.org/2000/svg"
   xmlns:svg="http://www.w3.org/2000/svg"><sodipodi:namedview
     id="namedview1"
     pagecolor="#d5d5d5"
     bordercolor="#ffffff"
     borderopacity="1"
     inkscape:showpageshadow="0"
     inkscape:pageopacity="0"
     inkscape:pagecheckerboard="1"
     inkscape:deskcolor="#505050"
     inkscape:document-units="mm"
     inkscape:zoom="2.0000001"
     inkscape:cx="104.99999"
     inkscape:cy="97.499995"
     inkscape:window-width="1236"
     inkscape:window-height="980"
     inkscape:window-x="20"
     inkscape:window-y="20"
     inkscape:window-maximized="1"
     inkscape:current-layer="layer1" /><defs
     id="defs1" /><g
     inkscape:groupmode="layer"
     id="layer2"
     inkscape:label="pipe"
     style="display:none"
     transform="translate(-27.080388,-59.15922)"><g
       id="rect1-2-6-3-1-5-91-8-4-4"><path
         style="color:#000000;fill:#ffffff;fill-opacity:0;stroke-linecap:round;stroke-linejoin:round;-inkscape-stroke:none"
         d="M 27.209974,59.288807 H 37.935629 V 70.014462 H 27.209974 Z"
         id="path24" /><path
         style="color:#000000;fill:#000000;stroke-linecap:round;stroke-linejoin:round;-inkscape-stroke:none"
         d="m 27.210937,59.160156 a 0.12959995,0.12959995 0 0 0 -0.130859,0.128906 v 10.72461 a 0.12959995,0.12959995 0 0 0 0.130859,0.130859 h 10.72461 a 0.12959995,0.12959995 0 0 0 0.128906,-0.130859 v -10.72461 a 0.12959995,0.12959995 0 0 0 -0.128906,-0.128906 z m 0.128907,0.257813 H 37.806641 V 69.884766 H 27.339844 Z"
         id="path23" /></g><g
       id="g13-6-0-0-2-99"
       transform="rotate(106.51901,0.62144788,46.811023)"><path
         style="color:#000000;fill:#7d7d7d;stroke-linejoin:round;-inkscape-stroke:none"
         d="m 11.916016,6.1328125 c -0.119886,-5.433e-4 -0.251011,0.023104 -0.371094,0.099609 -0.120083,0.076505 -0.214789,0.2070313 -0.257813,0.3574218 a 0.27252726,0.27252726 0 0 0 -0.002,0.00586 l -1.070312,4.0136719 0.527344,0.140625 1.068359,-4.0097656 0.002,-0.00391 c 0.01052,-0.033668 0.01734,-0.039794 0.02539,-0.044922 0.0087,-0.00556 0.03223,-0.013871 0.07617,-0.013672 0.08788,3.982e-4 0.238258,0.054133 0.310546,0.1035156 L 12.53125,6.3300781 C 12.366738,6.2176954 12.155787,6.133899 11.916016,6.1328125 Z"
         id="path22" /><path
         style="fill:#6b6b6b;stroke-width:0.12999;stroke-linecap:round;stroke-linejoin:round"
         d="m 12.140361,6.7789349 c 0.06413,0.078605 0.139084,0.1394375 0.301539,0.1411685 0.205623,-0.088516 0.290091,-0.2728823 0.26892,-0.5375135 -0.08434,-0.082153 -0.137432,-0.098568 -0.247207,-0.1316705 -0.02293,0.2232532 -0.119099,0.4081872 -0.323252,0.5280155 z"
         id="path21"
         sodipodi:nodetypes="ccccc" /><path
         style="fill:#6b6b6b;stroke-width:0.145;stroke-linejoin:round"
         d="m 10.255916,10.439503 0.574862,0.136707 c 0.0086,0.128676 0.01728,0.05673 -0.04313,0.188625 -0.213561,0.0053 -0.4762,-0.05665 -0.572602,-0.158117 -0.02129,-0.10629 -0.02943,-0.10343 0.04087,-0.167215 z"
         id="path20"
         sodipodi:nodetypes="ccccc" /></g></g><g
     inkscape:groupmode="layer"
     id="layer3"
     inkscape:label="pistol"
     style="display:none"
     sodipodi:insensitive="true"
     transform="translate(-27.080388,-59.15922)"><g
       id="rect1-2-6-3-6-7-8-2-4-0"><path
         style="color:#000000;fill:#ffffff;fill-opacity:0;stroke-linecap:round;stroke-linejoin:round;-inkscape-stroke:none"
         d="M 27.209974,59.288807 H 37.935629 V 70.014462 H 27.209974 Z"
         id="path19" /><path
         style="color:#000000;fill:#000000;stroke-linecap:round;stroke-linejoin:round;-inkscape-stroke:none"
         d="m 27.210937,59.160156 a 0.12959995,0.12959995 0 0 0 -0.130859,0.128906 v 10.72461 a 0.12959995,0.12959995 0 0 0 0.130859,0.130859 h 10.72461 a 0.12959995,0.12959995 0 0 0 0.128906,-0.130859 v -10.72461 a 0.12959995,0.12959995 0 0 0 -0.128906,-0.128906 z m 0.128907,0.257813 H 37.806641 V 69.884766 H 27.339844 Z"
         id="path18" /></g><g
       id="g17-0-3-5-06-1"
       transform="matrix(0.35750306,0.94579079,-0.92009604,0.35742164,37.317665,54.329657)"><g
         id="g16-8-0-7-4-3"><path
           style="color:#000000;fill:#404040;stroke-linejoin:round;-inkscape-stroke:none"
           d="m 12.451172,7.6035156 -0.05078,0.2402344 -0.363282,0.013672 0.0059,0.1464844 0.419922,-0.017578 a 0.07250725,0.07250725 0 0 0 0.06836,-0.058594 l 0.06055,-0.2949219 z"
           id="path17" /></g><rect
         style="fill:#6a3300;stroke-width:0.204747;stroke-linejoin:round"
         id="rect17"
         width="0.51746899"
         height="1.0753255"
         x="12.692005"
         y="4.2797461"
         ry="0.11806334"
         transform="matrix(0.96658012,0.25636474,-0.14489159,0.98944754,0,0)" /><rect
         style="fill:#909090;stroke-width:0.145;stroke-linejoin:round"
         id="rect16"
         width="1.7168922"
         height="0.376816"
         x="11.623376"
         y="7.3263092" /><rect
         style="fill:#303030;stroke-width:0.145;stroke-linejoin:round"
         id="rect15"
         width="0.059829496"
         height="0.13378662"
         x="13.340268"
         y="7.3263092" /><rect
         style="fill:#676767;stroke-width:0.125349;stroke-linejoin:round"
         id="rect14"
         width="0.4603602"
         height="0.188408"
         x="12.132112"
         y="7.3260527" /></g></g><g
     inkscape:label="stickman"
     inkscape:groupmode="layer"
     id="layer1"
     transform="translate(-27.080388,-59.15922)"><g
       id="rect1-4-3"
       style="opacity:0"
       transform="scale(-1,1)"><path
         style="color:#000000;fill:#ffffff;fill-opacity:0;stroke-linecap:round;stroke-linejoin:round;-inkscape-stroke:none"
         d="m -37.935631,59.288807 h 10.725655 v 10.725655 h -10.725655 z"
         id="path14" /><path
         style="color:#000000;fill:#000000;stroke-linecap:round;stroke-linejoin:round;-inkscape-stroke:none"
         d="m -37.935547,59.160156 a 0.12959995,0.12959995 0 0 0 -0.128906,0.128906 v 10.72461 a 0.12959995,0.12959995 0 0 0 0.128906,0.130859 h 10.72461 a 0.12959995,0.12959995 0 0 0 0.130859,-0.130859 v -10.72461 a 0.12959995,0.12959995 0 0 0 -0.130859,-0.128906 z m 0.128906,0.257813 h 10.466797 v 10.466797 h -10.466797 z"
         id="path13" /></g><g
       id="path1-7-9"
       transform="scale(-1,1)"><path
         style="color:#000000;fill:#ffffff;fill-opacity:0;stroke-linecap:round;stroke-linejoin:round;-inkscape-stroke:none"
         d="m -32.476238,64.79937 a 1.5453528,1.5453528 0 0 1 -1.545353,1.545353 1.5453528,1.5453528 0 0 1 -1.545353,-1.545353 1.5453528,1.5453528 0 0 1 1.545353,-1.545353 1.5453528,1.5453528 0 0 1 1.545353,1.545353 z"
         id="path12" /><path
         style="color:#000000;fill:#000000;stroke-linecap:round;stroke-linejoin:round;-inkscape-stroke:none"
         d="m -34.021484,62.960937 c -1.01186,0 -1.837891,0.826031 -1.837891,1.837891 0,1.01186 0.826031,1.839844 1.837891,1.839844 1.01186,0 1.83789,-0.827984 1.83789,-1.839844 0,-1.01186 -0.82603,-1.837891 -1.83789,-1.837891 z m 0,0.585938 c 0.695087,0 1.251953,0.556865 1.251953,1.251953 0,0.695088 -0.556866,1.251953 -1.251953,1.251953 -0.695088,0 -1.251953,-0.556865 -1.251953,-1.251953 0,-0.695088 0.556865,-1.251953 1.251953,-1.251953 z"
         id="path11" /></g><g
       id="path2-6-0"><path
         style="color:#000000;fill:#ffffff;fill-opacity:0;stroke-linecap:round;stroke-linejoin:round;-inkscape-stroke:none"
         d="m 32.804757,65.81589 c -0.882645,0.0927 -0.578852,0.974189 -0.466028,1.728716"
         id="path10" /><path
         style="color:#000000;fill:#000000;stroke-linecap:round;stroke-linejoin:round;-inkscape-stroke:none"
         d="m 32.773437,65.525391 c -0.270382,0.0284 -0.500071,0.128707 -0.65039,0.300781 -0.150319,0.172074 -0.20426,0.386181 -0.216797,0.58789 -0.02507,0.40342 0.08939,0.818106 0.142578,1.173829 a 0.29306901,0.29306901 0 0 0 0.333984,0.246093 0.29306901,0.29306901 0 0 0 0.246094,-0.332031 c -0.05963,-0.398804 -0.154156,-0.80165 -0.138672,-1.050781 0.0077,-0.124566 0.03678,-0.197379 0.07422,-0.240235 0.03744,-0.04286 0.100545,-0.08556 0.271484,-0.103515 a 0.29306901,0.29306901 0 0 0 0.259766,-0.322266 0.29306901,0.29306901 0 0 0 -0.322266,-0.259765 z"
         id="path9" /></g><g
       id="path3-5-8"><path
         style="color:#000000;fill:#ffffff;fill-opacity:0;stroke-linecap:round;stroke-linejoin:round;-inkscape-stroke:none"
         d="m 32.419735,67.534915 c 0.194879,0.715051 1.282473,1.829034 -0.54239,2.113211"
         id="path8" /><path
         style="color:#000000;fill:#000000;stroke-linecap:round;stroke-linejoin:round;-inkscape-stroke:none"
         d="m 32.341797,67.251953 a 0.29306901,0.29306901 0 0 0 -0.205078,0.359375 c 0.06183,0.22686 0.174694,0.43753 0.273437,0.642578 0.09874,0.205048 0.182501,0.403629 0.207031,0.548828 0.02453,0.1452 0.01384,0.20667 -0.06836,0.291016 -0.0822,0.08435 -0.293719,0.199741 -0.716797,0.265625 a 0.29306901,0.29306901 0 0 0 -0.24414,0.333984 0.29306901,0.29306901 0 0 0 0.333984,0.244141 c 0.489353,-0.07621 0.825847,-0.206798 1.046875,-0.433594 0.221028,-0.226796 0.270183,-0.540629 0.226562,-0.798828 C 33.151692,68.446879 33.040463,68.213812 32.9375,68 32.834537,67.786188 32.738736,67.587697 32.703125,67.457031 a 0.29306901,0.29306901 0 0 0 -0.361328,-0.205078 z"
         id="path7" /></g><g
       id="path4-6-8"><path
         style="color:#000000;fill:#ffffff;fill-opacity:0;stroke-linecap:round;stroke-linejoin:round;-inkscape-stroke:none"
         d="m 32.268625,67.470377 c -1.113217,0.05242 -0.781035,1.141697 -1.203403,2.09682"
         id="path6" /><path
         style="color:#000000;fill:#000000;stroke-linecap:round;stroke-linejoin:round;-inkscape-stroke:none"
         d="m 32.253906,67.177734 c -0.326624,0.01538 -0.596539,0.117149 -0.785156,0.294922 -0.188617,0.177774 -0.282243,0.405926 -0.34375,0.63086 -0.123014,0.449868 -0.145101,0.93182 -0.328125,1.345703 a 0.29306901,0.29306901 0 0 0 0.150391,0.386718 0.29306901,0.29306901 0 0 0 0.386718,-0.15039 c 0.239344,-0.54124 0.262631,-1.081079 0.357422,-1.427735 0.0474,-0.173327 0.104297,-0.288318 0.179688,-0.359375 0.07539,-0.07106 0.182125,-0.123935 0.412109,-0.134765 a 0.29306901,0.29306901 0 0 0 0.277344,-0.306641 0.29306901,0.29306901 0 0 0 -0.306641,-0.279297 z"
         id="path5" /></g><g
       id="path5-9-5"><path
         style="color:#000000;fill:#ffffff;fill-opacity:0;stroke-linecap:round;stroke-linejoin:round;-inkscape-stroke:none"
         d="m 32.714505,65.728094 c 0.248482,1.479574 0.401765,1.312431 0.529411,2.078213"
         id="path4" /><path
         style="color:#000000;fill:#000000;stroke-linecap:round;stroke-linejoin:round;-inkscape-stroke:none"
         d="m 32.666016,65.439453 a 0.29306901,0.29306901 0 0 0 -0.240235,0.337891 c 0.12617,0.751271 0.232837,1.105131 0.322266,1.355468 0.08943,0.250338 0.146905,0.361944 0.207031,0.722657 a 0.29306901,0.29306901 0 0 0 0.337891,0.240234 0.29306901,0.29306901 0 0 0 0.240234,-0.337891 c -0.06752,-0.405068 -0.151177,-0.594836 -0.232422,-0.822265 -0.08125,-0.22743 -0.174563,-0.527558 -0.296875,-1.25586 a 0.29306901,0.29306901 0 0 0 -0.33789,-0.240234 z"
         id="path3" /></g><g
       id="path5-5-3-0"><path
         style="color:#000000;fill:#ffffff;fill-opacity:0;stroke-linecap:round;stroke-linejoin:round;-inkscape-stroke:none"
         d="m 32.653336,65.702296 c -0.363826,0.390516 -1.153159,0.2209 -1.614253,1.569782"
         id="path2" /><path
         style="color:#000000;fill:#000000;stroke-linecap:round;stroke-linejoin:round;-inkscape-stroke:none"
         d="m 32.642578,65.410156 a 0.29306901,0.29306901 0 0 0 -0.203125,0.0918 c -0.09543,0.102433 -0.357343,0.17048 -0.705078,0.373047 -0.347735,0.202567 -0.724337,0.576303 -0.972656,1.302734 a 0.29306901,0.29306901 0 0 0 0.18164,0.371094 0.29306901,0.29306901 0 0 0 0.373047,-0.181641 c 0.212775,-0.622449 0.45973,-0.838853 0.712891,-0.986328 0.253161,-0.147474 0.569497,-0.190433 0.83789,-0.478515 a 0.29306901,0.29306901 0 0 0 -0.01367,-0.414063 0.29306901,0.29306901 0 0 0 -0.210938,-0.07813 z"
         id="path1" /></g></g></svg>
