<?xml version="1.0" encoding="UTF-8" standalone="no"?>
<!-- Created with Inkscape (http://www.inkscape.org/) -->

<svg
   width="10.984827mm"
   height="10.984831mm"
   viewBox="0 0 10.984827 10.984831"
   version="1.1"
   id="svg1"
   inkscape:version="1.3 (0e150ed6c4, 2023-07-21)"
   sodipodi:docname="stickman-dead-2.svg"
   xml:space="preserve"
   xmlns:inkscape="http://www.inkscape.org/namespaces/inkscape"
   xmlns:sodipodi="http://sodipodi.sourceforge.net/DTD/sodipodi-0.dtd"
   xmlns="http://www.w3.org/2000/svg"
   xmlns:svg="http://www.w3.org/2000/svg"><sodipodi:namedview
     id="namedview1"
     pagecolor="#505050"
     bordercolor="#ffffff"
     borderopacity="1"
     inkscape:showpageshadow="0"
     inkscape:pageopacity="0"
     inkscape:pagecheckerboard="1"
     inkscape:deskcolor="#505050"
     inkscape:document-units="mm"
     inkscape:zoom="5.6568543"
     inkscape:cx="62.04862"
     inkscape:cy="24.218407"
     inkscape:window-width="1236"
     inkscape:window-height="980"
     inkscape:window-x="20"
     inkscape:window-y="20"
     inkscape:window-maximized="1"
     inkscape:current-layer="layer3" /><defs
     id="defs1" /><g
     inkscape:label="stickman"
     inkscape:groupmode="layer"
     id="layer1"
     transform="translate(-39.216992,-59.100249)"><g
       id="rect1-4-3-8"
       style="opacity:0"
       transform="scale(-1,1)"><path
         style="color:#000000;fill:#ffffff;fill-opacity:0;stroke-linecap:round;stroke-linejoin:round;-inkscape-stroke:none"
         d="m -50.072235,59.229836 h 10.725654 V 69.95549 h -10.725654 z"
         id="path24" /><path
         style="color:#000000;fill:#000000;stroke-linecap:round;stroke-linejoin:round;-inkscape-stroke:none"
         d="m -50.072266,59.099609 a 0.12959995,0.12959995 0 0 0 -0.128906,0.13086 v 10.724609 a 0.12959995,0.12959995 0 0 0 0.128906,0.130859 h 10.726563 a 0.12959995,0.12959995 0 0 0 0.128906,-0.130859 V 59.230469 a 0.12959995,0.12959995 0 0 0 -0.128906,-0.13086 z m 0.128907,0.259766 h 10.466797 v 10.466797 h -10.466797 z"
         id="path23" /></g><g
       id="path1-7-9-5"
       transform="scale(-1,1)"><path
         style="color:#000000;fill:#ffffff;fill-opacity:0;stroke-linecap:round;stroke-linejoin:round;-inkscape-stroke:none"
         d="m -44.727661,67.998161 a 1.5453528,1.5453528 0 0 1 -1.545353,1.545353 1.5453528,1.5453528 0 0 1 -1.545353,-1.545353 1.5453528,1.5453528 0 0 1 1.545353,-1.545353 1.5453528,1.5453528 0 0 1 1.545353,1.545353 z"
         id="path22" /><path
         style="color:#000000;fill:#000000;stroke-linecap:round;stroke-linejoin:round;-inkscape-stroke:none"
         d="m -46.273437,66.160156 c -1.011861,0 -1.837891,0.826031 -1.837891,1.837891 0,1.01186 0.82603,1.837891 1.837891,1.83789 1.01186,0 1.83789,-0.82603 1.83789,-1.83789 0,-1.01186 -0.82603,-1.837891 -1.83789,-1.837891 z m 0,0.585938 c 0.695087,0 1.251953,0.556865 1.251953,1.251953 0,0.695088 -0.556866,1.251953 -1.251953,1.251953 -0.695088,0 -1.251954,-0.556865 -1.251954,-1.251953 0,-0.695088 0.556866,-1.251953 1.251954,-1.251953 z"
         id="path21" /></g><g
       id="path3-5-8-1"><path
         style="color:#000000;fill:#ffffff;fill-opacity:0;stroke-linecap:round;stroke-linejoin:round;-inkscape-stroke:none"
         d="m 44.720911,68.6067 c 0.194879,0.715051 1.117902,0.698279 -0.706961,0.982456"
         id="path20" /><path
         style="color:#000000;fill:#000000;stroke-linecap:round;stroke-linejoin:round;-inkscape-stroke:none"
         d="M 44.644531,68.324219 A 0.29306901,0.29306901 0 0 0 44.4375,68.683594 c 0.0585,0.214652 0.167901,0.362954 0.259766,0.478515 -0.153057,0.03721 -0.348939,0.07761 -0.728516,0.136719 a 0.29306901,0.29306901 0 0 0 -0.244141,0.335938 0.29306901,0.29306901 0 0 0 0.333985,0.24414 c 0.459493,-0.07155 0.747069,-0.122241 0.947265,-0.18164 0.100099,-0.0297 0.180908,-0.05553 0.269532,-0.126954 0.08862,-0.07142 0.161746,-0.254412 0.134765,-0.375 -0.02698,-0.120587 -0.07879,-0.172819 -0.11914,-0.222656 -0.04036,-0.04984 -0.07812,-0.09178 -0.115235,-0.136719 -0.07424,-0.08987 -0.138664,-0.184784 -0.171875,-0.30664 a 0.29306901,0.29306901 0 0 0 -0.359375,-0.205078 z"
         id="path19" /></g><g
       id="path4-6-8-1"><path
         style="color:#000000;fill:#ffffff;fill-opacity:0;stroke-linecap:round;stroke-linejoin:round;-inkscape-stroke:none"
         d="m 44.573766,68.7028 c -1.52017,0.05242 -1.803017,-0.131669 -2.268334,0.824637"
         id="path18" /><path
         style="color:#000000;fill:#000000;stroke-linecap:round;stroke-linejoin:round;-inkscape-stroke:none"
         d="m 44.564453,68.410156 c -0.74765,0.02578 -1.191236,-0.01854 -1.591797,0.08203 -0.20028,0.05029 -0.388167,0.150745 -0.539062,0.304688 -0.150896,0.153943 -0.26952,0.348656 -0.392578,0.601562 a 0.29306901,0.29306901 0 0 0 0.136718,0.392579 0.29306901,0.29306901 0 0 0 0.390625,-0.134766 c 0.1096,-0.225246 0.20269,-0.367079 0.283203,-0.449219 0.08051,-0.08214 0.145056,-0.116702 0.263672,-0.146484 0.237234,-0.05957 0.696232,-0.03781 1.46875,-0.06445 a 0.29306901,0.29306901 0 0 0 0.283203,-0.302735 0.29306901,0.29306901 0 0 0 -0.302734,-0.283203 z"
         id="path17" /></g><g
       id="path5-9-5-5"><path
         style="color:#000000;fill:#ffffff;fill-opacity:0;stroke-linecap:round;stroke-linejoin:round;-inkscape-stroke:none"
         d="m 45.149293,69.079648 c 0.566995,0.96543 1.968597,0.196914 2.870608,0.566264 m -6.284059,0.06861 c 0.777509,-0.236736 2.899306,-0.647094 3.716154,-0.197361"
         id="path16" /><path
         style="color:#000000;fill:#000000;stroke-linecap:round;stroke-linejoin:round;-inkscape-stroke:none"
         d="m 45,68.826172 a 0.29306901,0.29306901 0 0 0 -0.109375,0.367187 c -0.433654,-0.07041 -0.848044,-0.178351 -1.341797,-0.126953 -0.752484,0.07833 -1.483758,0.240926 -1.898437,0.367188 a 0.29306901,0.29306901 0 0 0 -0.195313,0.367187 0.29306901,0.29306901 0 0 0 0.365234,0.19336 c 0.362829,-0.110475 1.08206,-0.270153 1.789063,-0.34375 0.707003,-0.0736 1.419656,-0.03195 1.701172,0.123046 a 0.29306901,0.29306901 0 0 0 0.265625,-0.0078 c 0.018,0.0064 0.02876,0.03152 0.04687,0.03711 0.280602,0.08657 0.569373,0.08944 0.849609,0.07617 0.560472,-0.02653 1.099768,-0.09843 1.435547,0.03906 A 0.29306901,0.29306901 0 0 0 48.291016,69.757812 0.29306901,0.29306901 0 0 0 48.130859,69.375 c -0.566231,-0.231857 -1.177967,-0.106061 -1.685547,-0.08203 -0.253789,0.01201 -0.478584,0.0036 -0.648437,-0.04883 -0.169853,-0.0524 -0.288083,-0.131249 -0.394531,-0.3125 A 0.29306901,0.29306901 0 0 0 45,68.826172 Z"
         id="path15" /></g><g
       id="path5-5-3-0-9"><path
         style="color:#000000;fill:#ffffff;fill-opacity:0;stroke-linecap:round;stroke-linejoin:round;-inkscape-stroke:none"
         d="m 45.042999,69.086256 c -0.363826,0.390516 -1.576215,-0.706923 -2.037309,0.641959"
         id="path14" /><path
         style="color:#000000;fill:#000000;stroke-linecap:round;stroke-linejoin:round;-inkscape-stroke:none"
         d="m 44.101562,68.757812 c -0.231484,-0.03244 -0.50405,-0.03819 -0.765625,0.09375 -0.261574,0.131938 -0.475499,0.395325 -0.607421,0.78125 a 0.29306901,0.29306901 0 0 0 0.18164,0.373047 0.29306901,0.29306901 0 0 0 0.373047,-0.183593 c 0.09862,-0.288516 0.209606,-0.393396 0.316406,-0.447266 0.1068,-0.05387 0.245195,-0.0616 0.419922,-0.03711 0.174727,0.02449 0.368555,0.08174 0.570313,0.113281 0.100879,0.01577 0.206553,0.02657 0.322265,0.0098 0.115713,-0.0168 0.249223,-0.07222 0.345703,-0.175781 a 0.29306901,0.29306901 0 0 0 -0.01563,-0.414062 0.29306901,0.29306901 0 0 0 -0.414062,0.01563 c 0.0055,-0.0059 0.02203,-0.0091 0,-0.0059 -0.02203,0.0032 -0.07533,0.0033 -0.146484,-0.0078 -0.142301,-0.02224 -0.348594,-0.08279 -0.580079,-0.115235 z"
         id="path13" /></g></g></svg>
