<?xml version="1.0" encoding="UTF-8" standalone="no"?>
<!-- Created with Inkscape (http://www.inkscape.org/) -->

<svg
   width="10.984827mm"
   height="10.984831mm"
   viewBox="0 0 10.984827 10.984831"
   version="1.1"
   id="svg1"
   inkscape:version="1.3 (0e150ed6c4, 2023-07-21)"
   sodipodi:docname="stickman-damage-high-1.svg"
   xml:space="preserve"
   xmlns:inkscape="http://www.inkscape.org/namespaces/inkscape"
   xmlns:sodipodi="http://sodipodi.sourceforge.net/DTD/sodipodi-0.dtd"
   xmlns="http://www.w3.org/2000/svg"
   xmlns:svg="http://www.w3.org/2000/svg"><sodipodi:namedview
     id="namedview1"
     pagecolor="#d5d5d5"
     bordercolor="#ffffff"
     borderopacity="1"
     inkscape:showpageshadow="0"
     inkscape:pageopacity="0"
     inkscape:pagecheckerboard="1"
     inkscape:deskcolor="#505050"
     inkscape:document-units="mm"
     inkscape:zoom="11.313709"
     inkscape:cx="28.902988"
     inkscape:cy="77.958519"
     inkscape:window-width="1236"
     inkscape:window-height="980"
     inkscape:window-x="20"
     inkscape:window-y="20"
     inkscape:window-maximized="1"
     inkscape:current-layer="layer5" /><defs
     id="defs1" /><g
     inkscape:groupmode="layer"
     id="layer2"
     inkscape:label="pipe"
     style="display:none"
     transform="translate(-26.917523,-38.058795)"><g
       id="rect1-2-6-3-1-5-91-8-4"><path
         style="color:#000000;fill:#ffffff;fill-opacity:0;stroke-linecap:round;stroke-linejoin:round;-inkscape-stroke:none"
         d="M 27.04711,38.188385 H 37.772764 V 48.91404 H 27.04711 Z"
         id="path24" /><path
         style="color:#000000;fill:#000000;stroke-linecap:round;stroke-linejoin:round;-inkscape-stroke:none"
         d="M 27.046875,38.058594 A 0.12959995,0.12959995 0 0 0 26.917969,38.1875 v 10.726562 a 0.12959995,0.12959995 0 0 0 0.128906,0.128907 h 10.726562 a 0.12959995,0.12959995 0 0 0 0.128907,-0.128907 V 38.1875 a 0.12959995,0.12959995 0 0 0 -0.128907,-0.128906 z m 0.128906,0.259765 H 37.642578 V 48.785156 H 27.175781 Z"
         id="path23" /></g><g
       id="g13-6-0-0-2"
       transform="rotate(106.30662,9.0276677,35.89849)"><path
         style="color:#000000;fill:#7d7d7d;stroke-linejoin:round;-inkscape-stroke:none"
         d="m 11.916016,6.1328125 c -0.119886,-5.433e-4 -0.251011,0.023104 -0.371094,0.099609 -0.120083,0.076505 -0.214789,0.2070313 -0.257813,0.3574218 a 0.27252726,0.27252726 0 0 0 -0.002,0.00586 l -1.070312,4.0136719 0.527344,0.140625 1.068359,-4.0097656 0.002,-0.00391 c 0.01052,-0.033668 0.01734,-0.039794 0.02539,-0.044922 0.0087,-0.00556 0.03223,-0.013871 0.07617,-0.013672 0.08788,3.982e-4 0.238258,0.054133 0.310546,0.1035156 L 12.53125,6.3300781 C 12.366738,6.2176954 12.155787,6.133899 11.916016,6.1328125 Z"
         id="path22" /><path
         style="fill:#6b6b6b;stroke-width:0.12999;stroke-linecap:round;stroke-linejoin:round"
         d="m 12.140361,6.7789349 c 0.06413,0.078605 0.139084,0.1394375 0.301539,0.1411685 0.205623,-0.088516 0.290091,-0.2728823 0.26892,-0.5375135 -0.08434,-0.082153 -0.137432,-0.098568 -0.247207,-0.1316705 -0.02293,0.2232532 -0.119099,0.4081872 -0.323252,0.5280155 z"
         id="path21"
         sodipodi:nodetypes="ccccc" /><path
         style="fill:#6b6b6b;stroke-width:0.145;stroke-linejoin:round"
         d="m 10.255916,10.439503 0.574862,0.136707 c 0.0086,0.128676 0.01728,0.05673 -0.04313,0.188625 -0.213561,0.0053 -0.4762,-0.05665 -0.572602,-0.158117 -0.02129,-0.10629 -0.02943,-0.10343 0.04087,-0.167215 z"
         id="path20"
         sodipodi:nodetypes="ccccc" /></g></g><g
     inkscape:groupmode="layer"
     id="layer3"
     inkscape:label="pistol"
     style="display:none"
     sodipodi:insensitive="true"
     transform="translate(-26.917523,-38.058795)"><g
       id="rect1-2-6-3-6-7-8-2-4"><path
         style="color:#000000;fill:#ffffff;fill-opacity:0;stroke-linecap:round;stroke-linejoin:round;-inkscape-stroke:none"
         d="M 27.04711,38.188385 H 37.772764 V 48.91404 H 27.04711 Z"
         id="path19" /><path
         style="color:#000000;fill:#000000;stroke-linecap:round;stroke-linejoin:round;-inkscape-stroke:none"
         d="M 27.046875,38.058594 A 0.12959995,0.12959995 0 0 0 26.917969,38.1875 v 10.726562 a 0.12959995,0.12959995 0 0 0 0.128906,0.128907 h 10.726562 a 0.12959995,0.12959995 0 0 0 0.128907,-0.128907 V 38.1875 a 0.12959995,0.12959995 0 0 0 -0.128907,-0.128906 z m 0.128906,0.259765 H 37.642578 V 48.785156 H 27.175781 Z"
         id="path18" /></g><g
       id="g17-0-3-5-06"
       transform="matrix(0.79625993,0.62313625,-0.60121121,0.78286144,29.01583,31.125769)"><g
         id="g16-8-0-7-4"><path
           style="color:#000000;fill:#404040;stroke-linejoin:round;-inkscape-stroke:none"
           d="m 12.451172,7.6035156 -0.05078,0.2402344 -0.363282,0.013672 0.0059,0.1464844 0.419922,-0.017578 a 0.07250725,0.07250725 0 0 0 0.06836,-0.058594 l 0.06055,-0.2949219 z"
           id="path17" /></g><rect
         style="fill:#6a3300;stroke-width:0.204747;stroke-linejoin:round"
         id="rect17"
         width="0.51746899"
         height="1.0753255"
         x="12.692005"
         y="4.2797461"
         ry="0.11806334"
         transform="matrix(0.96658012,0.25636474,-0.14489159,0.98944754,0,0)" /><rect
         style="fill:#909090;stroke-width:0.145;stroke-linejoin:round"
         id="rect16"
         width="1.7168922"
         height="0.376816"
         x="11.623376"
         y="7.3263092" /><rect
         style="fill:#303030;stroke-width:0.145;stroke-linejoin:round"
         id="rect15"
         width="0.059829496"
         height="0.13378662"
         x="13.340268"
         y="7.3263092" /><rect
         style="fill:#676767;stroke-width:0.125349;stroke-linejoin:round"
         id="rect14"
         width="0.4603602"
         height="0.188408"
         x="12.132112"
         y="7.3260527" /></g></g><g
     inkscape:label="stickman"
     inkscape:groupmode="layer"
     id="layer1"
     transform="translate(-26.917523,-38.058795)"><g
       id="rect1-4-61-3"
       style="opacity:0"><path
         style="color:#000000;fill:#ffffff;fill-opacity:0;stroke-linecap:round;stroke-linejoin:round;-inkscape-stroke:none"
         d="M 27.04711,38.188385 H 37.772764 V 48.91404 H 27.04711 Z"
         id="path14" /><path
         style="color:#000000;fill:#000000;stroke-linecap:round;stroke-linejoin:round;-inkscape-stroke:none"
         d="M 27.046875,38.058594 A 0.12959995,0.12959995 0 0 0 26.917969,38.1875 v 10.726562 a 0.12959995,0.12959995 0 0 0 0.128906,0.128907 h 10.726562 a 0.12959995,0.12959995 0 0 0 0.128907,-0.128907 V 38.1875 a 0.12959995,0.12959995 0 0 0 -0.128907,-0.128906 z m 0.128906,0.259765 H 37.642578 V 48.785156 H 27.175781 Z"
         id="path13" /></g><g
       id="path1-7-0-6"
       transform="rotate(12.038386)"><path
         style="color:#000000;fill:#ffffff;fill-opacity:0;stroke-linecap:round;stroke-linejoin:round;-inkscape-stroke:none"
         d="m 40.45433,33.270901 a 1.5453528,1.5453528 0 0 1 -1.545352,1.545353 1.5453528,1.5453528 0 0 1 -1.545353,-1.545353 1.5453528,1.5453528 0 0 1 1.545353,-1.545353 1.5453528,1.5453528 0 0 1 1.545352,1.545353 z"
         id="path12" /><path
         style="color:#000000;fill:#000000;stroke-linecap:round;stroke-linejoin:round;-inkscape-stroke:none"
         d="m 38.908203,31.431641 c -1.01186,0 -1.837891,0.827983 -1.837891,1.839843 0,1.01186 0.826031,1.837891 1.837891,1.837891 1.01186,0 1.839844,-0.826031 1.839844,-1.837891 0,-1.01186 -0.827984,-1.839843 -1.839844,-1.839843 z m 0,0.58789 c 0.695088,0 1.253906,0.556866 1.253906,1.251953 0,0.695088 -0.558818,1.251953 -1.253906,1.251953 -0.695088,0 -1.251953,-0.556865 -1.251953,-1.251953 0,-0.695087 0.556865,-1.251953 1.251953,-1.251953 z"
         id="path11" /></g><g
       id="path2-6-6-5"><path
         style="color:#000000;fill:#ffffff;fill-opacity:0;stroke-linecap:round;stroke-linejoin:round;-inkscape-stroke:none"
         d="m 31.62801,42.300406 c 0.582041,1.573277 0.545558,2.456471 0.585711,3.485266"
         id="path10" /><path
         style="color:#000000;fill:#000000;stroke-linecap:round;stroke-linejoin:round;-inkscape-stroke:none"
         d="m 31.525391,42.025391 a 0.29306901,0.29306901 0 0 0 -0.171875,0.376953 c 0.568273,1.536063 0.525728,2.352293 0.566406,3.394531 a 0.29306901,0.29306901 0 0 0 0.304687,0.28125 0.29306901,0.29306901 0 0 0 0.28125,-0.304688 c -0.03963,-1.015349 -0.0077,-1.963731 -0.603515,-3.574218 a 0.29306901,0.29306901 0 0 0 -0.376953,-0.173828 z"
         id="path9" /></g><g
       id="path3-5-1-6"><path
         style="color:#000000;fill:#ffffff;fill-opacity:0;stroke-linecap:round;stroke-linejoin:round;-inkscape-stroke:none"
         d="m 32.160459,45.639312 c -0.01448,0.979608 0.15274,1.954266 -0.238858,2.910695"
         id="path8" /><path
         style="color:#000000;fill:#000000;stroke-linecap:round;stroke-linejoin:round;-inkscape-stroke:none"
         d="m 32.164062,45.345703 a 0.29306901,0.29306901 0 0 0 -0.296875,0.289063 c -0.01502,1.01582 0.137262,1.939943 -0.216796,2.804687 a 0.29306901,0.29306901 0 0 0 0.160156,0.380859 0.29306901,0.29306901 0 0 0 0.382812,-0.160156 c 0.429137,-1.048112 0.245821,-2.072231 0.259766,-3.015625 a 0.29306901,0.29306901 0 0 0 -0.289063,-0.298828 z"
         id="path7" /></g><g
       id="path4-6-5-3"><path
         style="color:#000000;fill:#ffffff;fill-opacity:0;stroke-linecap:round;stroke-linejoin:round;-inkscape-stroke:none"
         d="m 32.189884,45.554549 c 0.647526,0.971307 1.367127,1.745135 1.729576,2.659269"
         id="path6" /><path
         style="color:#000000;fill:#000000;stroke-linecap:round;stroke-linejoin:round;-inkscape-stroke:none"
         d="m 32.248047,45.267578 a 0.29306901,0.29306901 0 0 0 -0.220703,0.04297 0.29306901,0.29306901 0 0 0 -0.08203,0.40625 c 0.663263,0.994912 1.366824,1.762207 1.701172,2.605469 a 0.29306901,0.29306901 0 0 0 0.38086,0.164062 0.29306901,0.29306901 0 0 0 0.164062,-0.380859 c -0.390549,-0.985005 -1.126024,-1.765191 -1.757812,-2.712891 a 0.29306901,0.29306901 0 0 0 -0.185547,-0.125 z"
         id="path5" /></g><g
       id="path5-9-9-94"><path
         style="color:#000000;fill:#ffffff;fill-opacity:0;stroke-linecap:round;stroke-linejoin:round;-inkscape-stroke:none"
         d="m 31.707255,42.61949 c -0.34199,1.131629 0.200946,2.318641 0.906645,3.086222"
         id="path4" /><path
         style="color:#000000;fill:#000000;stroke-linecap:round;stroke-linejoin:round;-inkscape-stroke:none"
         d="m 31.792969,42.339844 a 0.29306901,0.29306901 0 0 0 -0.367188,0.195312 c -0.383255,1.268176 0.215761,2.545874 0.972656,3.369141 a 0.29306901,0.29306901 0 0 0 0.414063,0.01758 0.29306901,0.29306901 0 0 0 0.01758,-0.414063 c -0.654501,-0.711893 -1.14252,-1.807654 -0.841797,-2.802734 a 0.29306901,0.29306901 0 0 0 -0.195312,-0.365234 z"
         id="path3" /></g><g
       id="path5-5-3-49-8"><path
         style="color:#000000;fill:#ffffff;fill-opacity:0;stroke-linecap:round;stroke-linejoin:round;-inkscape-stroke:none"
         d="m 31.75087,42.542535 c 0.240714,0.433035 0.8165,1.232915 1.933136,2.355396"
         id="path2" /><path
         style="color:#000000;fill:#000000;stroke-linecap:round;stroke-linejoin:round;-inkscape-stroke:none"
         d="m 31.609375,42.287109 a 0.29306901,0.29306901 0 0 0 -0.115234,0.398438 c 0.262677,0.472546 0.852217,1.283801 1.982421,2.419922 a 0.29306901,0.29306901 0 0 0 0.414063,0 0.29306901,0.29306901 0 0 0 0.002,-0.414063 c -1.103065,-1.108839 -1.666015,-1.897492 -1.884766,-2.291015 a 0.29306901,0.29306901 0 0 0 -0.398437,-0.113282 z"
         id="path1" /></g></g></svg>
