<?xml version="1.0" encoding="UTF-8" standalone="no"?>
<!-- Created with Inkscape (http://www.inkscape.org/) -->

<svg
   width="10.984831mm"
   height="10.984828mm"
   viewBox="0 0 10.984831 10.984828"
   version="1.1"
   id="svg1"
   inkscape:version="1.3 (0e150ed6c4, 2023-07-21)"
   sodipodi:docname="stickman-run-3.svg"
   xml:space="preserve"
   xmlns:inkscape="http://www.inkscape.org/namespaces/inkscape"
   xmlns:sodipodi="http://sodipodi.sourceforge.net/DTD/sodipodi-0.dtd"
   xmlns="http://www.w3.org/2000/svg"
   xmlns:svg="http://www.w3.org/2000/svg"><sodipodi:namedview
     id="namedview1"
     pagecolor="#d5d5d5"
     bordercolor="#ffffff"
     borderopacity="1"
     inkscape:showpageshadow="0"
     inkscape:pageopacity="0"
     inkscape:pagecheckerboard="1"
     inkscape:deskcolor="#505050"
     inkscape:document-units="mm"
     inkscape:zoom="1"
     inkscape:cx="232.49999"
     inkscape:cy="117.99999"
     inkscape:window-width="1236"
     inkscape:window-height="980"
     inkscape:window-x="20"
     inkscape:window-y="20"
     inkscape:window-maximized="1"
     inkscape:current-layer="layer3" /><defs
     id="defs1" /><g
     inkscape:groupmode="layer"
     id="layer2"
     inkscape:label="pipe"
     style="display:none"
     sodipodi:insensitive="true"
     transform="translate(-50.448835,-14.505988)"><g
       id="g13-6-9-2-3"
       transform="rotate(42.539064,18.115575,72.713896)"><path
         style="color:#000000;fill:#7d7d7d;stroke-linejoin:round;-inkscape-stroke:none"
         d="m 11.916016,6.1328125 c -0.119886,-5.433e-4 -0.251011,0.023104 -0.371094,0.099609 -0.120083,0.076505 -0.214789,0.2070313 -0.257813,0.3574218 a 0.27252726,0.27252726 0 0 0 -0.002,0.00586 l -1.070312,4.0136719 0.527344,0.140625 1.068359,-4.0097656 0.002,-0.00391 c 0.01052,-0.033668 0.01734,-0.039794 0.02539,-0.044922 0.0087,-0.00556 0.03223,-0.013871 0.07617,-0.013672 0.08788,3.982e-4 0.238258,0.054133 0.310546,0.1035156 L 12.53125,6.3300781 C 12.366738,6.2176954 12.155787,6.133899 11.916016,6.1328125 Z"
         id="path11-9-6-1-5" /><path
         style="fill:#6b6b6b;stroke-width:0.12999;stroke-linecap:round;stroke-linejoin:round"
         d="m 12.140361,6.7789349 c 0.06413,0.078605 0.139084,0.1394375 0.301539,0.1411685 0.205623,-0.088516 0.290091,-0.2728823 0.26892,-0.5375135 -0.08434,-0.082153 -0.137432,-0.098568 -0.247207,-0.1316705 -0.02293,0.2232532 -0.119099,0.4081872 -0.323252,0.5280155 z"
         id="path12-8-0-5-6"
         sodipodi:nodetypes="ccccc" /><path
         style="fill:#6b6b6b;stroke-width:0.145;stroke-linejoin:round"
         d="m 10.255916,10.439503 0.574862,0.136707 c 0.0086,0.128676 0.01728,0.05673 -0.04313,0.188625 -0.213561,0.0053 -0.4762,-0.05665 -0.572602,-0.158117 -0.02129,-0.10629 -0.02943,-0.10343 0.04087,-0.167215 z"
         id="path13-7-2-9-2"
         sodipodi:nodetypes="ccccc" /></g><g
       id="rect1-2-9"><path
         style="color:#000000;fill:#ffffff;fill-opacity:0;stroke-linecap:round;stroke-linejoin:round;-inkscape-stroke:none"
         d="M 50.578419,14.635575 H 61.304073 V 25.36123 H 50.578419 Z"
         id="path1" /><path
         style="color:#000000;fill:#000000;stroke-linecap:round;stroke-linejoin:round;-inkscape-stroke:none"
         d="m 50.578125,14.505859 a 0.12959995,0.12959995 0 0 0 -0.128906,0.128907 v 10.726562 a 0.12959995,0.12959995 0 0 0 0.128906,0.128906 h 10.726562 a 0.12959995,0.12959995 0 0 0 0.128907,-0.128906 V 14.634766 a 0.12959995,0.12959995 0 0 0 -0.128907,-0.128907 z m 0.128906,0.259766 H 61.173828 V 25.232422 H 50.707031 Z"
         id="path2" /></g></g><g
     inkscape:groupmode="layer"
     id="layer3"
     inkscape:label="pistol"
     style="display:none"
     sodipodi:insensitive="true"
     transform="translate(-50.448835,-14.505988)"><g
       id="rect1-2-6-3-6-7-8-2-7-4-0-0"><path
         style="color:#000000;fill:#ffffff;fill-opacity:0;stroke-linecap:round;stroke-linejoin:round;-inkscape-stroke:none"
         d="M 50.578419,14.635574 H 61.304073 V 25.361229 H 50.578419 Z"
         id="path3" /><path
         style="color:#000000;fill:#000000;stroke-linecap:round;stroke-linejoin:round;-inkscape-stroke:none"
         d="m 50.578125,14.505859 a 0.12959995,0.12959995 0 0 0 -0.128906,0.128907 v 10.726562 a 0.12959995,0.12959995 0 0 0 0.128906,0.128906 h 10.726562 a 0.12959995,0.12959995 0 0 0 0.128907,-0.128906 V 14.634766 a 0.12959995,0.12959995 0 0 0 -0.128907,-0.128907 z m 0.128906,0.259766 H 61.173828 V 25.232422 H 50.707031 Z"
         id="path4" /></g><g
       id="g17-0-3-5-0-9-7-3"
       transform="matrix(0.71921952,0.7106701,-0.6873482,0.70843447,52.470944,7.0351486)"><g
         id="g16-8-0-7-8-0-3-3"><path
           style="color:#000000;fill:#404040;stroke-linejoin:round;-inkscape-stroke:none"
           d="m 12.451172,7.6035156 -0.05078,0.2402344 -0.363282,0.013672 0.0059,0.1464844 0.419922,-0.017578 a 0.07250725,0.07250725 0 0 0 0.06836,-0.058594 l 0.06055,-0.2949219 z"
           id="path16-6-1-4-1-2-1-3" /></g><rect
         style="fill:#6a3300;stroke-width:0.204747;stroke-linejoin:round"
         id="rect16-2-7-9-9-0-1-7"
         width="0.51746899"
         height="1.0753255"
         x="12.692005"
         y="4.2797461"
         ry="0.11806334"
         transform="matrix(0.96658012,0.25636474,-0.14489159,0.98944754,0,0)" /><rect
         style="fill:#909090;stroke-width:0.145;stroke-linejoin:round"
         id="rect13-4-8-9-9-1-9-3"
         width="1.7168922"
         height="0.376816"
         x="11.623376"
         y="7.3263092" /><rect
         style="fill:#303030;stroke-width:0.145;stroke-linejoin:round"
         id="rect14-7-9-4-7-9-0-2"
         width="0.059829496"
         height="0.13378662"
         x="13.340268"
         y="7.3263092" /><rect
         style="fill:#676767;stroke-width:0.125349;stroke-linejoin:round"
         id="rect15-9-1-5-8-6-5-6"
         width="0.4603602"
         height="0.188408"
         x="12.132112"
         y="7.3260527" /></g></g><g
     inkscape:label="stickman"
     inkscape:groupmode="layer"
     id="layer1"
     transform="translate(-50.448835,-14.505988)"><g
       id="rect1-2-6-3-1-5-9-3-5"
       style="opacity:0"><path
         style="color:#000000;fill:#ffffff;fill-opacity:0;stroke-linecap:round;stroke-linejoin:round;-inkscape-stroke:none"
         d="M 50.578423,14.635574 H 61.304077 V 25.361229 H 50.578423 Z"
         id="path5" /><path
         style="color:#000000;fill:#000000;stroke-linecap:round;stroke-linejoin:round;-inkscape-stroke:none"
         d="m 50.578125,14.505859 a 0.12959995,0.12959995 0 0 0 -0.128906,0.128907 v 10.726562 a 0.12959995,0.12959995 0 0 0 0.128906,0.128906 h 10.726562 a 0.12959995,0.12959995 0 0 0 0.128907,-0.128906 V 14.634766 a 0.12959995,0.12959995 0 0 0 -0.128907,-0.128907 z m 0.130859,0.259766 H 61.173828 V 25.232422 H 50.708984 Z"
         id="path6" /></g><g
       id="path1-9-1"><path
         style="color:#000000;fill:#ffffff;fill-opacity:0;stroke-linecap:round;stroke-linejoin:round;-inkscape-stroke:none"
         d="m 58.472053,17.052015 a 1.5453528,1.5453528 0 0 1 -1.545352,1.545353 1.5453528,1.5453528 0 0 1 -1.545353,-1.545353 1.5453528,1.5453528 0 0 1 1.545353,-1.545353 1.5453528,1.5453528 0 0 1 1.545352,1.545353 z"
         id="path7" /><path
         style="color:#000000;fill:#000000;stroke-linecap:round;stroke-linejoin:round;-inkscape-stroke:none"
         d="m 56.925781,15.212891 c -1.01186,0 -1.83789,0.827983 -1.83789,1.839843 0,1.01186 0.82603,1.837891 1.83789,1.837891 1.01186,0 1.839844,-0.826031 1.839844,-1.837891 0,-1.01186 -0.827984,-1.839843 -1.839844,-1.839843 z m 0,0.585937 c 0.695088,0 1.253906,0.558819 1.253906,1.253906 0,0.695088 -0.558818,1.251953 -1.253906,1.251953 -0.695088,0 -1.251953,-0.556865 -1.251953,-1.251953 0,-0.695087 0.556865,-1.253906 1.251953,-1.253906 z"
         id="path8" /></g><g
       id="path2-1-2"><path
         style="color:#000000;fill:#ffffff;fill-opacity:0;stroke-linecap:round;stroke-linejoin:round;-inkscape-stroke:none"
         d="m 56.362236,18.580557 c -0.287423,1.229818 -1.182472,2.867175 -0.716858,3.652301"
         id="path9" /><path
         style="color:#000000;fill:#000000;stroke-linecap:round;stroke-linejoin:round;-inkscape-stroke:none"
         d="m 56.429687,18.294922 a 0.29306901,0.29306901 0 0 0 -0.353515,0.21875 c -0.134929,0.577328 -0.427194,1.293438 -0.634766,1.974609 -0.207572,0.681171 -0.369255,1.354223 -0.04883,1.894531 a 0.29306901,0.29306901 0 0 0 0.402344,0.101563 0.29306901,0.29306901 0 0 0 0.101562,-0.400391 c -0.145186,-0.244816 -0.08994,-0.784539 0.105469,-1.425781 0.195405,-0.641242 0.49399,-1.35923 0.646484,-2.011719 a 0.29306901,0.29306901 0 0 0 -0.21875,-0.351562 z"
         id="path10" /></g><g
       id="path3-2-7"><path
         style="color:#000000;fill:#ffffff;fill-opacity:0;stroke-linecap:round;stroke-linejoin:round;-inkscape-stroke:none"
         d="m 55.55832,22.027208 c -0.174407,1.817513 0.06302,1.809379 -1.617368,1.717211"
         id="path11" /><path
         style="color:#000000;fill:#000000;stroke-linecap:round;stroke-linejoin:round;-inkscape-stroke:none"
         d="M 55.585937,21.736328 A 0.29306901,0.29306901 0 0 0 55.265625,22 c -0.0442,0.460651 -0.06111,0.805052 -0.08789,1.042969 -0.02678,0.237917 -0.0718,0.350237 -0.0918,0.375 -0.01999,0.02476 -0.04586,0.04818 -0.228515,0.06055 -0.182652,0.01237 -0.479682,-0.0043 -0.900391,-0.02734 a 0.29306901,0.29306901 0 0 0 -0.308594,0.277344 0.29306901,0.29306901 0 0 0 0.277344,0.308593 c 0.419485,0.02301 0.721767,0.04238 0.972656,0.02539 0.25089,-0.01698 0.492033,-0.08847 0.644532,-0.277344 0.152498,-0.188871 0.186532,-0.408882 0.216797,-0.677734 0.03026,-0.268853 0.04684,-0.60463 0.08984,-1.052735 a 0.29306901,0.29306901 0 0 0 -0.263672,-0.318359 z"
         id="path12" /></g><g
       id="path4-7-0"><path
         style="color:#000000;fill:#ffffff;fill-opacity:0;stroke-linecap:round;stroke-linejoin:round;-inkscape-stroke:none"
         d="m 55.645378,22.232858 c 0.480584,0.878426 0.678353,1.314419 0.379534,2.752393"
         id="path13" /><path
         style="color:#000000;fill:#000000;stroke-linecap:round;stroke-linejoin:round;-inkscape-stroke:none"
         d="m 55.728516,21.951172 a 0.29306901,0.29306901 0 0 0 -0.22461,0.02539 0.29306901,0.29306901 0 0 0 -0.115234,0.396485 c 0.477234,0.872304 0.640786,1.151535 0.349609,2.552734 a 0.29306901,0.29306901 0 0 0 0.226563,0.345703 0.29306901,0.29306901 0 0 0 0.347656,-0.226562 c 0.30646,-1.474746 0.07378,-2.068579 -0.410156,-2.953125 a 0.29306901,0.29306901 0 0 0 -0.173828,-0.140625 z"
         id="path14" /></g><g
       id="path5-0-9"><path
         style="color:#000000;fill:#ffffff;fill-opacity:0;stroke-linecap:round;stroke-linejoin:round;-inkscape-stroke:none"
         d="m 56.249249,18.925596 c -1.644735,1.079968 -1.396037,1.05778 -0.725923,2.546505"
         id="path15" /><path
         style="color:#000000;fill:#000000;stroke-linecap:round;stroke-linejoin:round;-inkscape-stroke:none"
         d="m 56.087891,18.679687 c -0.413631,0.271599 -0.712738,0.47641 -0.933594,0.669922 -0.220857,0.193512 -0.377399,0.395032 -0.423828,0.640625 -0.04643,0.245594 0.0215,0.4757 0.121093,0.71875 0.0996,0.24305 0.239666,0.517068 0.404297,0.882813 a 0.29306901,0.29306901 0 0 0 0.388672,0.148437 0.29306901,0.29306901 0 0 0 0.146485,-0.388672 c -0.170426,-0.378616 -0.31238,-0.659992 -0.396485,-0.865234 -0.0841,-0.205242 -0.101114,-0.316773 -0.08789,-0.386719 0.01322,-0.06995 0.06022,-0.156002 0.234375,-0.308593 0.174153,-0.152591 0.460405,-0.35271 0.86914,-0.621094 a 0.29306901,0.29306901 0 0 0 0.08398,-0.404297 0.29306901,0.29306901 0 0 0 -0.40625,-0.08594 z"
         id="path16" /></g><g
       id="path5-5-9-3"><path
         style="color:#000000;fill:#ffffff;fill-opacity:0;stroke-linecap:round;stroke-linejoin:round;-inkscape-stroke:none"
         d="m 56.249249,18.925596 c 0.232387,1.165016 -0.862703,1.655553 0.9759,2.434677"
         id="path17" /><path
         style="color:#000000;fill:#000000;stroke-linecap:round;stroke-linejoin:round;-inkscape-stroke:none"
         d="m 56.191406,18.638672 a 0.29306901,0.29306901 0 0 0 -0.230469,0.34375 c 0.09737,0.488163 -0.09992,0.82135 -0.11914,1.292969 -0.0096,0.235809 0.06491,0.513272 0.271484,0.738281 0.206575,0.225009 0.518602,0.414018 0.998047,0.617187 a 0.29306901,0.29306901 0 0 0 0.382813,-0.15625 0.29306901,0.29306901 0 0 0 -0.154297,-0.384765 c -0.439855,-0.186393 -0.682457,-0.350155 -0.794922,-0.472657 -0.112465,-0.122501 -0.122478,-0.188517 -0.117188,-0.318359 0.01058,-0.259684 0.244388,-0.752835 0.109375,-1.429687 a 0.29306901,0.29306901 0 0 0 -0.345703,-0.230469 z"
         id="path18" /></g></g></svg>
