<?xml version="1.0" encoding="UTF-8" standalone="no"?>
<!-- Created with Inkscape (http://www.inkscape.org/) -->

<svg
   width="10.984831mm"
   height="10.984828mm"
   viewBox="0 0 10.984831 10.984828"
   version="1.1"
   id="svg1"
   inkscape:version="1.3 (0e150ed6c4, 2023-07-21)"
   sodipodi:docname="stickman-run-1.svg"
   xml:space="preserve"
   xmlns:inkscape="http://www.inkscape.org/namespaces/inkscape"
   xmlns:sodipodi="http://sodipodi.sourceforge.net/DTD/sodipodi-0.dtd"
   xmlns="http://www.w3.org/2000/svg"
   xmlns:svg="http://www.w3.org/2000/svg"><sodipodi:namedview
     id="namedview1"
     pagecolor="#d5d5d5"
     bordercolor="#ffffff"
     borderopacity="1"
     inkscape:showpageshadow="0"
     inkscape:pageopacity="0"
     inkscape:pagecheckerboard="1"
     inkscape:deskcolor="#505050"
     inkscape:document-units="mm"
     inkscape:zoom="1"
     inkscape:cx="232.49999"
     inkscape:cy="117.99999"
     inkscape:window-width="1236"
     inkscape:window-height="980"
     inkscape:window-x="20"
     inkscape:window-y="20"
     inkscape:window-maximized="1"
     inkscape:current-layer="layer3" /><defs
     id="defs1" /><g
     inkscape:groupmode="layer"
     id="layer2"
     inkscape:label="pipe"
     style="display:none"
     sodipodi:insensitive="true"
     transform="translate(-26.629693,-14.061414)"><g
       id="rect1-2-6-3-1-5-9-3"><path
         style="color:#000000;fill:#ffffff;fill-opacity:0;stroke-linecap:round;stroke-linejoin:round;-inkscape-stroke:none"
         d="M 26.759281,14.191002 H 37.484936 V 24.916656 H 26.759281 Z"
         id="path1" /><path
         style="color:#000000;fill:#000000;stroke-linecap:round;stroke-linejoin:round;-inkscape-stroke:none"
         d="m 26.759766,14.060547 a 0.12959995,0.12959995 0 0 0 -0.13086,0.130859 v 10.72461 a 0.12959995,0.12959995 0 0 0 0.13086,0.130859 h 10.724609 a 0.12959995,0.12959995 0 0 0 0.130859,-0.130859 v -10.72461 a 0.12959995,0.12959995 0 0 0 -0.130859,-0.130859 z m 0.128906,0.259766 H 37.355469 V 24.787109 H 26.888672 Z"
         id="path2" /></g><g
       id="g13-6-9-2"
       transform="rotate(89.567999,14.907197,24.743338)"><path
         style="color:#000000;fill:#7d7d7d;stroke-linejoin:round;-inkscape-stroke:none"
         d="m 11.916016,6.1328125 c -0.119886,-5.433e-4 -0.251011,0.023104 -0.371094,0.099609 -0.120083,0.076505 -0.214789,0.2070313 -0.257813,0.3574218 a 0.27252726,0.27252726 0 0 0 -0.002,0.00586 l -1.070312,4.0136719 0.527344,0.140625 1.068359,-4.0097656 0.002,-0.00391 c 0.01052,-0.033668 0.01734,-0.039794 0.02539,-0.044922 0.0087,-0.00556 0.03223,-0.013871 0.07617,-0.013672 0.08788,3.982e-4 0.238258,0.054133 0.310546,0.1035156 L 12.53125,6.3300781 C 12.366738,6.2176954 12.155787,6.133899 11.916016,6.1328125 Z"
         id="path11-9-6-1" /><path
         style="fill:#6b6b6b;stroke-width:0.12999;stroke-linecap:round;stroke-linejoin:round"
         d="m 12.140361,6.7789349 c 0.06413,0.078605 0.139084,0.1394375 0.301539,0.1411685 0.205623,-0.088516 0.290091,-0.2728823 0.26892,-0.5375135 -0.08434,-0.082153 -0.137432,-0.098568 -0.247207,-0.1316705 -0.02293,0.2232532 -0.119099,0.4081872 -0.323252,0.5280155 z"
         id="path12-8-0-5"
         sodipodi:nodetypes="ccccc" /><path
         style="fill:#6b6b6b;stroke-width:0.145;stroke-linejoin:round"
         d="m 10.255916,10.439503 0.574862,0.136707 c 0.0086,0.128676 0.01728,0.05673 -0.04313,0.188625 -0.213561,0.0053 -0.4762,-0.05665 -0.572602,-0.158117 -0.02129,-0.10629 -0.02943,-0.10343 0.04087,-0.167215 z"
         id="path13-7-2-9"
         sodipodi:nodetypes="ccccc" /></g></g><g
     inkscape:groupmode="layer"
     id="layer3"
     inkscape:label="pistol"
     style="display:none"
     sodipodi:insensitive="true"
     transform="translate(-26.629693,-14.061414)"><g
       id="rect1-2-6-3-6-7-8-2-7-4-0"><path
         style="color:#000000;fill:#ffffff;fill-opacity:0;stroke-linecap:round;stroke-linejoin:round;-inkscape-stroke:none"
         d="M 26.759281,14.191002 H 37.484936 V 24.916656 H 26.759281 Z"
         id="path3" /><path
         style="color:#000000;fill:#000000;stroke-linecap:round;stroke-linejoin:round;-inkscape-stroke:none"
         d="m 26.759766,14.060547 a 0.12959995,0.12959995 0 0 0 -0.13086,0.130859 v 10.72461 a 0.12959995,0.12959995 0 0 0 0.13086,0.130859 h 10.724609 a 0.12959995,0.12959995 0 0 0 0.130859,-0.130859 v -10.72461 a 0.12959995,0.12959995 0 0 0 -0.130859,-0.130859 z m 0.128906,0.259766 H 37.355469 V 24.787109 H 26.888672 Z"
         id="path4" /></g><g
       id="g17-0-3-5-0-9-7"
       transform="matrix(0.03186119,1.0106006,-0.98626485,0.04010737,37.673712,8.2536728)"><g
         id="g16-8-0-7-8-0-3"><path
           style="color:#000000;fill:#404040;stroke-linejoin:round;-inkscape-stroke:none"
           d="m 12.451172,7.6035156 -0.05078,0.2402344 -0.363282,0.013672 0.0059,0.1464844 0.419922,-0.017578 a 0.07250725,0.07250725 0 0 0 0.06836,-0.058594 l 0.06055,-0.2949219 z"
           id="path16-6-1-4-1-2-1" /></g><rect
         style="fill:#6a3300;stroke-width:0.204747;stroke-linejoin:round"
         id="rect16-2-7-9-9-0-1"
         width="0.51746899"
         height="1.0753255"
         x="12.692005"
         y="4.2797461"
         ry="0.11806334"
         transform="matrix(0.96658012,0.25636474,-0.14489159,0.98944754,0,0)" /><rect
         style="fill:#909090;stroke-width:0.145;stroke-linejoin:round"
         id="rect13-4-8-9-9-1-9"
         width="1.7168922"
         height="0.376816"
         x="11.623376"
         y="7.3263092" /><rect
         style="fill:#303030;stroke-width:0.145;stroke-linejoin:round"
         id="rect14-7-9-4-7-9-0"
         width="0.059829496"
         height="0.13378662"
         x="13.340268"
         y="7.3263092" /><rect
         style="fill:#676767;stroke-width:0.125349;stroke-linejoin:round"
         id="rect15-9-1-5-8-6-5"
         width="0.4603602"
         height="0.188408"
         x="12.132112"
         y="7.3260527" /></g></g><g
     inkscape:label="stickman"
     inkscape:groupmode="layer"
     id="layer1"
     transform="translate(-26.629693,-14.061414)"><g
       id="rect1-2"
       style="opacity:0"><path
         style="color:#000000;fill:#ffffff;fill-opacity:0;stroke-linecap:round;stroke-linejoin:round;-inkscape-stroke:none"
         d="M 26.759281,14.191002 H 37.484936 V 24.916656 H 26.759281 Z"
         id="path5" /><path
         style="color:#000000;fill:#000000;stroke-linecap:round;stroke-linejoin:round;-inkscape-stroke:none"
         d="m 26.759766,14.060547 a 0.12959995,0.12959995 0 0 0 -0.13086,0.130859 v 10.72461 a 0.12959995,0.12959995 0 0 0 0.13086,0.130859 h 10.724609 a 0.12959995,0.12959995 0 0 0 0.130859,-0.130859 v -10.72461 a 0.12959995,0.12959995 0 0 0 -0.130859,-0.130859 z m 0.128906,0.259766 H 37.355469 V 24.787109 H 26.888672 Z"
         id="path6" /></g><g
       id="path1-9"><path
         style="color:#000000;fill:#ffffff;fill-opacity:0;stroke-linecap:round;stroke-linejoin:round;-inkscape-stroke:none"
         d="m 34.652908,16.607443 a 1.5453528,1.5453528 0 0 1 -1.545353,1.545353 1.5453528,1.5453528 0 0 1 -1.545352,-1.545353 1.5453528,1.5453528 0 0 1 1.545352,-1.545353 1.5453528,1.5453528 0 0 1 1.545353,1.545353 z"
         id="path7" /><path
         style="color:#000000;fill:#000000;stroke-linecap:round;stroke-linejoin:round;-inkscape-stroke:none"
         d="m 33.107422,14.769531 c -1.01186,0 -1.837891,0.826031 -1.837891,1.837891 0,1.01186 0.826031,1.83789 1.837891,1.83789 1.01186,0 1.837891,-0.82603 1.83789,-1.83789 0,-1.01186 -0.82603,-1.837891 -1.83789,-1.837891 z m 0,0.585938 c 0.695088,0 1.251953,0.556865 1.251953,1.251953 0,0.695088 -0.556865,1.251953 -1.251953,1.251953 -0.695088,0 -1.251953,-0.556865 -1.251953,-1.251953 0,-0.695088 0.556865,-1.251953 1.251953,-1.251953 z"
         id="path8" /></g><g
       id="path2-1"><path
         style="color:#000000;fill:#ffffff;fill-opacity:0;stroke-linecap:round;stroke-linejoin:round;-inkscape-stroke:none"
         d="m 32.543093,18.135985 -0.716858,3.652301"
         id="path9" /><path
         style="color:#000000;fill:#000000;stroke-linecap:round;stroke-linejoin:round;-inkscape-stroke:none"
         d="m 32.599609,17.847656 a 0.29306901,0.29306901 0 0 0 -0.34375,0.232422 l -0.716797,3.652344 a 0.29306901,0.29306901 0 0 0 0.230469,0.34375 0.29306901,0.29306901 0 0 0 0.34375,-0.230469 l 0.716797,-3.652344 a 0.29306901,0.29306901 0 0 0 -0.230469,-0.345703 z"
         id="path10" /></g><g
       id="path3-2"><path
         style="color:#000000;fill:#ffffff;fill-opacity:0;stroke-linecap:round;stroke-linejoin:round;-inkscape-stroke:none"
         d="m 31.835894,21.770138 c -0.581116,1.472554 -0.833451,1.374995 -3.007437,1.716309"
         id="path11" /><path
         style="color:#000000;fill:#000000;stroke-linecap:round;stroke-linejoin:round;-inkscape-stroke:none"
         d="M 31.943359,21.498047 A 0.29306901,0.29306901 0 0 0 31.5625,21.662109 c -0.142215,0.360374 -0.259929,0.612497 -0.376953,0.783203 -0.117024,0.170707 -0.224372,0.263132 -0.386719,0.34375 -0.324694,0.161238 -0.92269,0.236614 -2.015625,0.408204 a 0.29306901,0.29306901 0 0 0 -0.244141,0.333984 0.29306901,0.29306901 0 0 0 0.333985,0.244141 c 1.081049,-0.169724 1.697252,-0.217489 2.1875,-0.460938 0.245124,-0.121724 0.445758,-0.301286 0.607422,-0.537109 0.161664,-0.235823 0.293063,-0.524488 0.441406,-0.900391 a 0.29306901,0.29306901 0 0 0 -0.166016,-0.378906 z"
         id="path12" /></g><g
       id="path4-7"><path
         style="color:#000000;fill:#ffffff;fill-opacity:0;stroke-linecap:round;stroke-linejoin:round;-inkscape-stroke:none"
         d="m 31.903678,21.779237 c 1.970224,0.883635 2.286537,1.249483 2.995453,2.71089"
         id="path13" /><path
         style="color:#000000;fill:#000000;stroke-linecap:round;stroke-linejoin:round;-inkscape-stroke:none"
         d="m 32.023437,21.511719 a 0.29306901,0.29306901 0 0 0 -0.386718,0.148437 0.29306901,0.29306901 0 0 0 0.146484,0.386719 c 0.976675,0.438033 1.519196,0.739053 1.892578,1.085937 0.373383,0.346885 0.607806,0.760433 0.958985,1.484375 a 0.29306901,0.29306901 0 0 0 0.392578,0.136719 0.29306901,0.29306901 0 0 0 0.134765,-0.392578 c -0.357736,-0.737462 -0.633332,-1.235904 -1.08789,-1.658203 -0.454558,-0.422299 -1.057234,-0.745806 -2.050782,-1.191406 z"
         id="path14" /></g><g
       id="path5-0"><path
         style="color:#000000;fill:#ffffff;fill-opacity:0;stroke-linecap:round;stroke-linejoin:round;-inkscape-stroke:none"
         d="m 32.346135,18.497281 c -1.946417,-0.05876 -2.046926,1.08897 -2.252547,2.147752"
         id="path15" /><path
         style="color:#000000;fill:#000000;stroke-linecap:round;stroke-linejoin:round;-inkscape-stroke:none"
         d="m 32.355469,18.205078 c -1.030885,-0.03112 -1.675283,0.284278 -2.027344,0.777344 -0.352061,0.493066 -0.420748,1.088713 -0.521484,1.607422 a 0.29306901,0.29306901 0 0 0 0.230468,0.34375 0.29306901,0.29306901 0 0 0 0.34375,-0.232422 c 0.104885,-0.540073 0.187626,-1.048102 0.423828,-1.378906 0.236203,-0.330804 0.617673,-0.558889 1.533204,-0.53125 a 0.29306901,0.29306901 0 0 0 0.300781,-0.285157 0.29306901,0.29306901 0 0 0 -0.283203,-0.300781 z"
         id="path16" /></g><g
       id="path5-5-9"><path
         style="color:#000000;fill:#ffffff;fill-opacity:0;stroke-linecap:round;stroke-linejoin:round;-inkscape-stroke:none"
         d="m 32.484219,18.43594 c 0.325147,1.385924 0.899208,2.112959 2.616509,0.803414"
         id="path17" /><path
         style="color:#000000;fill:#000000;stroke-linecap:round;stroke-linejoin:round;-inkscape-stroke:none"
         d="m 32.417969,18.150391 a 0.29306901,0.29306901 0 0 0 -0.21875,0.351562 c 0.16873,0.719206 0.395531,1.34761 0.945312,1.611328 0.274891,0.13186 0.607098,0.137242 0.957031,0.02734 0.349934,-0.109898 0.731752,-0.32788 1.177735,-0.667969 a 0.29306901,0.29306901 0 0 0 0.05469,-0.410156 0.29306901,0.29306901 0 0 0 -0.410156,-0.05664 c -0.412667,0.314684 -0.747192,0.49739 -0.998047,0.576172 -0.250854,0.07878 -0.405366,0.0614 -0.529297,0.002 -0.24786,-0.118893 -0.470537,-0.548127 -0.626953,-1.214843 a 0.29306901,0.29306901 0 0 0 -0.351562,-0.21875 z"
         id="path18" /></g></g></svg>
