<?xml version="1.0" encoding="UTF-8" standalone="no"?>
<!-- Created with Inkscape (http://www.inkscape.org/) -->

<svg
   width="10.984831mm"
   height="10.984829mm"
   viewBox="0 0 10.984831 10.984829"
   version="1.1"
   id="svg1"
   inkscape:version="1.3 (0e150ed6c4, 2023-07-21)"
   sodipodi:docname="stickman-run-2.svg"
   xml:space="preserve"
   xmlns:inkscape="http://www.inkscape.org/namespaces/inkscape"
   xmlns:sodipodi="http://sodipodi.sourceforge.net/DTD/sodipodi-0.dtd"
   xmlns="http://www.w3.org/2000/svg"
   xmlns:svg="http://www.w3.org/2000/svg"><sodipodi:namedview
     id="namedview1"
     pagecolor="#d5d5d5"
     bordercolor="#ffffff"
     borderopacity="1"
     inkscape:showpageshadow="0"
     inkscape:pageopacity="0"
     inkscape:pagecheckerboard="1"
     inkscape:deskcolor="#505050"
     inkscape:document-units="mm"
     inkscape:zoom="1"
     inkscape:cx="232.49999"
     inkscape:cy="117.99999"
     inkscape:window-width="1236"
     inkscape:window-height="980"
     inkscape:window-x="20"
     inkscape:window-y="20"
     inkscape:window-maximized="1"
     inkscape:current-layer="layer3" /><defs
     id="defs1" /><g
     inkscape:groupmode="layer"
     id="layer2"
     inkscape:label="pipe"
     style="display:none"
     sodipodi:insensitive="true"
     transform="translate(-38.590211,-14.444525)"><g
       id="rect1-2-6-3-1-5-9"><path
         style="color:#000000;fill:#ffffff;fill-opacity:0;stroke-linecap:round;stroke-linejoin:round;-inkscape-stroke:none"
         d="M 38.719799,14.574113 H 49.445454 V 25.299767 H 38.719799 Z"
         id="path1" /><path
         style="color:#000000;fill:#000000;stroke-linecap:round;stroke-linejoin:round;-inkscape-stroke:none"
         d="m 38.720703,14.445313 a 0.12959995,0.12959995 0 0 0 -0.130859,0.128906 v 10.724609 a 0.12959995,0.12959995 0 0 0 0.130859,0.130859 h 10.724609 a 0.12959995,0.12959995 0 0 0 0.128907,-0.130859 V 14.574219 a 0.12959995,0.12959995 0 0 0 -0.128907,-0.128906 z m 0.128906,0.257812 H 49.316406 V 25.169922 H 38.849609 Z"
         id="path2" /></g><g
       id="g13-6-9"
       transform="rotate(74.062635,18.997408,36.6251)"><path
         style="color:#000000;fill:#7d7d7d;stroke-linejoin:round;-inkscape-stroke:none"
         d="m 11.916016,6.1328125 c -0.119886,-5.433e-4 -0.251011,0.023104 -0.371094,0.099609 -0.120083,0.076505 -0.214789,0.2070313 -0.257813,0.3574218 a 0.27252726,0.27252726 0 0 0 -0.002,0.00586 l -1.070312,4.0136719 0.527344,0.140625 1.068359,-4.0097656 0.002,-0.00391 c 0.01052,-0.033668 0.01734,-0.039794 0.02539,-0.044922 0.0087,-0.00556 0.03223,-0.013871 0.07617,-0.013672 0.08788,3.982e-4 0.238258,0.054133 0.310546,0.1035156 L 12.53125,6.3300781 C 12.366738,6.2176954 12.155787,6.133899 11.916016,6.1328125 Z"
         id="path11-9-6" /><path
         style="fill:#6b6b6b;stroke-width:0.12999;stroke-linecap:round;stroke-linejoin:round"
         d="m 12.140361,6.7789349 c 0.06413,0.078605 0.139084,0.1394375 0.301539,0.1411685 0.205623,-0.088516 0.290091,-0.2728823 0.26892,-0.5375135 -0.08434,-0.082153 -0.137432,-0.098568 -0.247207,-0.1316705 -0.02293,0.2232532 -0.119099,0.4081872 -0.323252,0.5280155 z"
         id="path12-8-0"
         sodipodi:nodetypes="ccccc" /><path
         style="fill:#6b6b6b;stroke-width:0.145;stroke-linejoin:round"
         d="m 10.255916,10.439503 0.574862,0.136707 c 0.0086,0.128676 0.01728,0.05673 -0.04313,0.188625 -0.213561,0.0053 -0.4762,-0.05665 -0.572602,-0.158117 -0.02129,-0.10629 -0.02943,-0.10343 0.04087,-0.167215 z"
         id="path13-7-2"
         sodipodi:nodetypes="ccccc" /></g></g><g
     inkscape:groupmode="layer"
     id="layer3"
     inkscape:label="pistol"
     style="display:none"
     sodipodi:insensitive="true"
     transform="translate(-38.590211,-14.444525)"><g
       id="rect1-2-6-3-6-7-8-2-7-4"><path
         style="color:#000000;fill:#ffffff;fill-opacity:0;stroke-linecap:round;stroke-linejoin:round;-inkscape-stroke:none"
         d="M 38.719799,14.574113 H 49.445454 V 25.299767 H 38.719799 Z"
         id="path3" /><path
         style="color:#000000;fill:#000000;stroke-linecap:round;stroke-linejoin:round;-inkscape-stroke:none"
         d="m 38.720703,14.445313 a 0.12959995,0.12959995 0 0 0 -0.130859,0.128906 v 10.724609 a 0.12959995,0.12959995 0 0 0 0.130859,0.130859 h 10.724609 a 0.12959995,0.12959995 0 0 0 0.128907,-0.130859 V 14.574219 a 0.12959995,0.12959995 0 0 0 -0.128907,-0.128906 z m 0.128906,0.257812 H 49.316406 V 25.169922 H 38.849609 Z"
         id="path4" /></g><g
       id="g17-0-3-5-0-9"
       transform="matrix(0.08597952,1.0074404,-0.9826977,0.09290953,49.775117,8.6423633)"><g
         id="g16-8-0-7-8-0"><path
           style="color:#000000;fill:#404040;stroke-linejoin:round;-inkscape-stroke:none"
           d="m 12.451172,7.6035156 -0.05078,0.2402344 -0.363282,0.013672 0.0059,0.1464844 0.419922,-0.017578 a 0.07250725,0.07250725 0 0 0 0.06836,-0.058594 l 0.06055,-0.2949219 z"
           id="path16-6-1-4-1-2" /></g><rect
         style="fill:#6a3300;stroke-width:0.204747;stroke-linejoin:round"
         id="rect16-2-7-9-9-0"
         width="0.51746899"
         height="1.0753255"
         x="12.692005"
         y="4.2797461"
         ry="0.11806334"
         transform="matrix(0.96658012,0.25636474,-0.14489159,0.98944754,0,0)" /><rect
         style="fill:#909090;stroke-width:0.145;stroke-linejoin:round"
         id="rect13-4-8-9-9-1"
         width="1.7168922"
         height="0.376816"
         x="11.623376"
         y="7.3263092" /><rect
         style="fill:#303030;stroke-width:0.145;stroke-linejoin:round"
         id="rect14-7-9-4-7-9"
         width="0.059829496"
         height="0.13378662"
         x="13.340268"
         y="7.3263092" /><rect
         style="fill:#676767;stroke-width:0.125349;stroke-linejoin:round"
         id="rect15-9-1-5-8-6"
         width="0.4603602"
         height="0.188408"
         x="12.132112"
         y="7.3260527" /></g></g><g
     inkscape:label="stickman"
     inkscape:groupmode="layer"
     id="layer1"
     transform="translate(-38.590211,-14.444525)"><g
       id="rect1-4-2-6"
       style="opacity:0"><path
         style="color:#000000;fill:#ffffff;fill-opacity:0;stroke-linecap:round;stroke-linejoin:round;-inkscape-stroke:none"
         d="M 38.719799,14.574113 H 49.445454 V 25.299767 H 38.719799 Z"
         id="path5" /><path
         style="color:#000000;fill:#000000;stroke-linecap:round;stroke-linejoin:round;-inkscape-stroke:none"
         d="m 38.720703,14.445313 a 0.12959995,0.12959995 0 0 0 -0.130859,0.128906 v 10.724609 a 0.12959995,0.12959995 0 0 0 0.130859,0.130859 h 10.724609 a 0.12959995,0.12959995 0 0 0 0.128907,-0.130859 V 14.574219 a 0.12959995,0.12959995 0 0 0 -0.128907,-0.128906 z m 0.128906,0.257812 H 49.316406 V 25.169922 H 38.849609 Z"
         id="path6" /></g><g
       id="path1-7-5-8"
       transform="rotate(6.6847058)"><path
         style="color:#000000;fill:#ffffff;fill-opacity:0;stroke-linecap:round;stroke-linejoin:round;-inkscape-stroke:none"
         d="m 48.704616,11.767068 a 1.5453528,1.5453528 0 0 1 -1.545352,1.545353 1.5453528,1.5453528 0 0 1 -1.545353,-1.545353 1.5453528,1.5453528 0 0 1 1.545353,-1.545353 1.5453528,1.5453528 0 0 1 1.545352,1.545353 z"
         id="path7" /><path
         style="color:#000000;fill:#000000;stroke-linecap:round;stroke-linejoin:round;-inkscape-stroke:none"
         d="m 47.160156,9.9277344 c -1.01186,0 -1.839843,0.8279836 -1.839844,1.8398436 0,1.01186 0.827984,1.837891 1.839844,1.837891 1.01186,0 1.837891,-0.826031 1.837891,-1.837891 0,-1.01186 -0.826031,-1.8398436 -1.837891,-1.8398436 z m 0,0.5878906 c 0.695088,0 1.251953,0.556865 1.251953,1.251953 0,0.695088 -0.556865,1.251953 -1.251953,1.251953 -0.695088,0 -1.253906,-0.556865 -1.253906,-1.251953 0,-0.695088 0.558818,-1.251953 1.253906,-1.251953 z"
         id="path8" /></g><g
       id="path2-6-4-8"><path
         style="color:#000000;fill:#ffffff;fill-opacity:0;stroke-linecap:round;stroke-linejoin:round;-inkscape-stroke:none"
         d="m 44.708979,18.722084 -1.053421,3.391381"
         id="path9" /><path
         style="color:#000000;fill:#000000;stroke-linecap:round;stroke-linejoin:round;-inkscape-stroke:none"
         d="m 44.796875,18.441406 a 0.29306901,0.29306901 0 0 0 -0.367188,0.19336 L 43.375,22.027344 a 0.29306901,0.29306901 0 0 0 0.193359,0.365234 0.29306901,0.29306901 0 0 0 0.367188,-0.191406 l 1.052734,-3.392578 a 0.29306901,0.29306901 0 0 0 -0.191406,-0.367188 z"
         id="path10" /></g><g
       id="path3-5-7-4"><path
         style="color:#000000;fill:#ffffff;fill-opacity:0;stroke-linecap:round;stroke-linejoin:round;-inkscape-stroke:none"
         d="m 43.660502,22.077581 c 1.671325,0.91454 1.610208,1.387433 1.526684,2.882499"
         id="path11" /><path
         style="color:#000000;fill:#000000;stroke-linecap:round;stroke-linejoin:round;-inkscape-stroke:none"
         d="m 43.578125,21.796875 a 0.29306901,0.29306901 0 0 0 -0.173828,0.140625 0.29306901,0.29306901 0 0 0 0.115234,0.396484 c 0.815682,0.446337 1.149083,0.754561 1.292969,1.083985 0.143886,0.329423 0.123919,0.775601 0.08203,1.52539 a 0.29306901,0.29306901 0 0 0 0.275391,0.308594 0.29306901,0.29306901 0 0 0 0.310547,-0.275391 c 0.04164,-0.745275 0.09165,-1.283545 -0.13086,-1.792968 -0.222505,-0.509424 -0.693186,-0.895079 -1.548828,-1.363282 a 0.29306901,0.29306901 0 0 0 -0.222656,-0.02344 z"
         id="path12" /></g><g
       id="path4-6-4-3"><path
         style="color:#000000;fill:#ffffff;fill-opacity:0;stroke-linecap:round;stroke-linejoin:round;-inkscape-stroke:none"
         d="m 43.666123,22.074204 c 0.04024,2.456231 -0.697375,1.874109 -2.014163,1.835569"
         id="path13" /><path
         style="color:#000000;fill:#000000;stroke-linecap:round;stroke-linejoin:round;-inkscape-stroke:none"
         d="m 43.662109,21.78125 a 0.29306901,0.29306901 0 0 0 -0.289062,0.296875 c 0.0098,0.599584 -0.03206,1.002249 -0.101563,1.242187 -0.0695,0.239939 -0.13591,0.299442 -0.224609,0.339844 -0.0887,0.0404 -0.254649,0.05361 -0.494141,0.0332 -0.239491,-0.0204 -0.542615,-0.06593 -0.892578,-0.07617 a 0.29306901,0.29306901 0 0 0 -0.300781,0.283204 0.29306901,0.29306901 0 0 0 0.283203,0.302734 c 0.308431,0.009 0.593428,0.05139 0.861328,0.07422 0.2679,0.02283 0.529883,0.03229 0.785156,-0.08398 0.255274,-0.116278 0.448241,-0.36846 0.546875,-0.708984 0.09864,-0.340524 0.133344,-0.785533 0.123047,-1.414063 A 0.29306901,0.29306901 0 0 0 43.662109,21.78125 Z"
         id="path14" /></g><g
       id="path5-9-4-1"><path
         style="color:#000000;fill:#ffffff;fill-opacity:0;stroke-linecap:round;stroke-linejoin:round;-inkscape-stroke:none"
         d="m 44.606357,19.052466 c 0.310269,2.355148 0.36822,2.066049 2.260921,1.884562"
         id="path15" /><path
         style="color:#000000;fill:#000000;stroke-linecap:round;stroke-linejoin:round;-inkscape-stroke:none"
         d="m 44.568359,18.761719 a 0.29306901,0.29306901 0 0 0 -0.251953,0.328125 c 0.07782,0.590727 0.138495,1.019711 0.22461,1.349609 0.08611,0.329898 0.205219,0.589574 0.435546,0.748047 0.230328,0.158473 0.500181,0.173347 0.798829,0.15625 0.298648,-0.0171 0.653183,-0.07055 1.11914,-0.115234 a 0.29306901,0.29306901 0 0 0 0.263672,-0.320313 0.29306901,0.29306901 0 0 0 -0.318359,-0.263672 c -0.480393,0.04606 -0.843421,0.09873 -1.097657,0.113281 -0.254235,0.01455 -0.374062,-0.01178 -0.433593,-0.05273 -0.05953,-0.04096 -0.130011,-0.1395 -0.201172,-0.412109 -0.07116,-0.27261 -0.133626,-0.692452 -0.210938,-1.279297 a 0.29306901,0.29306901 0 0 0 -0.328125,-0.251953 z"
         id="path16" /></g><g
       id="path5-5-3-3-4"><path
         style="color:#000000;fill:#ffffff;fill-opacity:0;stroke-linecap:round;stroke-linejoin:round;-inkscape-stroke:none"
         d="m 44.606357,19.052466 c -1.470502,0.631517 -1.786034,0.567175 -1.700091,2.445655"
         id="path17" /><path
         style="color:#000000;fill:#000000;stroke-linecap:round;stroke-linejoin:round;-inkscape-stroke:none"
         d="m 44.490234,18.783203 c -0.72495,0.311335 -1.208401,0.442978 -1.541015,0.835938 -0.332615,0.392959 -0.379651,0.937134 -0.335938,1.892578 a 0.29306901,0.29306901 0 0 0 0.306641,0.279297 0.29306901,0.29306901 0 0 0 0.279297,-0.306641 c -0.04223,-0.923034 0.02597,-1.285913 0.197265,-1.488281 0.171291,-0.202368 0.580622,-0.353647 1.326172,-0.673828 A 0.29306901,0.29306901 0 0 0 44.875,18.9375 0.29306901,0.29306901 0 0 0 44.490234,18.783203 Z"
         id="path18" /></g></g></svg>
