<?xml version="1.0" encoding="UTF-8" standalone="no"?>
<!-- Created with Inkscape (http://www.inkscape.org/) -->

<svg
   width="10.984827mm"
   height="10.98483mm"
   viewBox="0 0 10.984827 10.98483"
   version="1.1"
   id="svg1"
   inkscape:version="1.3 (0e150ed6c4, 2023-07-21)"
   sodipodi:docname="stickman-run-4.svg"
   xml:space="preserve"
   xmlns:inkscape="http://www.inkscape.org/namespaces/inkscape"
   xmlns:sodipodi="http://sodipodi.sourceforge.net/DTD/sodipodi-0.dtd"
   xmlns="http://www.w3.org/2000/svg"
   xmlns:svg="http://www.w3.org/2000/svg"><sodipodi:namedview
     id="namedview1"
     pagecolor="#d5d5d5"
     bordercolor="#ffffff"
     borderopacity="1"
     inkscape:showpageshadow="0"
     inkscape:pageopacity="0"
     inkscape:pagecheckerboard="1"
     inkscape:deskcolor="#505050"
     inkscape:document-units="mm"
     inkscape:zoom="1"
     inkscape:cx="232.49999"
     inkscape:cy="117.99999"
     inkscape:window-width="1236"
     inkscape:window-height="980"
     inkscape:window-x="20"
     inkscape:window-y="20"
     inkscape:window-maximized="1"
     inkscape:current-layer="layer3" /><defs
     id="defs1" /><g
     inkscape:groupmode="layer"
     id="layer2"
     inkscape:label="pipe"
     style="display:none"
     sodipodi:insensitive="true"
     transform="translate(-62.727743,-14.530427)"><g
       id="g13-6-9-2-3-7"
       transform="rotate(56.021201,28.444912,69.369534)"><path
         style="color:#000000;fill:#7d7d7d;stroke-linejoin:round;-inkscape-stroke:none"
         d="m 11.916016,6.1328125 c -0.119886,-5.433e-4 -0.251011,0.023104 -0.371094,0.099609 -0.120083,0.076505 -0.214789,0.2070313 -0.257813,0.3574218 a 0.27252726,0.27252726 0 0 0 -0.002,0.00586 l -1.070312,4.0136719 0.527344,0.140625 1.068359,-4.0097656 0.002,-0.00391 c 0.01052,-0.033668 0.01734,-0.039794 0.02539,-0.044922 0.0087,-0.00556 0.03223,-0.013871 0.07617,-0.013672 0.08788,3.982e-4 0.238258,0.054133 0.310546,0.1035156 L 12.53125,6.3300781 C 12.366738,6.2176954 12.155787,6.133899 11.916016,6.1328125 Z"
         id="path11-9-6-1-5-5" /><path
         style="fill:#6b6b6b;stroke-width:0.12999;stroke-linecap:round;stroke-linejoin:round"
         d="m 12.140361,6.7789349 c 0.06413,0.078605 0.139084,0.1394375 0.301539,0.1411685 0.205623,-0.088516 0.290091,-0.2728823 0.26892,-0.5375135 -0.08434,-0.082153 -0.137432,-0.098568 -0.247207,-0.1316705 -0.02293,0.2232532 -0.119099,0.4081872 -0.323252,0.5280155 z"
         id="path12-8-0-5-6-9"
         sodipodi:nodetypes="ccccc" /><path
         style="fill:#6b6b6b;stroke-width:0.145;stroke-linejoin:round"
         d="m 10.255916,10.439503 0.574862,0.136707 c 0.0086,0.128676 0.01728,0.05673 -0.04313,0.188625 -0.213561,0.0053 -0.4762,-0.05665 -0.572602,-0.158117 -0.02129,-0.10629 -0.02943,-0.10343 0.04087,-0.167215 z"
         id="path13-7-2-9-2-22"
         sodipodi:nodetypes="ccccc" /></g><g
       id="rect1-2-9-8"><path
         style="color:#000000;fill:#ffffff;fill-opacity:0;stroke-linecap:round;stroke-linejoin:round;-inkscape-stroke:none"
         d="M 62.85733,14.660014 H 73.582985 V 25.385669 H 62.85733 Z"
         id="path1" /><path
         style="color:#000000;fill:#000000;stroke-linecap:round;stroke-linejoin:round;-inkscape-stroke:none"
         d="m 62.857422,14.53125 a 0.12959995,0.12959995 0 0 0 -0.128906,0.128906 v 10.72461 a 0.12959995,0.12959995 0 0 0 0.128906,0.130859 h 10.724609 a 0.12959995,0.12959995 0 0 0 0.13086,-0.130859 v -10.72461 a 0.12959995,0.12959995 0 0 0 -0.13086,-0.128906 z m 0.128906,0.257813 H 73.453125 V 25.255859 H 62.986328 Z"
         id="path2" /></g></g><g
     inkscape:groupmode="layer"
     id="layer3"
     inkscape:label="pistol"
     style="display:none"
     sodipodi:insensitive="true"
     transform="translate(-62.727743,-14.530427)"><g
       id="rect1-2-6-3-6-7-8-2-7-4-0-0-6"><path
         style="color:#000000;fill:#ffffff;fill-opacity:0;stroke-linecap:round;stroke-linejoin:round;-inkscape-stroke:none"
         d="M 62.85733,14.660014 H 73.582985 V 25.385669 H 62.85733 Z"
         id="path3" /><path
         style="color:#000000;fill:#000000;stroke-linecap:round;stroke-linejoin:round;-inkscape-stroke:none"
         d="m 62.857422,14.53125 a 0.12959995,0.12959995 0 0 0 -0.128906,0.128906 v 10.72461 a 0.12959995,0.12959995 0 0 0 0.128906,0.130859 h 10.724609 a 0.12959995,0.12959995 0 0 0 0.13086,-0.130859 v -10.72461 a 0.12959995,0.12959995 0 0 0 -0.13086,-0.128906 z m 0.128906,0.257813 H 73.453125 V 25.255859 H 62.986328 Z"
         id="path4" /></g><g
       id="g17-0-3-5-0-9-7-3-2"
       transform="matrix(0.31670051,0.96022367,-0.93454894,0.31771878,72.024222,7.2502775)"><g
         id="g16-8-0-7-8-0-3-3-6"><path
           style="color:#000000;fill:#404040;stroke-linejoin:round;-inkscape-stroke:none"
           d="m 12.451172,7.6035156 -0.05078,0.2402344 -0.363282,0.013672 0.0059,0.1464844 0.419922,-0.017578 a 0.07250725,0.07250725 0 0 0 0.06836,-0.058594 l 0.06055,-0.2949219 z"
           id="path16-6-1-4-1-2-1-3-1" /></g><rect
         style="fill:#6a3300;stroke-width:0.204747;stroke-linejoin:round"
         id="rect16-2-7-9-9-0-1-7-8"
         width="0.51746899"
         height="1.0753255"
         x="12.692005"
         y="4.2797461"
         ry="0.11806334"
         transform="matrix(0.96658012,0.25636474,-0.14489159,0.98944754,0,0)" /><rect
         style="fill:#909090;stroke-width:0.145;stroke-linejoin:round"
         id="rect13-4-8-9-9-1-9-3-7"
         width="1.7168922"
         height="0.376816"
         x="11.623376"
         y="7.3263092" /><rect
         style="fill:#303030;stroke-width:0.145;stroke-linejoin:round"
         id="rect14-7-9-4-7-9-0-2-9"
         width="0.059829496"
         height="0.13378662"
         x="13.340268"
         y="7.3263092" /><rect
         style="fill:#676767;stroke-width:0.125349;stroke-linejoin:round"
         id="rect15-9-1-5-8-6-5-6-2"
         width="0.4603602"
         height="0.188408"
         x="12.132112"
         y="7.3260527" /></g></g><g
     inkscape:label="stickman"
     inkscape:groupmode="layer"
     id="layer1"
     transform="translate(-62.727743,-14.530427)"><g
       id="rect1-2-6-3-1-5-9-3-5-2"
       style="opacity:0"><path
         style="color:#000000;fill:#ffffff;fill-opacity:0;stroke-linecap:round;stroke-linejoin:round;-inkscape-stroke:none"
         d="M 62.85733,14.660014 H 73.582985 V 25.385669 H 62.85733 Z"
         id="path5" /><path
         style="color:#000000;fill:#000000;stroke-linecap:round;stroke-linejoin:round;-inkscape-stroke:none"
         d="m 62.857422,14.53125 a 0.12959995,0.12959995 0 0 0 -0.128906,0.128906 v 10.72461 a 0.12959995,0.12959995 0 0 0 0.128906,0.130859 h 10.724609 a 0.12959995,0.12959995 0 0 0 0.13086,-0.130859 v -10.72461 a 0.12959995,0.12959995 0 0 0 -0.13086,-0.128906 z m 0.128906,0.257813 H 73.453125 V 25.255859 H 62.986328 Z"
         id="path6" /></g><g
       id="path1-9-1-9"><path
         style="color:#000000;fill:#ffffff;fill-opacity:0;stroke-linecap:round;stroke-linejoin:round;-inkscape-stroke:none"
         d="m 70.750965,17.076456 a 1.5453528,1.5453528 0 0 1 -1.545353,1.545353 1.5453528,1.5453528 0 0 1 -1.545353,-1.545353 1.5453528,1.5453528 0 0 1 1.545353,-1.545353 1.5453528,1.5453528 0 0 1 1.545353,1.545353 z"
         id="path7" /><path
         style="color:#000000;fill:#000000;stroke-linecap:round;stroke-linejoin:round;-inkscape-stroke:none"
         d="m 69.205078,15.238281 c -1.01186,0 -1.837891,0.826031 -1.837891,1.837891 0,1.01186 0.826031,1.83789 1.837891,1.83789 1.01186,0 1.839844,-0.82603 1.839844,-1.83789 0,-1.01186 -0.827984,-1.837891 -1.839844,-1.837891 z m 0,0.585938 c 0.695088,0 1.251953,0.556865 1.251953,1.251953 0,0.695088 -0.556865,1.251953 -1.251953,1.251953 -0.695088,0 -1.251953,-0.556865 -1.251953,-1.251953 0,-0.695088 0.556865,-1.251953 1.251953,-1.251953 z"
         id="path8" /></g><g
       id="path2-1-2-1"><path
         style="color:#000000;fill:#ffffff;fill-opacity:0;stroke-linecap:round;stroke-linejoin:round;-inkscape-stroke:none"
         d="m 68.641145,18.604996 c -0.287423,1.229818 -1.182472,2.867175 -0.716858,3.652301"
         id="path9" /><path
         style="color:#000000;fill:#000000;stroke-linecap:round;stroke-linejoin:round;-inkscape-stroke:none"
         d="m 68.707031,18.320312 a 0.29306901,0.29306901 0 0 0 -0.351562,0.21875 c -0.134929,0.577329 -0.427194,1.291486 -0.634766,1.972657 -0.207572,0.681171 -0.369255,1.354222 -0.04883,1.894531 a 0.29306901,0.29306901 0 0 0 0.402344,0.103516 0.29306901,0.29306901 0 0 0 0.101562,-0.402344 c -0.145186,-0.244816 -0.08993,-0.782586 0.105469,-1.423828 0.195404,-0.641242 0.492037,-1.359231 0.644531,-2.011719 a 0.29306901,0.29306901 0 0 0 -0.21875,-0.351563 z"
         id="path10" /></g><g
       id="path3-2-7-2"><path
         style="color:#000000;fill:#ffffff;fill-opacity:0;stroke-linecap:round;stroke-linejoin:round;-inkscape-stroke:none"
         d="m 67.837229,22.051647 c 0.876911,1.604693 1.406875,1.761684 -0.671277,1.686052"
         id="path11" /><path
         style="color:#000000;fill:#000000;stroke-linecap:round;stroke-linejoin:round;-inkscape-stroke:none"
         d="m 67.697266,21.794922 a 0.29306901,0.29306901 0 0 0 -0.117188,0.396484 c 0.22422,0.410309 0.426589,0.727648 0.5625,0.958985 0.108125,0.184041 0.124934,0.252041 0.140625,0.279296 -0.02157,0.0053 -0.01483,0.0074 -0.04883,0.01172 -0.187361,0.02387 -0.542286,0.0227 -1.058594,0.0039 a 0.29306901,0.29306901 0 0 0 -0.302734,0.28125 0.29306901,0.29306901 0 0 0 0.283203,0.304688 c 0.522768,0.01903 0.881997,0.02663 1.152344,-0.0078 0.135173,-0.01722 0.251398,-0.04231 0.367187,-0.113281 0.11579,-0.07097 0.215935,-0.224671 0.226563,-0.363281 0.02125,-0.27722 -0.110714,-0.446304 -0.25586,-0.693359 -0.145145,-0.247055 -0.338499,-0.551323 -0.552734,-0.94336 a 0.29306901,0.29306901 0 0 0 -0.396484,-0.115234 z"
         id="path12" /></g><g
       id="path4-7-0-7"><path
         style="color:#000000;fill:#ffffff;fill-opacity:0;stroke-linecap:round;stroke-linejoin:round;-inkscape-stroke:none"
         d="m 67.924287,22.257297 c 0.211472,1.098278 -0.130457,1.403288 -0.44717,2.708123"
         id="path13" /><path
         style="color:#000000;fill:#000000;stroke-linecap:round;stroke-linejoin:round;-inkscape-stroke:none"
         d="m 67.869141,21.96875 a 0.29306901,0.29306901 0 0 0 -0.232422,0.34375 c 0.09924,0.515395 0.06986,0.797673 -0.02148,1.146484 -0.09135,0.348812 -0.261004,0.766677 -0.423828,1.4375 A 0.29306901,0.29306901 0 0 0 67.408203,25.25 0.29306901,0.29306901 0 0 0 67.761719,25.035156 c 0.153888,-0.63401 0.313996,-1.023263 0.419922,-1.427734 0.105925,-0.404471 0.143483,-0.823368 0.03125,-1.40625 a 0.29306901,0.29306901 0 0 0 -0.34375,-0.232422 z"
         id="path14" /></g><g
       id="path5-0-9-0"><path
         style="color:#000000;fill:#ffffff;fill-opacity:0;stroke-linecap:round;stroke-linejoin:round;-inkscape-stroke:none"
         d="m 68.530229,19.012863 c -0.418895,1.239917 -0.523735,1.564885 -0.190701,2.440048"
         id="path15" /><path
         style="color:#000000;fill:#000000;stroke-linecap:round;stroke-linejoin:round;-inkscape-stroke:none"
         d="m 68.625,18.734375 a 0.29306901,0.29306901 0 0 0 -0.373047,0.185547 c -0.209559,0.620289 -0.348389,1.022816 -0.390625,1.417969 -0.04224,0.395152 0.03064,0.760345 0.205078,1.21875 a 0.29306901,0.29306901 0 0 0 0.376953,0.169921 0.29306901,0.29306901 0 0 0 0.169922,-0.376953 c -0.158592,-0.416757 -0.201571,-0.653118 -0.169922,-0.949218 0.03165,-0.296101 0.155899,-0.673343 0.365235,-1.292969 A 0.29306901,0.29306901 0 0 0 68.625,18.734375 Z"
         id="path16" /></g><g
       id="path5-5-9-3-9"><path
         style="color:#000000;fill:#ffffff;fill-opacity:0;stroke-linecap:round;stroke-linejoin:round;-inkscape-stroke:none"
         d="m 68.564047,18.89852 c -0.251561,0.776713 -1.357553,1.812155 -0.428517,2.574248"
         id="path17" /><path
         style="color:#000000;fill:#000000;stroke-linecap:round;stroke-linejoin:round;-inkscape-stroke:none"
         d="m 68.654297,18.619141 a 0.29306901,0.29306901 0 0 0 -0.369141,0.189453 c -0.09875,0.304901 -0.435562,0.766822 -0.648437,1.267578 -0.106438,0.250378 -0.183212,0.522455 -0.152344,0.8125 0.03087,0.290045 0.18538,0.581301 0.464844,0.810547 a 0.29306901,0.29306901 0 0 0 0.412109,-0.04102 0.29306901,0.29306901 0 0 0 -0.03906,-0.412109 c -0.185055,-0.151801 -0.240672,-0.275258 -0.25586,-0.417969 -0.01519,-0.142711 0.02595,-0.320651 0.111328,-0.521484 0.170752,-0.401666 0.513206,-0.846549 0.666016,-1.31836 a 0.29306901,0.29306901 0 0 0 -0.189453,-0.36914 z"
         id="path18" /></g></g></svg>
