<?xml version="1.0" encoding="UTF-8" standalone="no"?>
<!-- Created with Inkscape (http://www.inkscape.org/) -->

<svg
   width="10.984831mm"
   height="10.984831mm"
   viewBox="0 0 10.984831 10.984831"
   version="1.1"
   id="svg1"
   inkscape:version="1.3 (0e150ed6c4, 2023-07-21)"
   sodipodi:docname="stickman-dead-3.svg"
   xml:space="preserve"
   xmlns:inkscape="http://www.inkscape.org/namespaces/inkscape"
   xmlns:sodipodi="http://sodipodi.sourceforge.net/DTD/sodipodi-0.dtd"
   xmlns="http://www.w3.org/2000/svg"
   xmlns:svg="http://www.w3.org/2000/svg"><sodipodi:namedview
     id="namedview1"
     pagecolor="#d5d5d5"
     bordercolor="#ffffff"
     borderopacity="1"
     inkscape:showpageshadow="0"
     inkscape:pageopacity="0"
     inkscape:pagecheckerboard="1"
     inkscape:deskcolor="#505050"
     inkscape:document-units="mm"
     inkscape:zoom="2.0000001"
     inkscape:cx="104.99999"
     inkscape:cy="97.499995"
     inkscape:window-width="1236"
     inkscape:window-height="980"
     inkscape:window-x="20"
     inkscape:window-y="20"
     inkscape:window-maximized="1"
     inkscape:current-layer="layer1" /><defs
     id="defs1" /><g
     inkscape:label="stickman"
     inkscape:groupmode="layer"
     id="layer1"
     transform="translate(-51.353597,-59.307585)"><g
       id="rect1-4-1-2"
       style="opacity:0"><path
         style="color:#000000;fill:#ffffff;fill-opacity:0;stroke-linecap:round;stroke-linejoin:round;-inkscape-stroke:none"
         d="M 51.483185,59.437172 H 62.208839 V 70.162827 H 51.483185 Z"
         id="path14" /><path
         style="color:#000000;fill:#000000;stroke-linecap:round;stroke-linejoin:round;-inkscape-stroke:none"
         d="M 51.482422,59.306641 A 0.12959995,0.12959995 0 0 0 51.353516,59.4375 v 10.724609 a 0.12959995,0.12959995 0 0 0 0.128906,0.13086 h 10.726562 a 0.12959995,0.12959995 0 0 0 0.128907,-0.13086 V 59.4375 a 0.12959995,0.12959995 0 0 0 -0.128907,-0.130859 z m 0.130859,0.259765 H 62.080078 V 70.033203 H 51.613281 Z"
         id="path13" /></g><g
       id="path1-7-03-0"><path
         style="color:#000000;fill:#ffffff;fill-opacity:0;stroke-linecap:round;stroke-linejoin:round;-inkscape-stroke:none"
         d="m 61.665542,68.189743 a 1.5453528,1.5453528 0 0 1 -1.545352,1.545353 1.5453528,1.5453528 0 0 1 -1.545353,-1.545353 1.5453528,1.5453528 0 0 1 1.545353,-1.545353 1.5453528,1.5453528 0 0 1 1.545352,1.545353 z"
         id="path12" /><path
         style="color:#000000;fill:#000000;stroke-linecap:round;stroke-linejoin:round;-inkscape-stroke:none"
         d="m 60.121094,66.351562 c -1.01186,0 -1.839844,0.826031 -1.839844,1.837891 0,1.01186 0.827984,1.837891 1.839844,1.837891 1.01186,0 1.83789,-0.826031 1.83789,-1.837891 0,-1.01186 -0.82603,-1.837891 -1.83789,-1.837891 z m 0,0.585938 c 0.695088,0 1.251953,0.556865 1.251953,1.251953 0,0.695088 -0.556865,1.251953 -1.251953,1.251953 -0.695088,0 -1.253907,-0.556865 -1.253907,-1.251953 0,-0.695088 0.558819,-1.251953 1.253907,-1.251953 z"
         id="path11" /></g><g
       id="path2-6-04-2"><path
         style="color:#000000;fill:#ffffff;fill-opacity:0;stroke-linecap:round;stroke-linejoin:round;-inkscape-stroke:none"
         d="m 58.411164,68.887787 c -0.897009,0.432682 -2.028306,0.496869 -2.815227,0.778624"
         id="path10" /><path
         style="color:#000000;fill:#000000;stroke-linecap:round;stroke-linejoin:round;-inkscape-stroke:none"
         d="m 58.507812,68.611328 a 0.29306901,0.29306901 0 0 0 -0.224609,0.01172 c -0.820376,0.395717 -1.927611,0.460536 -2.785156,0.767578 a 0.29306901,0.29306901 0 0 0 -0.177735,0.375 0.29306901,0.29306901 0 0 0 0.375,0.175781 c 0.716296,-0.256467 1.87011,-0.319416 2.84375,-0.789062 a 0.29306901,0.29306901 0 0 0 0.136719,-0.392578 0.29306901,0.29306901 0 0 0 -0.167969,-0.148438 z"
         id="path9" /></g><g
       id="path3-5-4-3"><path
         style="color:#000000;fill:#ffffff;fill-opacity:0;stroke-linecap:round;stroke-linejoin:round;-inkscape-stroke:none"
         d="m 55.28868,69.697056 c -0.922669,-0.02748 -1.268319,-0.361619 -2.190988,0.09615"
         id="path8" /><path
         style="color:#000000;fill:#000000;stroke-linecap:round;stroke-linejoin:round;-inkscape-stroke:none"
         d="m 54.220703,69.271484 c -0.353966,-0.03321 -0.754088,0.01179 -1.253906,0.259766 a 0.29306901,0.29306901 0 0 0 -0.13086,0.392578 0.29306901,0.29306901 0 0 0 0.392579,0.132813 c 0.42285,-0.209791 0.657307,-0.22746 0.9375,-0.201172 0.280192,0.02629 0.617705,0.120006 1.113281,0.134765 a 0.29306901,0.29306901 0 0 0 0.302734,-0.285156 0.29306901,0.29306901 0 0 0 -0.285156,-0.300781 c -0.427092,-0.01272 -0.722205,-0.0996 -1.076172,-0.132813 z"
         id="path7" /></g><g
       id="path4-6-44-7"><path
         style="color:#000000;fill:#ffffff;fill-opacity:0;stroke-linecap:round;stroke-linejoin:round;-inkscape-stroke:none"
         d="m 55.531157,69.653283 c -1.084295,0.342691 -0.67166,0.179937 -1.987173,-0.05445"
         id="path6" /><path
         style="color:#000000;fill:#000000;stroke-linecap:round;stroke-linejoin:round;-inkscape-stroke:none"
         d="m 53.595703,69.310547 a 0.29306901,0.29306901 0 0 0 -0.339844,0.236328 0.29306901,0.29306901 0 0 0 0.236328,0.339844 c 0.641014,0.11421 0.829217,0.209871 1.091797,0.246093 0.131291,0.01811 0.270532,0.01039 0.425782,-0.02344 0.15525,-0.03382 0.337038,-0.08971 0.609375,-0.175781 a 0.29306901,0.29306901 0 0 0 0.191406,-0.369141 0.29306901,0.29306901 0 0 0 -0.367188,-0.191406 c -0.26981,0.08527 -0.443192,0.137392 -0.55664,0.162109 -0.113449,0.02472 -0.15713,0.02662 -0.222657,0.01758 -0.131053,-0.01808 -0.393861,-0.122011 -1.068359,-0.242187 z"
         id="path5" /></g><g
       id="path5-9-7-5"><path
         style="color:#000000;fill:#ffffff;fill-opacity:0;stroke-linecap:round;stroke-linejoin:round;-inkscape-stroke:none"
         d="m 58.709575,69.15934 c -0.779617,0.152729 -1.716813,0.771739 -2.496149,0.652484"
         id="path4" /><path
         style="color:#000000;fill:#000000;stroke-linecap:round;stroke-linejoin:round;-inkscape-stroke:none"
         d="m 58.652344,68.871094 c -0.441371,0.08647 -0.87656,0.287194 -1.292969,0.441406 -0.416409,0.154212 -0.804203,0.254487 -1.101563,0.208984 a 0.29306901,0.29306901 0 0 0 -0.333984,0.246094 0.29306901,0.29306901 0 0 0 0.246094,0.333984 c 0.481976,0.07375 0.950651,-0.07462 1.392578,-0.238281 0.441927,-0.163661 0.864879,-0.349752 1.203125,-0.416015 a 0.29306901,0.29306901 0 0 0 0.232422,-0.34375 0.29306901,0.29306901 0 0 0 -0.345703,-0.232422 z"
         id="path3" /></g><g
       id="path5-5-3-6-9"><path
         style="color:#000000;fill:#ffffff;fill-opacity:0;stroke-linecap:round;stroke-linejoin:round;-inkscape-stroke:none"
         d="m 58.535752,68.729447 c -0.176937,0.560503 -2.290246,1.174496 0.604099,1.138511"
         id="path2" /><path
         style="color:#000000;fill:#000000;stroke-linecap:round;stroke-linejoin:round;-inkscape-stroke:none"
         d="m 58.623047,68.449219 a 0.29306901,0.29306901 0 0 0 -0.367188,0.191406 c 0.0016,-0.0049 -0.116869,0.146823 -0.285156,0.275391 -0.168287,0.128567 -0.358116,0.244455 -0.505859,0.416015 -0.03694,0.04289 -0.07373,0.09014 -0.101563,0.160156 -0.02783,0.07002 -0.04349,0.172229 -0.01172,0.269532 0.06354,0.194605 0.224435,0.26089 0.365235,0.302734 0.281599,0.08369 0.69228,0.104823 1.425781,0.0957 a 0.29306901,0.29306901 0 0 0 0.291016,-0.294922 0.29306901,0.29306901 0 0 0 -0.296875,-0.291015 c -0.560248,0.007 -0.786939,-0.02514 -0.984375,-0.05469 0.068,-0.05233 0.09582,-0.07907 0.173828,-0.138672 0.187274,-0.143073 0.398256,-0.277316 0.488281,-0.5625 a 0.29306901,0.29306901 0 0 0 -0.191406,-0.36914 z"
         id="path1" /></g></g></svg>
