<?xml version="1.0" encoding="UTF-8" standalone="no"?>
<!-- Created with Inkscape (http://www.inkscape.org/) -->

<svg
   width="10.984829mm"
   height="10.984827mm"
   viewBox="0 0 10.984829 10.984827"
   version="1.1"
   id="svg1"
   inkscape:version="1.3 (0e150ed6c4, 2023-07-21)"
   sodipodi:docname="stickman-damage-low-1.svg"
   xml:space="preserve"
   xmlns:inkscape="http://www.inkscape.org/namespaces/inkscape"
   xmlns:sodipodi="http://sodipodi.sourceforge.net/DTD/sodipodi-0.dtd"
   xmlns="http://www.w3.org/2000/svg"
   xmlns:svg="http://www.w3.org/2000/svg"><sodipodi:namedview
     id="namedview1"
     pagecolor="#d5d5d5"
     bordercolor="#ffffff"
     borderopacity="1"
     inkscape:showpageshadow="0"
     inkscape:pageopacity="0"
     inkscape:pagecheckerboard="1"
     inkscape:deskcolor="#505050"
     inkscape:document-units="mm"
     inkscape:zoom="11.313709"
     inkscape:cx="28.902988"
     inkscape:cy="77.958519"
     inkscape:window-width="1236"
     inkscape:window-height="980"
     inkscape:window-x="20"
     inkscape:window-y="20"
     inkscape:window-maximized="1"
     inkscape:current-layer="layer5" /><defs
     id="defs1" /><g
     inkscape:groupmode="layer"
     id="layer2"
     inkscape:label="pipe"
     style="display:none"
     sodipodi:insensitive="true"
     transform="translate(-27.065772,-26.184932)"><g
       id="rect1-2-6-3-1-5-91"><path
         style="color:#000000;fill:#ffffff;fill-opacity:0;stroke-linecap:round;stroke-linejoin:round;-inkscape-stroke:none"
         d="M 27.19536,26.31452 H 37.921015 V 37.040174 H 27.19536 Z"
         id="path24" /><path
         style="color:#000000;fill:#000000;stroke-linecap:round;stroke-linejoin:round;-inkscape-stroke:none"
         d="m 27.195312,26.185547 a 0.12959995,0.12959995 0 0 0 -0.128906,0.128906 v 10.726563 a 0.12959995,0.12959995 0 0 0 0.128906,0.128906 h 10.726563 a 0.12959995,0.12959995 0 0 0 0.128906,-0.128906 V 26.314453 a 0.12959995,0.12959995 0 0 0 -0.128906,-0.128906 z m 0.128907,0.257812 H 37.791016 V 36.910156 H 27.324219 Z"
         id="path23" /></g><g
       id="g13-6-0"
       transform="rotate(108.30741,13.365129,29.705844)"><path
         style="color:#000000;fill:#7d7d7d;stroke-linejoin:round;-inkscape-stroke:none"
         d="m 11.916016,6.1328125 c -0.119886,-5.433e-4 -0.251011,0.023104 -0.371094,0.099609 -0.120083,0.076505 -0.214789,0.2070313 -0.257813,0.3574218 a 0.27252726,0.27252726 0 0 0 -0.002,0.00586 l -1.070312,4.0136719 0.527344,0.140625 1.068359,-4.0097656 0.002,-0.00391 c 0.01052,-0.033668 0.01734,-0.039794 0.02539,-0.044922 0.0087,-0.00556 0.03223,-0.013871 0.07617,-0.013672 0.08788,3.982e-4 0.238258,0.054133 0.310546,0.1035156 L 12.53125,6.3300781 C 12.366738,6.2176954 12.155787,6.133899 11.916016,6.1328125 Z"
         id="path22" /><path
         style="fill:#6b6b6b;stroke-width:0.12999;stroke-linecap:round;stroke-linejoin:round"
         d="m 12.140361,6.7789349 c 0.06413,0.078605 0.139084,0.1394375 0.301539,0.1411685 0.205623,-0.088516 0.290091,-0.2728823 0.26892,-0.5375135 -0.08434,-0.082153 -0.137432,-0.098568 -0.247207,-0.1316705 -0.02293,0.2232532 -0.119099,0.4081872 -0.323252,0.5280155 z"
         id="path21"
         sodipodi:nodetypes="ccccc" /><path
         style="fill:#6b6b6b;stroke-width:0.145;stroke-linejoin:round"
         d="m 10.255916,10.439503 0.574862,0.136707 c 0.0086,0.128676 0.01728,0.05673 -0.04313,0.188625 -0.213561,0.0053 -0.4762,-0.05665 -0.572602,-0.158117 -0.02129,-0.10629 -0.02943,-0.10343 0.04087,-0.167215 z"
         id="path20"
         sodipodi:nodetypes="ccccc" /></g></g><g
     inkscape:groupmode="layer"
     id="layer3"
     inkscape:label="pistol"
     style="display:none"
     transform="translate(-27.065772,-26.184932)"><g
       id="rect1-2-6-3-6-7-8-2"><path
         style="color:#000000;fill:#ffffff;fill-opacity:0;stroke-linecap:round;stroke-linejoin:round;-inkscape-stroke:none"
         d="M 27.195358,26.31452 H 37.921013 V 37.040174 H 27.195358 Z"
         id="path19" /><path
         style="color:#000000;fill:#000000;stroke-linecap:round;stroke-linejoin:round;-inkscape-stroke:none"
         d="m 27.195312,26.185547 a 0.12959995,0.12959995 0 0 0 -0.128906,0.128906 v 10.726563 a 0.12959995,0.12959995 0 0 0 0.128906,0.128906 h 10.726563 a 0.12959995,0.12959995 0 0 0 0.128906,-0.128906 V 26.314453 a 0.12959995,0.12959995 0 0 0 -0.128906,-0.128906 z m 0.128907,0.257812 H 37.791016 V 36.910156 H 27.324219 Z"
         id="path18" /></g><g
       id="g17-0-3-5"
       transform="matrix(0.7261462,0.70359105,-0.68037593,0.71513324,30.174509,19.507932)"><g
         id="g16-8-0-7"><path
           style="color:#000000;fill:#404040;stroke-linejoin:round;-inkscape-stroke:none"
           d="m 12.451172,7.6035156 -0.05078,0.2402344 -0.363282,0.013672 0.0059,0.1464844 0.419922,-0.017578 a 0.07250725,0.07250725 0 0 0 0.06836,-0.058594 l 0.06055,-0.2949219 z"
           id="path17" /></g><rect
         style="fill:#6a3300;stroke-width:0.204747;stroke-linejoin:round"
         id="rect17"
         width="0.51746899"
         height="1.0753255"
         x="12.692005"
         y="4.2797461"
         ry="0.11806334"
         transform="matrix(0.96658012,0.25636474,-0.14489159,0.98944754,0,0)" /><rect
         style="fill:#909090;stroke-width:0.145;stroke-linejoin:round"
         id="rect16"
         width="1.7168922"
         height="0.376816"
         x="11.623376"
         y="7.3263092" /><rect
         style="fill:#303030;stroke-width:0.145;stroke-linejoin:round"
         id="rect15"
         width="0.059829496"
         height="0.13378662"
         x="13.340268"
         y="7.3263092" /><rect
         style="fill:#676767;stroke-width:0.125349;stroke-linejoin:round"
         id="rect14"
         width="0.4603602"
         height="0.188408"
         x="12.132112"
         y="7.3260527" /></g></g><g
     inkscape:label="stickman"
     inkscape:groupmode="layer"
     id="layer1"
     transform="translate(-27.065772,-26.184932)"><g
       id="rect1-4-61"
       style="opacity:0"><path
         style="color:#000000;fill:#ffffff;fill-opacity:0;stroke-linecap:round;stroke-linejoin:round;-inkscape-stroke:none"
         d="M 27.195358,26.31452 H 37.921013 V 37.040174 H 27.195358 Z"
         id="path14" /><path
         style="color:#000000;fill:#000000;stroke-linecap:round;stroke-linejoin:round;-inkscape-stroke:none"
         d="m 27.195312,26.185547 a 0.12959995,0.12959995 0 0 0 -0.128906,0.128906 v 10.726563 a 0.12959995,0.12959995 0 0 0 0.128906,0.128906 h 10.726563 a 0.12959995,0.12959995 0 0 0 0.128906,-0.128906 V 26.314453 a 0.12959995,0.12959995 0 0 0 -0.128906,-0.128906 z m 0.128907,0.257812 H 37.791016 V 36.910156 H 27.324219 Z"
         id="path13" /></g><g
       id="path1-7-0"
       transform="rotate(12.038386)"><path
         style="color:#000000;fill:#ffffff;fill-opacity:0;stroke-linecap:round;stroke-linejoin:round;-inkscape-stroke:none"
         d="m 40.356121,21.457396 a 1.5453528,1.5453528 0 0 1 -1.545353,1.545352 1.5453528,1.5453528 0 0 1 -1.545353,-1.545352 1.5453528,1.5453528 0 0 1 1.545353,-1.545353 1.5453528,1.5453528 0 0 1 1.545353,1.545353 z"
         id="path12" /><path
         style="color:#000000;fill:#000000;stroke-linecap:round;stroke-linejoin:round;-inkscape-stroke:none"
         d="m 38.810547,19.619141 c -1.01186,0 -1.837891,0.82603 -1.837891,1.83789 0,1.01186 0.826031,1.837891 1.837891,1.837891 1.01186,0 1.837891,-0.826031 1.83789,-1.837891 0,-1.01186 -0.82603,-1.83789 -1.83789,-1.83789 z m 0,0.585937 c 0.695088,0 1.251953,0.556865 1.251953,1.251953 0,0.695088 -0.556865,1.251953 -1.251953,1.251953 -0.695088,0 -1.251953,-0.556865 -1.251953,-1.251953 0,-0.695088 0.556865,-1.251953 1.251953,-1.251953 z"
         id="path11" /></g><g
       id="path2-6-6"><path
         style="color:#000000;fill:#ffffff;fill-opacity:0;stroke-linecap:round;stroke-linejoin:round;-inkscape-stroke:none"
         d="m 32.604613,30.66108 c -1.109188,1.394452 -0.570304,2.221928 -0.242645,3.250723"
         id="path10" /><path
         style="color:#000000;fill:#000000;stroke-linecap:round;stroke-linejoin:round;-inkscape-stroke:none"
         d="M 32.787109,30.431641 A 0.29306901,0.29306901 0 0 0 32.375,30.478516 c -0.586568,0.737423 -0.764739,1.387464 -0.722656,1.966796 0.04208,0.579333 0.273061,1.062909 0.429687,1.554688 a 0.29306901,0.29306901 0 0 0 0.369141,0.191406 0.29306901,0.29306901 0 0 0 0.189453,-0.36914 c -0.171033,-0.537015 -0.37232,-0.979706 -0.404297,-1.419922 -0.03198,-0.440217 0.07504,-0.901567 0.597656,-1.558594 a 0.29306901,0.29306901 0 0 0 -0.04687,-0.412109 z"
         id="path9" /></g><g
       id="path3-5-1"><path
         style="color:#000000;fill:#ffffff;fill-opacity:0;stroke-linecap:round;stroke-linejoin:round;-inkscape-stroke:none"
         d="m 32.308706,33.765443 c -0.01448,0.979608 -0.101729,2.030991 -0.635187,2.853522"
         id="path8" /><path
         style="color:#000000;fill:#000000;stroke-linecap:round;stroke-linejoin:round;-inkscape-stroke:none"
         d="m 32.3125,33.472656 a 0.29306901,0.29306901 0 0 0 -0.296875,0.289063 c -0.01427,0.96531 -0.108534,1.958152 -0.587891,2.697265 a 0.29306901,0.29306901 0 0 0 0.08594,0.40625 0.29306901,0.29306901 0 0 0 0.40625,-0.08594 c 0.587558,-0.905947 0.666949,-2.015862 0.68164,-3.009766 A 0.29306901,0.29306901 0 0 0 32.3125,33.472656 Z"
         id="path7" /></g><g
       id="path4-6-5"><path
         style="color:#000000;fill:#ffffff;fill-opacity:0;stroke-linecap:round;stroke-linejoin:round;-inkscape-stroke:none"
         d="m 32.405345,33.928752 c 0.963851,0.914134 1.071469,1.799683 1.133526,2.713817"
         id="path6" /><path
         style="color:#000000;fill:#000000;stroke-linecap:round;stroke-linejoin:round;-inkscape-stroke:none"
         d="m 32.607422,33.716797 a 0.29306901,0.29306901 0 0 0 -0.414063,0.0098 0.29306901,0.29306901 0 0 0 0.0098,0.414063 c 0.903185,0.856597 0.981596,1.617434 1.042969,2.521484 a 0.29306901,0.29306901 0 0 0 0.3125,0.273438 0.29306901,0.29306901 0 0 0 0.273437,-0.3125 c -0.06274,-0.924216 -0.200094,-1.934581 -1.224609,-2.90625 z"
         id="path5" /></g><g
       id="path5-9-9"><path
         style="color:#000000;fill:#ffffff;fill-opacity:0;stroke-linecap:round;stroke-linejoin:round;-inkscape-stroke:none"
         d="m 32.267689,30.701925 c -0.894654,0.865463 -0.630463,2.196357 -0.749712,2.975693"
         id="path4" /><path
         style="color:#000000;fill:#000000;stroke-linecap:round;stroke-linejoin:round;-inkscape-stroke:none"
         d="m 32.273437,30.408203 a 0.29306901,0.29306901 0 0 0 -0.208984,0.08398 c -1.023288,0.989901 -0.734023,2.474575 -0.835937,3.140625 a 0.29306901,0.29306901 0 0 0 0.246093,0.333985 0.29306901,0.29306901 0 0 0 0.333985,-0.244141 c 0.136583,-0.892619 -0.103909,-2.069523 0.662109,-2.810547 a 0.29306901,0.29306901 0 0 0 0.0078,-0.414062 0.29306901,0.29306901 0 0 0 -0.205079,-0.08984 z"
         id="path3" /></g><g
       id="path5-5-3-49"><path
         style="color:#000000;fill:#ffffff;fill-opacity:0;stroke-linecap:round;stroke-linejoin:round;-inkscape-stroke:none"
         d="m 32.450131,30.668666 c 0.240714,0.433035 -0.233727,1.884649 0.882909,3.00713"
         id="path2" /><path
         style="color:#000000;fill:#000000;stroke-linecap:round;stroke-linejoin:round;-inkscape-stroke:none"
         d="m 32.308594,30.412109 a 0.29306901,0.29306901 0 0 0 -0.115235,0.398438 c 0.0065,0.01175 0.04035,0.155914 0.04687,0.361328 0.0065,0.205414 0.0041,0.471321 0.03125,0.767578 0.05428,0.592514 0.236014,1.322625 0.853516,1.943359 a 0.29306901,0.29306901 0 0 0 0.414062,0 0.29306901,0.29306901 0 0 0 0.002,-0.414062 c -0.499133,-0.501745 -0.637711,-1.05986 -0.685547,-1.582031 -0.02392,-0.261086 -0.02219,-0.50879 -0.0293,-0.732422 -0.0071,-0.223632 -0.0053,-0.424141 -0.119141,-0.628906 a 0.29306901,0.29306901 0 0 0 -0.398437,-0.113282 z"
         id="path1" /></g></g></svg>
