<?xml version="1.0" encoding="UTF-8" standalone="no"?>
<!-- Created with Inkscape (http://www.inkscape.org/) -->

<svg
   width="10.984831mm"
   height="10.984831mm"
   viewBox="0 0 10.984831 10.984831"
   version="1.1"
   id="svg1"
   inkscape:version="1.3 (0e150ed6c4, 2023-07-21)"
   sodipodi:docname="stickman-damage-high-2.svg"
   xml:space="preserve"
   xmlns:inkscape="http://www.inkscape.org/namespaces/inkscape"
   xmlns:sodipodi="http://sodipodi.sourceforge.net/DTD/sodipodi-0.dtd"
   xmlns="http://www.w3.org/2000/svg"
   xmlns:svg="http://www.w3.org/2000/svg"><sodipodi:namedview
     id="namedview1"
     pagecolor="#d5d5d5"
     bordercolor="#ffffff"
     borderopacity="1"
     inkscape:showpageshadow="0"
     inkscape:pageopacity="0"
     inkscape:pagecheckerboard="1"
     inkscape:deskcolor="#505050"
     inkscape:document-units="mm"
     inkscape:zoom="11.313709"
     inkscape:cx="28.902988"
     inkscape:cy="77.958519"
     inkscape:window-width="1236"
     inkscape:window-height="980"
     inkscape:window-x="20"
     inkscape:window-y="20"
     inkscape:window-maximized="1"
     inkscape:current-layer="layer5" /><defs
     id="defs1" /><g
     inkscape:groupmode="layer"
     id="layer2"
     inkscape:label="pipe"
     style="display:none"
     transform="translate(-38.984555,-38.012439)"><g
       id="rect1-2-6-3-1-5-91-8-4-0"><path
         style="color:#000000;fill:#ffffff;fill-opacity:0;stroke-linecap:round;stroke-linejoin:round;-inkscape-stroke:none"
         d="M 39.114143,38.142029 H 49.839798 V 48.867683 H 39.114143 Z"
         id="path24" /><path
         style="color:#000000;fill:#000000;stroke-linecap:round;stroke-linejoin:round;-inkscape-stroke:none"
         d="m 39.113281,38.011719 a 0.12959995,0.12959995 0 0 0 -0.128906,0.130859 v 10.724609 a 0.12959995,0.12959995 0 0 0 0.128906,0.13086 h 10.726563 a 0.12959995,0.12959995 0 0 0 0.128906,-0.13086 V 38.142578 a 0.12959995,0.12959995 0 0 0 -0.128906,-0.130859 z m 0.13086,0.259765 H 49.710937 V 48.738281 H 39.244141 Z"
         id="path23" /></g><g
       id="g13-6-0-0-2-9"
       transform="rotate(109.81874,15.467479,39.368626)"><path
         style="color:#000000;fill:#7d7d7d;stroke-linejoin:round;-inkscape-stroke:none"
         d="m 11.916016,6.1328125 c -0.119886,-5.433e-4 -0.251011,0.023104 -0.371094,0.099609 -0.120083,0.076505 -0.214789,0.2070313 -0.257813,0.3574218 a 0.27252726,0.27252726 0 0 0 -0.002,0.00586 l -1.070312,4.0136719 0.527344,0.140625 1.068359,-4.0097656 0.002,-0.00391 c 0.01052,-0.033668 0.01734,-0.039794 0.02539,-0.044922 0.0087,-0.00556 0.03223,-0.013871 0.07617,-0.013672 0.08788,3.982e-4 0.238258,0.054133 0.310546,0.1035156 L 12.53125,6.3300781 C 12.366738,6.2176954 12.155787,6.133899 11.916016,6.1328125 Z"
         id="path22" /><path
         style="fill:#6b6b6b;stroke-width:0.12999;stroke-linecap:round;stroke-linejoin:round"
         d="m 12.140361,6.7789349 c 0.06413,0.078605 0.139084,0.1394375 0.301539,0.1411685 0.205623,-0.088516 0.290091,-0.2728823 0.26892,-0.5375135 -0.08434,-0.082153 -0.137432,-0.098568 -0.247207,-0.1316705 -0.02293,0.2232532 -0.119099,0.4081872 -0.323252,0.5280155 z"
         id="path21"
         sodipodi:nodetypes="ccccc" /><path
         style="fill:#6b6b6b;stroke-width:0.145;stroke-linejoin:round"
         d="m 10.255916,10.439503 0.574862,0.136707 c 0.0086,0.128676 0.01728,0.05673 -0.04313,0.188625 -0.213561,0.0053 -0.4762,-0.05665 -0.572602,-0.158117 -0.02129,-0.10629 -0.02943,-0.10343 0.04087,-0.167215 z"
         id="path20"
         sodipodi:nodetypes="ccccc" /></g></g><g
     inkscape:groupmode="layer"
     id="layer3"
     inkscape:label="pistol"
     style="display:none"
     sodipodi:insensitive="true"
     transform="translate(-38.984555,-38.012439)"><g
       id="rect1-2-6-3-6-7-8-2-4-6"><path
         style="color:#000000;fill:#ffffff;fill-opacity:0;stroke-linecap:round;stroke-linejoin:round;-inkscape-stroke:none"
         d="M 39.114143,38.142025 H 49.839798 V 48.86768 H 39.114143 Z"
         id="path19" /><path
         style="color:#000000;fill:#000000;stroke-linecap:round;stroke-linejoin:round;-inkscape-stroke:none"
         d="m 39.113281,38.011719 a 0.12959995,0.12959995 0 0 0 -0.128906,0.130859 v 10.724609 a 0.12959995,0.12959995 0 0 0 0.128906,0.13086 h 10.726563 a 0.12959995,0.12959995 0 0 0 0.128906,-0.13086 V 38.142578 a 0.12959995,0.12959995 0 0 0 -0.128906,-0.130859 z m 0.13086,0.259765 H 49.710937 V 48.738281 H 39.244141 Z"
         id="path18" /></g><g
       id="g17-0-3-5-06-4"
       transform="matrix(0.68024865,0.74805777,-0.72419332,0.67072423,42.866515,30.68422)"><g
         id="g16-8-0-7-4-6"><path
           style="color:#000000;fill:#404040;stroke-linejoin:round;-inkscape-stroke:none"
           d="m 12.451172,7.6035156 -0.05078,0.2402344 -0.363282,0.013672 0.0059,0.1464844 0.419922,-0.017578 a 0.07250725,0.07250725 0 0 0 0.06836,-0.058594 l 0.06055,-0.2949219 z"
           id="path17" /></g><rect
         style="fill:#6a3300;stroke-width:0.204747;stroke-linejoin:round"
         id="rect17"
         width="0.51746899"
         height="1.0753255"
         x="12.692005"
         y="4.2797461"
         ry="0.11806334"
         transform="matrix(0.96658012,0.25636474,-0.14489159,0.98944754,0,0)" /><rect
         style="fill:#909090;stroke-width:0.145;stroke-linejoin:round"
         id="rect16"
         width="1.7168922"
         height="0.376816"
         x="11.623376"
         y="7.3263092" /><rect
         style="fill:#303030;stroke-width:0.145;stroke-linejoin:round"
         id="rect15"
         width="0.059829496"
         height="0.13378662"
         x="13.340268"
         y="7.3263092" /><rect
         style="fill:#676767;stroke-width:0.125349;stroke-linejoin:round"
         id="rect14"
         width="0.4603602"
         height="0.188408"
         x="12.132112"
         y="7.3260527" /></g></g><g
     inkscape:label="stickman"
     inkscape:groupmode="layer"
     id="layer1"
     transform="translate(-38.984555,-38.012439)"><g
       id="rect1-4-61-3-4"
       style="opacity:0"><path
         style="color:#000000;fill:#ffffff;fill-opacity:0;stroke-linecap:round;stroke-linejoin:round;-inkscape-stroke:none"
         d="M 39.114143,38.142025 H 49.839798 V 48.86768 H 39.114143 Z"
         id="path14" /><path
         style="color:#000000;fill:#000000;stroke-linecap:round;stroke-linejoin:round;-inkscape-stroke:none"
         d="m 39.113281,38.011719 a 0.12959995,0.12959995 0 0 0 -0.128906,0.130859 v 10.724609 a 0.12959995,0.12959995 0 0 0 0.128906,0.13086 h 10.726563 a 0.12959995,0.12959995 0 0 0 0.128906,-0.13086 V 38.142578 a 0.12959995,0.12959995 0 0 0 -0.128906,-0.130859 z m 0.13086,0.259765 H 49.710937 V 48.738281 H 39.244141 Z"
         id="path13" /></g><g
       id="path1-7-0-6-6"
       transform="rotate(12.038386)"><path
         style="color:#000000;fill:#ffffff;fill-opacity:0;stroke-linecap:round;stroke-linejoin:round;-inkscape-stroke:none"
         d="m 52.896213,30.443735 a 1.5453528,1.5453528 0 0 1 -1.545352,1.545353 1.5453528,1.5453528 0 0 1 -1.545353,-1.545353 1.5453528,1.5453528 0 0 1 1.545353,-1.545353 1.5453528,1.5453528 0 0 1 1.545352,1.545353 z"
         id="path12" /><path
         style="color:#000000;fill:#000000;stroke-linecap:round;stroke-linejoin:round;-inkscape-stroke:none"
         d="m 51.351562,28.605469 c -1.01186,0 -1.839843,0.82603 -1.839843,1.83789 0,1.01186 0.827983,1.837891 1.839843,1.837891 1.011861,0 1.837891,-0.826031 1.837891,-1.837891 0,-1.01186 -0.82603,-1.83789 -1.837891,-1.83789 z m 0,0.585937 c 0.695088,0 1.251954,0.556866 1.251954,1.251953 0,0.695088 -0.556866,1.251953 -1.251954,1.251953 -0.695087,0 -1.253906,-0.556865 -1.253906,-1.251953 0,-0.695087 0.558819,-1.251953 1.253906,-1.251953 z"
         id="path11" /></g><g
       id="path2-6-6-5-9"><path
         style="color:#000000;fill:#ffffff;fill-opacity:0;stroke-linecap:round;stroke-linejoin:round;-inkscape-stroke:none"
         d="m 43.996245,42.282632 c 0.457798,1.573277 0.244356,2.427885 0.284509,3.45668"
         id="path10" /><path
         style="color:#000000;fill:#000000;stroke-linecap:round;stroke-linejoin:round;-inkscape-stroke:none"
         d="m 43.914062,42.001953 a 0.29306901,0.29306901 0 0 0 -0.199218,0.363281 c 0.443015,1.522474 0.231459,2.30921 0.273437,3.384766 a 0.29306901,0.29306901 0 0 0 0.304688,0.28125 0.29306901,0.29306901 0 0 0 0.28125,-0.302734 c -0.03833,-0.982032 0.175705,-1.903267 -0.296875,-3.527344 a 0.29306901,0.29306901 0 0 0 -0.363282,-0.199219 z"
         id="path9" /></g><g
       id="path3-5-1-6-2"><path
         style="color:#000000;fill:#ffffff;fill-opacity:0;stroke-linecap:round;stroke-linejoin:round;-inkscape-stroke:none"
         d="m 44.227492,45.592952 c -0.01448,0.979608 -0.06434,1.966728 -0.455937,2.923157"
         id="path8" /><path
         style="color:#000000;fill:#000000;stroke-linecap:round;stroke-linejoin:round;-inkscape-stroke:none"
         d="m 44.232422,45.300781 a 0.29306901,0.29306901 0 0 0 -0.298828,0.28711 C 43.919218,46.560466 43.86811,47.505233 43.5,48.404297 a 0.29306901,0.29306901 0 0 0 0.160156,0.382812 0.29306901,0.29306901 0 0 0 0.382813,-0.160156 c 0.415083,-1.013792 0.463931,-2.042658 0.478515,-3.029297 a 0.29306901,0.29306901 0 0 0 -0.289062,-0.296875 z"
         id="path7" /></g><g
       id="path4-6-5-3-2"><path
         style="color:#000000;fill:#ffffff;fill-opacity:0;stroke-linecap:round;stroke-linejoin:round;-inkscape-stroke:none"
         d="m 44.324131,45.756261 c 0.668492,0.971307 0.715636,1.494688 0.777693,2.408822"
         id="path6" /><path
         style="color:#000000;fill:#000000;stroke-linecap:round;stroke-linejoin:round;-inkscape-stroke:none"
         d="m 44.158203,45.515625 a 0.29306901,0.29306901 0 0 0 -0.07617,0.40625 c 0.644265,0.936105 0.664673,1.352004 0.726563,2.263672 a 0.29306901,0.29306901 0 0 0 0.3125,0.271484 0.29306901,0.29306901 0 0 0 0.273437,-0.3125 c -0.06222,-0.916598 -0.135407,-1.54818 -0.828125,-2.554687 a 0.29306901,0.29306901 0 0 0 -0.408203,-0.07422 z"
         id="path5" /></g><g
       id="path5-9-9-94-4"><path
         style="color:#000000;fill:#ffffff;fill-opacity:0;stroke-linecap:round;stroke-linejoin:round;-inkscape-stroke:none"
         d="m 44.041554,42.563389 c -0.34199,1.131629 -0.402958,2.013718 0.05509,2.899923"
         id="path4" /><path
         style="color:#000000;fill:#000000;stroke-linecap:round;stroke-linejoin:round;-inkscape-stroke:none"
         d="m 44.126953,42.283203 a 0.29306901,0.29306901 0 0 0 -0.365234,0.195313 c -0.3514,1.162765 -0.425122,2.153045 0.07422,3.11914 a 0.29306901,0.29306901 0 0 0 0.394532,0.126953 0.29306901,0.29306901 0 0 0 0.126953,-0.396484 c -0.416755,-0.806313 -0.367736,-1.579197 -0.03516,-2.679688 a 0.29306901,0.29306901 0 0 0 -0.195313,-0.365234 z"
         id="path3" /></g><g
       id="path5-5-3-49-8-7"><path
         style="color:#000000;fill:#ffffff;fill-opacity:0;stroke-linecap:round;stroke-linejoin:round;-inkscape-stroke:none"
         d="m 44.149106,42.576986 c 0.240714,0.433035 0.301898,1.394774 1.023659,2.604727"
         id="path2" /><path
         style="color:#000000;fill:#000000;stroke-linecap:round;stroke-linejoin:round;-inkscape-stroke:none"
         d="m 44.005859,42.320312 a 0.29306901,0.29306901 0 0 0 -0.113281,0.398438 c 0.08072,0.145205 0.167464,0.49753 0.306641,0.955078 0.139176,0.457548 0.346141,1.027017 0.722656,1.658203 a 0.29306901,0.29306901 0 0 0 0.400391,0.101563 0.29306901,0.29306901 0 0 0 0.101562,-0.402344 c -0.345245,-0.578766 -0.530075,-1.095229 -0.662109,-1.529297 -0.132034,-0.434068 -0.197424,-0.778576 -0.357422,-1.066406 a 0.29306901,0.29306901 0 0 0 -0.398438,-0.115235 z"
         id="path1" /></g></g></svg>
