<?xml version="1.0" encoding="UTF-8" standalone="no"?>
<!-- Created with Inkscape (http://www.inkscape.org/) -->

<svg
   width="10.984831mm"
   height="10.984827mm"
   viewBox="0 0 10.984831 10.984827"
   version="1.1"
   id="svg1"
   inkscape:version="1.3 (0e150ed6c4, 2023-07-21)"
   sodipodi:docname="stickman-aim-1.svg"
   xml:space="preserve"
   xmlns:inkscape="http://www.inkscape.org/namespaces/inkscape"
   xmlns:sodipodi="http://sodipodi.sourceforge.net/DTD/sodipodi-0.dtd"
   xmlns="http://www.w3.org/2000/svg"
   xmlns:svg="http://www.w3.org/2000/svg"><sodipodi:namedview
     id="namedview1"
     pagecolor="#505050"
     bordercolor="#ffffff"
     borderopacity="1"
     inkscape:showpageshadow="0"
     inkscape:pageopacity="0"
     inkscape:pagecheckerboard="1"
     inkscape:deskcolor="#505050"
     inkscape:document-units="mm"
     inkscape:zoom="5.6568543"
     inkscape:cx="62.04862"
     inkscape:cy="24.218407"
     inkscape:window-width="1236"
     inkscape:window-height="980"
     inkscape:window-x="20"
     inkscape:window-y="20"
     inkscape:window-maximized="1"
     inkscape:current-layer="layer3" /><defs
     id="defs1" /><g
     inkscape:label="stickman"
     inkscape:groupmode="layer"
     id="layer1"
     transform="translate(-38.899697,-94.328519)"><g
       id="rect1-4-7-7"
       style="opacity:0"><path
         style="color:#000000;fill:#ffffff;fill-opacity:0;stroke-linecap:round;stroke-linejoin:round;-inkscape-stroke:none"
         d="M 39.029285,94.458107 H 49.75494 V 105.18376 H 39.029285 Z"
         id="path1" /><path
         style="color:#000000;fill:#000000;stroke-linecap:round;stroke-linejoin:round;-inkscape-stroke:none"
         d="m 39.029297,94.328125 a 0.12959995,0.12959995 0 0 0 -0.128906,0.130859 v 10.724606 a 0.12959995,0.12959995 0 0 0 0.128906,0.12891 h 10.726562 a 0.12959995,0.12959995 0 0 0 0.128907,-0.12891 V 94.458984 a 0.12959995,0.12959995 0 0 0 -0.128907,-0.130859 z m 0.128906,0.259766 H 49.625 V 105.05469 H 39.158203 Z"
         id="path2" /></g><g
       id="path1-7-2-6"><path
         style="color:#000000;fill:#ffffff;fill-opacity:0;stroke-linecap:round;stroke-linejoin:round;-inkscape-stroke:none"
         d="m 45.777607,96.820183 a 1.5453528,1.5453528 0 0 1 -1.545353,1.545353 1.5453528,1.5453528 0 0 1 -1.545353,-1.545353 1.5453528,1.5453528 0 0 1 1.545353,-1.545353 1.5453528,1.5453528 0 0 1 1.545353,1.545353 z"
         id="path3" /><path
         style="color:#000000;fill:#000000;stroke-linecap:round;stroke-linejoin:round;-inkscape-stroke:none"
         d="m 44.232422,94.982422 c -1.01186,0 -1.837891,0.82603 -1.837891,1.83789 0,1.011861 0.826031,1.837891 1.837891,1.837891 1.01186,0 1.83789,-0.82603 1.83789,-1.837891 0,-1.01186 -0.82603,-1.83789 -1.83789,-1.83789 z m 0,0.585937 c 0.695088,0 1.251953,0.556866 1.251953,1.251953 0,0.695088 -0.556865,1.251954 -1.251953,1.251954 -0.695088,0 -1.251953,-0.556866 -1.251953,-1.251954 0,-0.695087 0.556865,-1.251953 1.251953,-1.251953 z"
         id="path4" /></g><g
       id="path2-6-5-3"><path
         style="color:#000000;fill:#ffffff;fill-opacity:0;stroke-linecap:round;stroke-linejoin:round;-inkscape-stroke:none"
         d="m 44.195892,98.426354 v 3.629036"
         id="path5" /><path
         style="color:#000000;fill:#000000;stroke-linecap:round;stroke-linejoin:round;-inkscape-stroke:none"
         d="m 44.195312,98.132812 a 0.29306901,0.29306901 0 0 0 -0.292968,0.292969 v 3.628909 a 0.29306901,0.29306901 0 0 0 0.292968,0.29297 0.29306901,0.29306901 0 0 0 0.292969,-0.29297 v -3.628909 a 0.29306901,0.29306901 0 0 0 -0.292969,-0.292969 z"
         id="path6" /></g><g
       id="path3-5-89-5"><path
         style="color:#000000;fill:#ffffff;fill-opacity:0;stroke-linecap:round;stroke-linejoin:round;-inkscape-stroke:none"
         d="m 44.196627,102.01917 -0.689183,2.74338"
         id="path7" /><path
         style="color:#000000;fill:#000000;stroke-linecap:round;stroke-linejoin:round;-inkscape-stroke:none"
         d="m 44.267578,101.73438 a 0.29306901,0.29306901 0 0 0 -0.355469,0.21289 l -0.689453,2.74414 a 0.29306901,0.29306901 0 0 0 0.212891,0.35547 0.29306901,0.29306901 0 0 0 0.355469,-0.2129 l 0.689453,-2.74414 a 0.29306901,0.29306901 0 0 0 -0.212891,-0.35546 z"
         id="path8" /></g><g
       id="path4-6-0-0"><path
         style="color:#000000;fill:#ffffff;fill-opacity:0;stroke-linecap:round;stroke-linejoin:round;-inkscape-stroke:none"
         d="m 44.201816,102.01516 0.737752,2.74241"
         id="path9" /><path
         style="color:#000000;fill:#000000;stroke-linecap:round;stroke-linejoin:round;-inkscape-stroke:none"
         d="m 44.125,101.73242 a 0.29306901,0.29306901 0 0 0 -0.207031,0.35938 l 0.738281,2.74218 a 0.29306901,0.29306901 0 0 0 0.359375,0.20704 0.29306901,0.29306901 0 0 0 0.207031,-0.35938 l -0.738281,-2.74219 A 0.29306901,0.29306901 0 0 0 44.125,101.73242 Z"
         id="path10" /></g><g
       id="path5-9-2-8"><path
         style="color:#000000;fill:#ffffff;fill-opacity:0;stroke-linecap:round;stroke-linejoin:round;-inkscape-stroke:none"
         d="m 44.101613,98.845515 c -0.566994,0.96543 0.821908,1.301455 2.151873,1.163095"
         id="path11" /><path
         style="color:#000000;fill:#000000;stroke-linecap:round;stroke-linejoin:round;-inkscape-stroke:none"
         d="m 44.027344,98.5625 a 0.29306901,0.29306901 0 0 0 -0.177735,0.134766 c -0.171967,0.292812 -0.220853,0.610222 -0.107422,0.873046 0.113432,0.262825 0.346993,0.429928 0.609375,0.541018 0.524765,0.22218 1.231929,0.26224 1.931641,0.18945 a 0.29306901,0.29306901 0 0 0 0.261719,-0.322264 0.29306901,0.29306901 0 0 0 -0.322266,-0.261719 c -0.630252,0.06557 -1.28215,0.0061 -1.642578,-0.146485 -0.180214,-0.0763 -0.269746,-0.165038 -0.298828,-0.232421 -0.02908,-0.06738 -0.03926,-0.153848 0.07227,-0.34375 A 0.29306901,0.29306901 0 0 0 44.25,98.59375 0.29306901,0.29306901 0 0 0 44.027344,98.5625 Z"
         id="path12" /></g><g
       id="path5-5-3-4-0"><path
         style="color:#000000;fill:#ffffff;fill-opacity:0;stroke-linecap:round;stroke-linejoin:round;-inkscape-stroke:none"
         d="m 44.284056,98.812255 c 0.363825,0.39052 0.816245,0.63366 2.135565,1.06813"
         id="path13" /><path
         style="color:#000000;fill:#000000;stroke-linecap:round;stroke-linejoin:round;-inkscape-stroke:none"
         d="m 44.083984,98.597656 a 0.29306901,0.29306901 0 0 0 -0.01367,0.414063 c 0.405068,0.434789 0.926547,0.70808 2.257813,1.146481 a 0.29306901,0.29306901 0 0 0 0.369141,-0.185544 0.29306901,0.29306901 0 0 0 -0.185547,-0.371094 c -1.307371,-0.430535 -1.691091,-0.64203 -2.013672,-0.988281 a 0.29306901,0.29306901 0 0 0 -0.414063,-0.01563 z"
         id="path14" /></g></g></svg>
