<?xml version="1.0" encoding="UTF-8" standalone="no"?>
<!-- Created with Inkscape (http://www.inkscape.org/) -->

<svg
   width="10.984827mm"
   height="10.984831mm"
   viewBox="0 0 10.984827 10.984831"
   version="1.1"
   id="svg1"
   inkscape:version="1.3 (0e150ed6c4, 2023-07-21)"
   sodipodi:docname="pistol-death-1.svg"
   xml:space="preserve"
   xmlns:inkscape="http://www.inkscape.org/namespaces/inkscape"
   xmlns:sodipodi="http://sodipodi.sourceforge.net/DTD/sodipodi-0.dtd"
   xmlns="http://www.w3.org/2000/svg"
   xmlns:svg="http://www.w3.org/2000/svg"><sodipodi:namedview
     id="namedview1"
     pagecolor="#505050"
     bordercolor="#ffffff"
     borderopacity="1"
     inkscape:showpageshadow="0"
     inkscape:pageopacity="0"
     inkscape:pagecheckerboard="1"
     inkscape:deskcolor="#505050"
     inkscape:document-units="mm"
     inkscape:zoom="5.6568543"
     inkscape:cx="62.04862"
     inkscape:cy="24.218407"
     inkscape:window-width="1236"
     inkscape:window-height="980"
     inkscape:window-x="20"
     inkscape:window-y="20"
     inkscape:window-maximized="1"
     inkscape:current-layer="layer3" /><defs
     id="defs1" /><g
     inkscape:groupmode="layer"
     id="layer3"
     inkscape:label="pistol"
     transform="translate(-39.216992,-59.100249)"><g
       id="rect1-2-6-3-6-7-8-2-4-0-9"
       style="opacity:0"><path
         style="color:#000000;fill:#ffffff;fill-opacity:0;stroke-linecap:round;stroke-linejoin:round;-inkscape-stroke:none"
         d="M 39.346581,59.229836 H 50.072235 V 69.95549 H 39.346581 Z"
         id="path1" /><path
         style="color:#000000;fill:#000000;stroke-linecap:round;stroke-linejoin:round;-inkscape-stroke:none"
         d="m 39.345703,59.099609 a 0.12959995,0.12959995 0 0 0 -0.128906,0.13086 v 10.724609 a 0.12959995,0.12959995 0 0 0 0.128906,0.130859 h 10.726563 a 0.12959995,0.12959995 0 0 0 0.128906,-0.130859 V 59.230469 a 0.12959995,0.12959995 0 0 0 -0.128906,-0.13086 z m 0.130859,0.259766 H 49.943359 V 69.826172 H 39.476562 Z"
         id="path2" /></g><g
       id="g17-0-3-5-06-1-0"
       transform="matrix(0.81609344,0.59692558,-0.57544763,0.80198939,40.913594,55.671202)"><g
         id="g16-8-0-7-4-3-9"><path
           style="color:#000000;fill:#404040;stroke-linejoin:round;-inkscape-stroke:none"
           d="m 12.451172,7.6035156 -0.05078,0.2402344 -0.363282,0.013672 0.0059,0.1464844 0.419922,-0.017578 a 0.07250725,0.07250725 0 0 0 0.06836,-0.058594 l 0.06055,-0.2949219 z"
           id="path16-6-1-4-7-7-9" /></g><rect
         style="fill:#6a3300;stroke-width:0.204747;stroke-linejoin:round"
         id="rect16-2-7-9-4-7-4"
         width="0.51746899"
         height="1.0753255"
         x="12.692005"
         y="4.2797461"
         ry="0.11806334"
         transform="matrix(0.96658012,0.25636474,-0.14489159,0.98944754,0,0)" /><rect
         style="fill:#909090;stroke-width:0.145;stroke-linejoin:round"
         id="rect13-4-8-9-8-2-5"
         width="1.7168922"
         height="0.376816"
         x="11.623376"
         y="7.3263092" /><rect
         style="fill:#303030;stroke-width:0.145;stroke-linejoin:round"
         id="rect14-7-9-4-5-64-1"
         width="0.059829496"
         height="0.13378662"
         x="13.340268"
         y="7.3263092" /><rect
         style="fill:#676767;stroke-width:0.125349;stroke-linejoin:round"
         id="rect15-9-1-5-82-5-0"
         width="0.4603602"
         height="0.188408"
         x="12.132112"
         y="7.3260527" /></g></g></svg>
